<svg xmlns="http://www.w3.org/2000/svg" xmlns:oryx="http://oryx-editor.org" id="_064618F1-D923-4FD9-9846-BC83F141662F" width="750.5" height="261" xmlns:xlink="http://www.w3.org/1999/xlink" xmlns:svg="http://www.w3.org/2000/svg"><defs><marker id="_02A43DF2-FE1F-4E7C-A037-1F53256A416Fstart" refX="1" refY="5" markerUnits="userSpaceOnUse" markerWidth="17" markerHeight="11" orient="auto" fill="#000000" stroke="#000000"> 	  		<path id="_02A43DF2-FE1F-4E7C-A037-1F53256A416Fconditional" d="M 0 5 L 8 0 L 16 5 L 8 10 L 0 5" fill="white" stroke="#000000" stroke-width="1" display="none"/> 			<path id="_02A43DF2-FE1F-4E7C-A037-1F53256A416Fdefault" d="M 5 0 L 11 10" fill="white" stroke="#000000" stroke-width="1" display="none"/> 	  	</marker><marker id="_02A43DF2-FE1F-4E7C-A037-1F53256A416Fend" refX="15" refY="6" markerUnits="userSpaceOnUse" markerWidth="15" markerHeight="12" orient="auto" fill="#000000" stroke="#000000"> 	  		<path id="_02A43DF2-FE1F-4E7C-A037-1F53256A416Fframe2" d="M 0 1 L 15 6 L 0 11z" fill="#000000" stroke="#000000" stroke-linejoin="round" stroke-width="2"/> 	  	</marker><marker id="_77EDD362-A84A-44B8-8ED2-09A21B2CB751start" refX="1" refY="5" markerUnits="userSpaceOnUse" markerWidth="17" markerHeight="11" orient="auto" fill="#000000" stroke="#000000"> 	  		<path id="_77EDD362-A84A-44B8-8ED2-09A21B2CB751conditional" d="M 0 5 L 8 0 L 16 5 L 8 10 L 0 5" fill="white" stroke="#000000" stroke-width="1" display="none"/> 			<path id="_77EDD362-A84A-44B8-8ED2-09A21B2CB751default" d="M 5 0 L 11 10" fill="white" stroke="#000000" stroke-width="1" display="none"/> 	  	</marker><marker id="_77EDD362-A84A-44B8-8ED2-09A21B2CB751end" refX="15" refY="6" markerUnits="userSpaceOnUse" markerWidth="15" markerHeight="12" orient="auto" fill="#000000" stroke="#000000"> 	  		<path id="_77EDD362-A84A-44B8-8ED2-09A21B2CB751frame2" d="M 0 1 L 15 6 L 0 11z" fill="#000000" stroke="#000000" stroke-linejoin="round" stroke-width="2"/> 	  	</marker><marker id="_DDA96749-D9FF-4557-93B3-D79E50359C33start" refX="1" refY="5" markerUnits="userSpaceOnUse" markerWidth="17" markerHeight="11" orient="auto" fill="#000000" stroke="#000000"> 	  		<path id="_DDA96749-D9FF-4557-93B3-D79E50359C33conditional" d="M 0 5 L 8 0 L 16 5 L 8 10 L 0 5" fill="white" stroke="#000000" stroke-width="1" display="none"/> 			<path id="_DDA96749-D9FF-4557-93B3-D79E50359C33default" d="M 5 0 L 11 10" fill="white" stroke="#000000" stroke-width="1" display="none"/> 	  	</marker><marker id="_DDA96749-D9FF-4557-93B3-D79E50359C33end" refX="15" refY="6" markerUnits="userSpaceOnUse" markerWidth="15" markerHeight="12" orient="auto" fill="#000000" stroke="#000000"> 	  		<path id="_DDA96749-D9FF-4557-93B3-D79E50359C33frame2" d="M 0 1 L 15 6 L 0 11z" fill="#000000" stroke="#000000" stroke-linejoin="round" stroke-width="2"/> 	  	</marker><marker id="_903BF855-2964-440A-86B1-F9F92D7C4DFFstart" refX="1" refY="5" markerUnits="userSpaceOnUse" markerWidth="17" markerHeight="11" orient="auto" fill="#000000" stroke="#000000"> 	  		<path id="_903BF855-2964-440A-86B1-F9F92D7C4DFFconditional" d="M 0 5 L 8 0 L 16 5 L 8 10 L 0 5" fill="white" stroke="#000000" stroke-width="1" display="none"/> 			<path id="_903BF855-2964-440A-86B1-F9F92D7C4DFFdefault" d="M 5 0 L 11 10" fill="white" stroke="#000000" stroke-width="1" display="none"/> 	  	</marker><marker id="_903BF855-2964-440A-86B1-F9F92D7C4DFFend" refX="15" refY="6" markerUnits="userSpaceOnUse" markerWidth="15" markerHeight="12" orient="auto" fill="#000000" stroke="#000000"> 	  		<path id="_903BF855-2964-440A-86B1-F9F92D7C4DFFframe2" d="M 0 1 L 15 6 L 0 11z" fill="#000000" stroke="#000000" stroke-linejoin="round" stroke-width="2"/> 	  	</marker></defs><g stroke="none" font-family="Verdana, sans-serif" font-size-adjust="none" font-style="normal" font-variant="normal" font-weight="normal" line-heigth="normal" font-size="12"><g class="stencils" transform="translate(15, 16)"><g class="me"/><g class="children"><g id="_18EC33A7-D57F-49F9-945A-8940119DE038" bpmn2nodeid="processStartEvent"><g class="stencils" transform="translate(120, 165)"><g class="me"><g pointer-events="fill" id="_18EC33A7-D57F-49F9-945A-8940119DE038">        <defs id="_18EC33A7-D57F-49F9-945A-8940119DE038__18EC33A7-D57F-49F9-945A-8940119DE038_5"> 		<radialGradient id="_18EC33A7-D57F-49F9-945A-8940119DE038background" cx="10%" cy="10%" r="100%" fx="10%" fy="10%"> 			<stop offset="0%" stop-color="#ffffff" stop-opacity="1" id="_18EC33A7-D57F-49F9-945A-8940119DE038__18EC33A7-D57F-49F9-945A-8940119DE038_6"/> 			<stop id="_18EC33A7-D57F-49F9-945A-8940119DE038fill_el" offset="100%" stop-color="#9acd32" stop-opacity="1"/> 		</radialGradient> 	</defs> 	     <circle id="_18EC33A7-D57F-49F9-945A-8940119DE038bg_frame" cx="15" cy="15" r="15" stroke="#000000" fill="url(#_18EC33A7-D57F-49F9-945A-8940119DE038background) white" stroke-width="1" style="stroke-dasharray: 5.5, 3"/>      <circle id="_18EC33A7-D57F-49F9-945A-8940119DE038frame" cx="15" cy="15" r="15" stroke="#000000" fill="none" stroke-width="1" display="inherit"/>  	<text font-size="11" id="_18EC33A7-D57F-49F9-945A-8940119DE038text_name" x="15" y="32" oryx:align="top center" stroke="black" stroke-width="0pt" letter-spacing="-0.01px" fill="#000000" text-anchor="middle" transform="rotate(0 15 32)" visibility="inherit" oryx:fontSize="11"><tspan x="15" y="32" dy="11">start question</tspan></text>   </g></g><g class="children" style="overflow:hidden"/><g class="edge"/></g><g class="controls"><g class="dockers"/><g class="magnets" transform="translate(120, 165)"><g pointer-events="all" display="none" transform="translate(7, 7)"><circle cx="8" cy="8" r="4" stroke="none" fill="red" fill-opacity="0.3"/></g></g></g></g><g id="_E6474BA0-9AA7-4B2A-ADA1-E8DCC132BFFF" bpmn2nodeid="_F1088AD8-A503-4CE7-B9A3-D919E6326009"><g class="stencils" transform="translate(195, 140)"><g class="me"><g pointer-events="fill" oryx:minimumSize="50 40" id="_E6474BA0-9AA7-4B2A-ADA1-E8DCC132BFFF">   	<defs id="_E6474BA0-9AA7-4B2A-ADA1-E8DCC132BFFF__E6474BA0-9AA7-4B2A-ADA1-E8DCC132BFFF_17"> 		<radialGradient id="_E6474BA0-9AA7-4B2A-ADA1-E8DCC132BFFFbackground" cx="10%" cy="10%" r="100%" fx="10%" fy="10%"> 			<stop offset="0%" stop-color="#ffffff" stop-opacity="1" id="_E6474BA0-9AA7-4B2A-ADA1-E8DCC132BFFF__E6474BA0-9AA7-4B2A-ADA1-E8DCC132BFFF_18"/> 			<stop id="_E6474BA0-9AA7-4B2A-ADA1-E8DCC132BFFFfill_el" offset="100%" stop-color="#fafad2" stop-opacity="1"/> 		</radialGradient> 		<radialGradient id="_E6474BA0-9AA7-4B2A-ADA1-E8DCC132BFFFborderbackground" cx="10%" cy="10%" r="100%" fx="10%" fy="10%"> 			<stop offset="0%" stop-color="#ffffff" stop-opacity="1" id="_E6474BA0-9AA7-4B2A-ADA1-E8DCC132BFFF__E6474BA0-9AA7-4B2A-ADA1-E8DCC132BFFF_19"/> 			<stop id="_E6474BA0-9AA7-4B2A-ADA1-E8DCC132BFFFfill_border" offset="100%" stop-color="#000000" stop-opacity="1" stroke="#000000"/> 		</radialGradient> 	</defs> 	 	<rect id="_E6474BA0-9AA7-4B2A-ADA1-E8DCC132BFFFtext_frame" oryx:anchors="bottom top right left" x="1" y="1" width="94" height="79" rx="10" ry="10" stroke="none" stroke-width="0" fill="none"/> 	<rect id="_E6474BA0-9AA7-4B2A-ADA1-E8DCC132BFFFbg_frame" oryx:resize="vertical horizontal" x="0" y="0" width="100" height="80" rx="10" ry="10" stroke="#000000" stroke-width="1" fill="url(#_E6474BA0-9AA7-4B2A-ADA1-E8DCC132BFFFbackground) #ffffcc"/> 		<text font-size="12" id="_E6474BA0-9AA7-4B2A-ADA1-E8DCC132BFFFtext_name" x="50" y="40" oryx:align="middle center" oryx:fittoelem="text_frame" stroke="black" text-anchor="middle" stroke-width="0pt" letter-spacing="-0.01px" fill="#000000" transform="rotate(0 50 40)" visibility="inherit" oryx:fontSize="12"><tspan x="50" y="40" dy="5">prefill question</tspan></text>     <g id="_E6474BA0-9AA7-4B2A-ADA1-E8DCC132BFFFmanualTask" transform="scale(0.7,0.7) translate(8,8)" display="none">     	<path oryx:anchors="top left" id="_E6474BA0-9AA7-4B2A-ADA1-E8DCC132BFFFframe" style="opacity:1;fill:none;fill-opacity:1;stroke-width:1" d="M0.5,3.751l4.083-3.25c0,0,11.166,0.083,12.083,0.083s-2.417,2.917-1.5,2.917     s11.667,0,12.584,0c1.166,1.708-0.168,3.167-0.834,3.667s0.875,1.917-1,4.417c-0.75,0.25,0.75,1.875-1.333,3.333     c-1.167,0.583,0.583,1.542-1.25,2.833c-1.167,0-20.833,0.083-20.833,0.083l-2-1.333V3.751z" stroke="#000000"/> 		<path id="_E6474BA0-9AA7-4B2A-ADA1-E8DCC132BFFFframe2" oryx:anchors="top left" style="opacity:1;fill:none;stroke-width:2" d="M 13.5 7 L 27 7" stroke="#000000"/> 		<path id="_E6474BA0-9AA7-4B2A-ADA1-E8DCC132BFFFframe3" oryx:anchors="top left" style="opacity:1;fill:none;stroke-width:2" d="M 13.5 11 L 26 11" stroke="#000000"/> 		<path id="_E6474BA0-9AA7-4B2A-ADA1-E8DCC132BFFFframe4" oryx:anchors="top left" style="opacity:1;fill:none;stroke-width:1.5" d="M 14 14.5 L 25 14.5" stroke="#000000"/> 		<path id="_E6474BA0-9AA7-4B2A-ADA1-E8DCC132BFFFframe5" oryx:anchors="top left" style="opacity:1;fill:none;stroke-width:1.5" d="M 8.2 3.1 L 15 3.1" stroke="#000000"/> 	</g> 	 	<g id="_E6474BA0-9AA7-4B2A-ADA1-E8DCC132BFFFbusinessRuleTask" transform="scale(0.7,0.7) translate(8,8)" display="inherit"> 		<rect id="_E6474BA0-9AA7-4B2A-ADA1-E8DCC132BFFFframe6" oryx:anchors="top left" x="0" y="0" width="22" height="4" style="opacity:1;fill:#B3B1B3;fill-opacity:1;" stroke="#000000"/> 		<rect id="_E6474BA0-9AA7-4B2A-ADA1-E8DCC132BFFFframe7" oryx:anchors="top left" x="0" y="4" style="opacity:1;fill:none;" width="22" height="12" stroke="#000000"/> 		<path id="_E6474BA0-9AA7-4B2A-ADA1-E8DCC132BFFFframe8" oryx:anchors="top left" style="opacity:1;fill:none;" d="M 0 10 L 22 10" stroke="#000000"/> 		<path id="_E6474BA0-9AA7-4B2A-ADA1-E8DCC132BFFFframe9" oryx:anchors="top left" style="opacity:1; fill:none;" d="M 7 4 L 7 16" stroke="#000000"/> 	</g> 	 	<g id="_E6474BA0-9AA7-4B2A-ADA1-E8DCC132BFFFscriptTask" transform="scale(0.7,0.7) translate(8,8)" display="none"> 		<path oryx:anchors="top left" id="_E6474BA0-9AA7-4B2A-ADA1-E8DCC132BFFFframe10" style="opacity:1;fill:none;" stroke="#000000" d="M6.402,0.5h14.5c0,0-5.833,2.833-5.833,5.583s4.417,6,4.417,9.167    s-4.167,5.083-4.167,5.083H0.235c0,0,5-2.667,5-5s-4.583-6.75-4.583-9.25S6.402,0.5,6.402,0.5z"/> 		<path oryx:anchors="top left" id="_E6474BA0-9AA7-4B2A-ADA1-E8DCC132BFFFframe11" style="opacity:1;fill:none;stroke-width:1.5" d="M 3.5 4.5 L 13.5 4.5" stroke="#000000"/> 		<path oryx:anchors="top left" id="_E6474BA0-9AA7-4B2A-ADA1-E8DCC132BFFFframe12" style="opacity:1;fill:none;stroke-width:1.5" d="M 3.8 8.5 L 13.8 8.5" stroke="#000000"/> 		<path oryx:anchors="top left" id="_E6474BA0-9AA7-4B2A-ADA1-E8DCC132BFFFframe13" style="opacity:1;fill:none;stroke-width:1.5" d="M 6.3 12.5 L 16.3 12.5" stroke="#000000"/> 		<path oryx:anchors="top left" id="_E6474BA0-9AA7-4B2A-ADA1-E8DCC132BFFFframe14" style="opacity:1;fill:none;stroke-width:1.5" d="M 6.5 16.5 L 16.5 16.5" stroke="#000000"/> 	</g> 	 	<g id="_E6474BA0-9AA7-4B2A-ADA1-E8DCC132BFFFuserTask" transform="scale(0.7,0.7) translate(8,8)" display="none"> 		<path id="_E6474BA0-9AA7-4B2A-ADA1-E8DCC132BFFFframe15" oryx:anchors="top left" style="opacity:1;fill:#F4F6F7" stroke="#000000" d="M0.585,24.167h24.083v-7.833c0,0-2.333-3.917-7.083-5.167h-9.25    c-4.417,1.333-7.833,5.75-7.833,5.75L0.585,24.167z"/> 		<path id="_E6474BA0-9AA7-4B2A-ADA1-E8DCC132BFFFframe16" oryx:anchors="top left" style="opacity:1;fill:none" d="M 6 20 L 6 24" stroke="#000000"/> 		<path id="_E6474BA0-9AA7-4B2A-ADA1-E8DCC132BFFFframe17" oryx:anchors="top left" style="opacity:1;fill:none" d="M 20 20 L 20 24" stroke="#000000"/> 		<circle id="_E6474BA0-9AA7-4B2A-ADA1-E8DCC132BFFFframe18" oryx:anchors="top left" fill="black" cx="13.002" cy="5.916" r="5.417" stroke="#000000"/> 		<path id="_E6474BA0-9AA7-4B2A-ADA1-E8DCC132BFFFframe19" oryx:anchors="top left" style="opacity:1;fill:#F0EFF0;" stroke="#000000" d="M8.043,7.083c0,0,2.814-2.426,5.376-1.807s4.624-0.693,4.624-0.693    c0.25,1.688,0.042,3.75-1.458,5.584c0,0,1.083,0.75,1.083,1.5s0.125,1.875-1,3s-5.5,1.25-6.75,0S8.668,12.834,8.668,12    s0.583-1.25,1.25-1.917C8.835,9.5,7.419,7.708,8.043,7.083z"/> 	</g> 	 	<g id="_E6474BA0-9AA7-4B2A-ADA1-E8DCC132BFFFserviceTask" transform="scale(0.7,0.7) translate(8,8)" display="none"> 		<polygon oryx:anchors="top left" id="_E6474BA0-9AA7-4B2A-ADA1-E8DCC132BFFFframe20" style="opacity:1;fill:#ffffff" stroke="#000000" points="15.392,5.064 17.954,2.502 20.347,4.895 17.786,7.455     18.729,9.732 22.353,9.732 22.353,13.115 18.731,13.115 17.788,15.392 20.351,17.955 17.958,20.347 15.397,17.786 13.12,18.729     13.12,22.353 9.737,22.353 9.737,18.731 7.46,17.788 4.897,20.35 2.506,17.958 5.066,15.397 4.124,13.12 0.5,13.12 0.5,9.737     4.121,9.737 5.065,7.461 2.503,4.898 4.895,2.506 7.455,5.066 9.732,4.125 9.732,0.5 13.116,0.5 13.116,4.121 "/> 		<circle oryx:anchors="top left" id="_E6474BA0-9AA7-4B2A-ADA1-E8DCC132BFFFframe21" style="opacity:1;fill:none" stroke="#000000" cx="11.427" cy="11.426" r="3.714"/> 		<polygon oryx:anchors="top left" id="_E6474BA0-9AA7-4B2A-ADA1-E8DCC132BFFFframe22" style="opacity:1;fill:#ffffff" stroke="#000000" points="21.392,11.064 23.954,8.502 26.347,10.895 23.786,13.455     24.729,15.732 28.353,15.732 28.353,19.115 24.731,19.115 23.788,21.392 26.351,23.955 23.958,26.347 21.397,23.786 19.12,24.729     19.12,28.353 15.737,28.353 15.737,24.731 13.46,23.788 10.897,26.35 8.506,23.958 11.066,21.397 10.124,19.12 6.5,19.12     6.5,15.737 10.121,15.737 11.065,13.461 8.503,10.898 10.895,8.506 13.455,11.066 15.732,10.125 15.732,6.5 19.116,6.5     19.116,10.121 "/> 		<circle oryx:anchors="top left" id="_E6474BA0-9AA7-4B2A-ADA1-E8DCC132BFFFframe23" style="opacity:1;fill:none;" stroke="#000000" cx="17.427" cy="17.426" r="3.714"/> 	</g> 	 	<g id="_E6474BA0-9AA7-4B2A-ADA1-E8DCC132BFFFsendTask" display="none"> 		<path id="_E6474BA0-9AA7-4B2A-ADA1-E8DCC132BFFFstframe24" oryx:anchors="left top" stroke="#FFFFFF" fill="black" stroke-width="1" d="M8,11 L8,21 L24,21 L24,11 L16,17z"/> 		<path id="_E6474BA0-9AA7-4B2A-ADA1-E8DCC132BFFFstframe25" oryx:anchors="left top" stroke="#FFFFFF" fill="black" stroke-width="1" d="M7,10 L16,17 L25 10z"/> 	</g> 	 	<g id="_E6474BA0-9AA7-4B2A-ADA1-E8DCC132BFFFreceiveTask" display="none"> 		<path id="_E6474BA0-9AA7-4B2A-ADA1-E8DCC132BFFFframe26" oryx:anchors="left top" stroke="#000000" fill="none" stroke-width="1" d="M8,11 L8,21 L24,21 L24,11z M8,11 L16,17 L24,11"/> 	</g> 	 	<g id="_E6474BA0-9AA7-4B2A-ADA1-E8DCC132BFFFnone" display="inherit"/>  	<g id="_E6474BA0-9AA7-4B2A-ADA1-E8DCC132BFFFsequential" display="none">         <path oryx:anchors="bottom" fill="none" stroke="#000000" stroke-width="2" d="M46,76h10M46,72h10 M46,68h10" id="_E6474BA0-9AA7-4B2A-ADA1-E8DCC132BFFF__E6474BA0-9AA7-4B2A-ADA1-E8DCC132BFFF_20"/>     </g>   </g></g><g class="children" style="overflow:hidden"/><g class="edge"/></g><g class="controls"><g class="dockers"/><g class="magnets" transform="translate(195, 140)"><g pointer-events="all" display="none" transform="translate(-7, 12)"><circle cx="8" cy="8" r="4" stroke="none" fill="red" fill-opacity="0.3"/></g><g pointer-events="all" display="none" transform="translate(-7, 32)"><circle cx="8" cy="8" r="4" stroke="none" fill="red" fill-opacity="0.3"/></g><g pointer-events="all" display="none" transform="translate(-7, 52)"><circle cx="8" cy="8" r="4" stroke="none" fill="red" fill-opacity="0.3"/></g><g pointer-events="all" display="none" transform="translate(17, 71)"><circle cx="8" cy="8" r="4" stroke="none" fill="red" fill-opacity="0.3"/></g><g pointer-events="all" display="none" transform="translate(42, 71)"><circle cx="8" cy="8" r="4" stroke="none" fill="red" fill-opacity="0.3"/></g><g pointer-events="all" display="none" transform="translate(67, 71)"><circle cx="8" cy="8" r="4" stroke="none" fill="red" fill-opacity="0.3"/></g><g pointer-events="all" display="none" transform="translate(91, 12)"><circle cx="8" cy="8" r="4" stroke="none" fill="red" fill-opacity="0.3"/></g><g pointer-events="all" display="none" transform="translate(91, 32)"><circle cx="8" cy="8" r="4" stroke="none" fill="red" fill-opacity="0.3"/></g><g pointer-events="all" display="none" transform="translate(91, 52)"><circle cx="8" cy="8" r="4" stroke="none" fill="red" fill-opacity="0.3"/></g><g pointer-events="all" display="none" transform="translate(17, -7)"><circle cx="8" cy="8" r="4" stroke="none" fill="red" fill-opacity="0.3"/></g><g pointer-events="all" display="none" transform="translate(42, -7)"><circle cx="8" cy="8" r="4" stroke="none" fill="red" fill-opacity="0.3"/></g><g pointer-events="all" display="none" transform="translate(67, -7)"><circle cx="8" cy="8" r="4" stroke="none" fill="red" fill-opacity="0.3"/></g><g pointer-events="all" display="none" transform="translate(42, 32)"><circle cx="8" cy="8" r="4" stroke="none" fill="red" fill-opacity="0.3"/></g></g></g></g><g id="_829EFC63-BAB6-4B55-B14F-BCCA4E1B9684" bpmn2nodeid="_93564452-389D-4495-B422-A7439E607373"><g class="stencils" transform="translate(330, 140)"><g class="me"><g pointer-events="fill" oryx:minimumSize="50 40" id="_829EFC63-BAB6-4B55-B14F-BCCA4E1B9684">   	<defs id="_829EFC63-BAB6-4B55-B14F-BCCA4E1B9684__829EFC63-BAB6-4B55-B14F-BCCA4E1B9684_17"> 		<radialGradient id="_829EFC63-BAB6-4B55-B14F-BCCA4E1B9684background" cx="10%" cy="10%" r="100%" fx="10%" fy="10%"> 			<stop offset="0%" stop-color="#ffffff" stop-opacity="1" id="_829EFC63-BAB6-4B55-B14F-BCCA4E1B9684__829EFC63-BAB6-4B55-B14F-BCCA4E1B9684_18"/> 			<stop id="_829EFC63-BAB6-4B55-B14F-BCCA4E1B9684fill_el" offset="100%" stop-color="#fafad2" stop-opacity="1"/> 		</radialGradient> 		<radialGradient id="_829EFC63-BAB6-4B55-B14F-BCCA4E1B9684borderbackground" cx="10%" cy="10%" r="100%" fx="10%" fy="10%"> 			<stop offset="0%" stop-color="#ffffff" stop-opacity="1" id="_829EFC63-BAB6-4B55-B14F-BCCA4E1B9684__829EFC63-BAB6-4B55-B14F-BCCA4E1B9684_19"/> 			<stop id="_829EFC63-BAB6-4B55-B14F-BCCA4E1B9684fill_border" offset="100%" stop-color="#000000" stop-opacity="1" stroke="#000000"/> 		</radialGradient> 	</defs> 	 	<rect id="_829EFC63-BAB6-4B55-B14F-BCCA4E1B9684text_frame" oryx:anchors="bottom top right left" x="1" y="1" width="94" height="79" rx="10" ry="10" stroke="none" stroke-width="0" fill="none"/> 	<rect id="_829EFC63-BAB6-4B55-B14F-BCCA4E1B9684bg_frame" oryx:resize="vertical horizontal" x="0" y="0" width="100" height="80" rx="10" ry="10" stroke="#000000" stroke-width="1" fill="url(#_829EFC63-BAB6-4B55-B14F-BCCA4E1B9684background) #ffffcc"/> 		<text font-size="12" id="_829EFC63-BAB6-4B55-B14F-BCCA4E1B9684text_name" x="50" y="40" oryx:align="middle center" oryx:fittoelem="text_frame" stroke="black" text-anchor="middle" stroke-width="0pt" letter-spacing="-0.01px" fill="#000000" transform="rotate(0 50 40)" visibility="inherit" oryx:fontSize="12"><tspan x="50" y="40" dy="5" id="ext-gen607">answer question</tspan></text>     <g id="_829EFC63-BAB6-4B55-B14F-BCCA4E1B9684manualTask" transform="scale(0.7,0.7) translate(8,8)" display="none">     	<path oryx:anchors="top left" id="_829EFC63-BAB6-4B55-B14F-BCCA4E1B9684frame" style="opacity:1;fill:none;fill-opacity:1;stroke-width:1" d="M0.5,3.751l4.083-3.25c0,0,11.166,0.083,12.083,0.083s-2.417,2.917-1.5,2.917     s11.667,0,12.584,0c1.166,1.708-0.168,3.167-0.834,3.667s0.875,1.917-1,4.417c-0.75,0.25,0.75,1.875-1.333,3.333     c-1.167,0.583,0.583,1.542-1.25,2.833c-1.167,0-20.833,0.083-20.833,0.083l-2-1.333V3.751z" stroke="#000000"/> 		<path id="_829EFC63-BAB6-4B55-B14F-BCCA4E1B9684frame2" oryx:anchors="top left" style="opacity:1;fill:none;stroke-width:2" d="M 13.5 7 L 27 7" stroke="#000000"/> 		<path id="_829EFC63-BAB6-4B55-B14F-BCCA4E1B9684frame3" oryx:anchors="top left" style="opacity:1;fill:none;stroke-width:2" d="M 13.5 11 L 26 11" stroke="#000000"/> 		<path id="_829EFC63-BAB6-4B55-B14F-BCCA4E1B9684frame4" oryx:anchors="top left" style="opacity:1;fill:none;stroke-width:1.5" d="M 14 14.5 L 25 14.5" stroke="#000000"/> 		<path id="_829EFC63-BAB6-4B55-B14F-BCCA4E1B9684frame5" oryx:anchors="top left" style="opacity:1;fill:none;stroke-width:1.5" d="M 8.2 3.1 L 15 3.1" stroke="#000000"/> 	</g> 	 	<g id="_829EFC63-BAB6-4B55-B14F-BCCA4E1B9684businessRuleTask" transform="scale(0.7,0.7) translate(8,8)" display="none"> 		<rect id="_829EFC63-BAB6-4B55-B14F-BCCA4E1B9684frame6" oryx:anchors="top left" x="0" y="0" width="22" height="4" style="opacity:1;fill:#B3B1B3;fill-opacity:1;" stroke="#000000"/> 		<rect id="_829EFC63-BAB6-4B55-B14F-BCCA4E1B9684frame7" oryx:anchors="top left" x="0" y="4" style="opacity:1;fill:none;" width="22" height="12" stroke="#000000"/> 		<path id="_829EFC63-BAB6-4B55-B14F-BCCA4E1B9684frame8" oryx:anchors="top left" style="opacity:1;fill:none;" d="M 0 10 L 22 10" stroke="#000000"/> 		<path id="_829EFC63-BAB6-4B55-B14F-BCCA4E1B9684frame9" oryx:anchors="top left" style="opacity:1; fill:none;" d="M 7 4 L 7 16" stroke="#000000"/> 	</g> 	 	<g id="_829EFC63-BAB6-4B55-B14F-BCCA4E1B9684scriptTask" transform="scale(0.7,0.7) translate(8,8)" display="none"> 		<path oryx:anchors="top left" id="_829EFC63-BAB6-4B55-B14F-BCCA4E1B9684frame10" style="opacity:1;fill:none;" stroke="#000000" d="M6.402,0.5h14.5c0,0-5.833,2.833-5.833,5.583s4.417,6,4.417,9.167    s-4.167,5.083-4.167,5.083H0.235c0,0,5-2.667,5-5s-4.583-6.75-4.583-9.25S6.402,0.5,6.402,0.5z"/> 		<path oryx:anchors="top left" id="_829EFC63-BAB6-4B55-B14F-BCCA4E1B9684frame11" style="opacity:1;fill:none;stroke-width:1.5" d="M 3.5 4.5 L 13.5 4.5" stroke="#000000"/> 		<path oryx:anchors="top left" id="_829EFC63-BAB6-4B55-B14F-BCCA4E1B9684frame12" style="opacity:1;fill:none;stroke-width:1.5" d="M 3.8 8.5 L 13.8 8.5" stroke="#000000"/> 		<path oryx:anchors="top left" id="_829EFC63-BAB6-4B55-B14F-BCCA4E1B9684frame13" style="opacity:1;fill:none;stroke-width:1.5" d="M 6.3 12.5 L 16.3 12.5" stroke="#000000"/> 		<path oryx:anchors="top left" id="_829EFC63-BAB6-4B55-B14F-BCCA4E1B9684frame14" style="opacity:1;fill:none;stroke-width:1.5" d="M 6.5 16.5 L 16.5 16.5" stroke="#000000"/> 	</g> 	 	<g id="_829EFC63-BAB6-4B55-B14F-BCCA4E1B9684userTask" transform="scale(0.7,0.7) translate(8,8)" display="inherit"> 		<path id="_829EFC63-BAB6-4B55-B14F-BCCA4E1B9684frame15" oryx:anchors="top left" style="opacity:1;fill:#F4F6F7" stroke="#000000" d="M0.585,24.167h24.083v-7.833c0,0-2.333-3.917-7.083-5.167h-9.25    c-4.417,1.333-7.833,5.75-7.833,5.75L0.585,24.167z"/> 		<path id="_829EFC63-BAB6-4B55-B14F-BCCA4E1B9684frame16" oryx:anchors="top left" style="opacity:1;fill:none" d="M 6 20 L 6 24" stroke="#000000"/> 		<path id="_829EFC63-BAB6-4B55-B14F-BCCA4E1B9684frame17" oryx:anchors="top left" style="opacity:1;fill:none" d="M 20 20 L 20 24" stroke="#000000"/> 		<circle id="_829EFC63-BAB6-4B55-B14F-BCCA4E1B9684frame18" oryx:anchors="top left" fill="black" cx="13.002" cy="5.916" r="5.417" stroke="#000000"/> 		<path id="_829EFC63-BAB6-4B55-B14F-BCCA4E1B9684frame19" oryx:anchors="top left" style="opacity:1;fill:#F0EFF0;" stroke="#000000" d="M8.043,7.083c0,0,2.814-2.426,5.376-1.807s4.624-0.693,4.624-0.693    c0.25,1.688,0.042,3.75-1.458,5.584c0,0,1.083,0.75,1.083,1.5s0.125,1.875-1,3s-5.5,1.25-6.75,0S8.668,12.834,8.668,12    s0.583-1.25,1.25-1.917C8.835,9.5,7.419,7.708,8.043,7.083z"/> 	</g> 	 	<g id="_829EFC63-BAB6-4B55-B14F-BCCA4E1B9684serviceTask" transform="scale(0.7,0.7) translate(8,8)" display="none"> 		<polygon oryx:anchors="top left" id="_829EFC63-BAB6-4B55-B14F-BCCA4E1B9684frame20" style="opacity:1;fill:#ffffff" stroke="#000000" points="15.392,5.064 17.954,2.502 20.347,4.895 17.786,7.455     18.729,9.732 22.353,9.732 22.353,13.115 18.731,13.115 17.788,15.392 20.351,17.955 17.958,20.347 15.397,17.786 13.12,18.729     13.12,22.353 9.737,22.353 9.737,18.731 7.46,17.788 4.897,20.35 2.506,17.958 5.066,15.397 4.124,13.12 0.5,13.12 0.5,9.737     4.121,9.737 5.065,7.461 2.503,4.898 4.895,2.506 7.455,5.066 9.732,4.125 9.732,0.5 13.116,0.5 13.116,4.121 "/> 		<circle oryx:anchors="top left" id="_829EFC63-BAB6-4B55-B14F-BCCA4E1B9684frame21" style="opacity:1;fill:none" stroke="#000000" cx="11.427" cy="11.426" r="3.714"/> 		<polygon oryx:anchors="top left" id="_829EFC63-BAB6-4B55-B14F-BCCA4E1B9684frame22" style="opacity:1;fill:#ffffff" stroke="#000000" points="21.392,11.064 23.954,8.502 26.347,10.895 23.786,13.455     24.729,15.732 28.353,15.732 28.353,19.115 24.731,19.115 23.788,21.392 26.351,23.955 23.958,26.347 21.397,23.786 19.12,24.729     19.12,28.353 15.737,28.353 15.737,24.731 13.46,23.788 10.897,26.35 8.506,23.958 11.066,21.397 10.124,19.12 6.5,19.12     6.5,15.737 10.121,15.737 11.065,13.461 8.503,10.898 10.895,8.506 13.455,11.066 15.732,10.125 15.732,6.5 19.116,6.5     19.116,10.121 "/> 		<circle oryx:anchors="top left" id="_829EFC63-BAB6-4B55-B14F-BCCA4E1B9684frame23" style="opacity:1;fill:none;" stroke="#000000" cx="17.427" cy="17.426" r="3.714"/> 	</g> 	 	<g id="_829EFC63-BAB6-4B55-B14F-BCCA4E1B9684sendTask" display="none"> 		<path id="_829EFC63-BAB6-4B55-B14F-BCCA4E1B9684stframe24" oryx:anchors="left top" stroke="#FFFFFF" fill="black" stroke-width="1" d="M8,11 L8,21 L24,21 L24,11 L16,17z"/> 		<path id="_829EFC63-BAB6-4B55-B14F-BCCA4E1B9684stframe25" oryx:anchors="left top" stroke="#FFFFFF" fill="black" stroke-width="1" d="M7,10 L16,17 L25 10z"/> 	</g> 	 	<g id="_829EFC63-BAB6-4B55-B14F-BCCA4E1B9684receiveTask" display="none"> 		<path id="_829EFC63-BAB6-4B55-B14F-BCCA4E1B9684frame26" oryx:anchors="left top" stroke="#000000" fill="none" stroke-width="1" d="M8,11 L8,21 L24,21 L24,11z M8,11 L16,17 L24,11"/> 	</g> 	 	<g id="_829EFC63-BAB6-4B55-B14F-BCCA4E1B9684none" display="inherit"/>  	<g id="_829EFC63-BAB6-4B55-B14F-BCCA4E1B9684sequential" display="none">         <path oryx:anchors="bottom" fill="none" stroke="#000000" stroke-width="2" d="M46,76h10M46,72h10 M46,68h10" id="_829EFC63-BAB6-4B55-B14F-BCCA4E1B9684__829EFC63-BAB6-4B55-B14F-BCCA4E1B9684_20"/>     </g>   </g></g><g class="children" style="overflow:hidden"/><g class="edge"/></g><g class="controls"><g class="dockers"/><g class="magnets" transform="translate(330, 140)"><g pointer-events="all" display="none" transform="translate(-7, 12)"><circle cx="8" cy="8" r="4" stroke="none" fill="red" fill-opacity="0.3"/></g><g pointer-events="all" display="none" transform="translate(-7, 32)"><circle cx="8" cy="8" r="4" stroke="none" fill="red" fill-opacity="0.3"/></g><g pointer-events="all" display="none" transform="translate(-7, 52)"><circle cx="8" cy="8" r="4" stroke="none" fill="red" fill-opacity="0.3"/></g><g pointer-events="all" display="none" transform="translate(17, 71)"><circle cx="8" cy="8" r="4" stroke="none" fill="red" fill-opacity="0.3"/></g><g pointer-events="all" display="none" transform="translate(42, 71)"><circle cx="8" cy="8" r="4" stroke="none" fill="red" fill-opacity="0.3"/></g><g pointer-events="all" display="none" transform="translate(67, 71)"><circle cx="8" cy="8" r="4" stroke="none" fill="red" fill-opacity="0.3"/></g><g pointer-events="all" display="none" transform="translate(91, 12)"><circle cx="8" cy="8" r="4" stroke="none" fill="red" fill-opacity="0.3"/></g><g pointer-events="all" display="none" transform="translate(91, 32)"><circle cx="8" cy="8" r="4" stroke="none" fill="red" fill-opacity="0.3"/></g><g pointer-events="all" display="none" transform="translate(91, 52)"><circle cx="8" cy="8" r="4" stroke="none" fill="red" fill-opacity="0.3"/></g><g pointer-events="all" display="none" transform="translate(17, -7)"><circle cx="8" cy="8" r="4" stroke="none" fill="red" fill-opacity="0.3"/></g><g pointer-events="all" display="none" transform="translate(42, -7)"><circle cx="8" cy="8" r="4" stroke="none" fill="red" fill-opacity="0.3"/></g><g pointer-events="all" display="none" transform="translate(67, -7)"><circle cx="8" cy="8" r="4" stroke="none" fill="red" fill-opacity="0.3"/></g><g pointer-events="all" display="none" transform="translate(42, 32)"><circle cx="8" cy="8" r="4" stroke="none" fill="red" fill-opacity="0.3"/></g></g></g></g><g id="_AEF45E19-EFF2-4385-9B5D-1AAA41F22C01" bpmn2nodeid="_7D513B0F-F4A3-41AC-9056-F4CD662390F7"><g class="stencils" transform="translate(660, 166)"><g class="me"><g pointer-events="fill" id="_AEF45E19-EFF2-4385-9B5D-1AAA41F22C01">      <defs id="_AEF45E19-EFF2-4385-9B5D-1AAA41F22C01__AEF45E19-EFF2-4385-9B5D-1AAA41F22C01_5"> 		<radialGradient id="_AEF45E19-EFF2-4385-9B5D-1AAA41F22C01background" cx="10%" cy="10%" r="100%" fx="10%" fy="10%"> 			<stop offset="0%" stop-color="#ffffff" stop-opacity="1" id="_AEF45E19-EFF2-4385-9B5D-1AAA41F22C01__AEF45E19-EFF2-4385-9B5D-1AAA41F22C01_6"/> 			<stop id="_AEF45E19-EFF2-4385-9B5D-1AAA41F22C01fill_el" offset="100%" stop-color="#ff6347" stop-opacity="1"/> 		</radialGradient> 	</defs> 	     <circle id="_AEF45E19-EFF2-4385-9B5D-1AAA41F22C01bg_frame" cx="14" cy="14" r="14" stroke="#000000" fill="url(#_AEF45E19-EFF2-4385-9B5D-1AAA41F22C01background) white" stroke-width="3"/> 	<text font-size="11" id="_AEF45E19-EFF2-4385-9B5D-1AAA41F22C01text_name" x="14" y="30" oryx:align="top center" stroke="black" stroke-width="0pt" letter-spacing="-0.01px" fill="#000000" text-anchor="middle" transform="rotate(0 14 30)" visibility="inherit" oryx:fontSize="11"><tspan x="14" y="30" dy="11">end question</tspan></text>   </g></g><g class="children" style="overflow:hidden"/><g class="edge"/></g><g class="controls"><g class="dockers"/><g class="magnets" transform="translate(660, 166)"><g pointer-events="all" display="none" transform="translate(6, 6)"><circle cx="8" cy="8" r="4" stroke="none" fill="red" fill-opacity="0.3"/></g></g></g></g><g id="_18C26969-00C9-43DB-92EE-635DBA8C0827" bpmn2nodeid="_5276B019-B2F7-4D14-AEF7-6575D1C97196"><g class="stencils" transform="translate(480, 140)"><g class="me"><g pointer-events="fill" oryx:minimumSize="50 40" id="_18C26969-00C9-43DB-92EE-635DBA8C0827">   	<defs id="_18C26969-00C9-43DB-92EE-635DBA8C0827__18C26969-00C9-43DB-92EE-635DBA8C0827_17"> 		<radialGradient id="_18C26969-00C9-43DB-92EE-635DBA8C0827background" cx="10%" cy="10%" r="100%" fx="10%" fy="10%"> 			<stop offset="0%" stop-color="#ffffff" stop-opacity="1" id="_18C26969-00C9-43DB-92EE-635DBA8C0827__18C26969-00C9-43DB-92EE-635DBA8C0827_18"/> 			<stop id="_18C26969-00C9-43DB-92EE-635DBA8C0827fill_el" offset="100%" stop-color="#fafad2" stop-opacity="1"/> 		</radialGradient> 		<radialGradient id="_18C26969-00C9-43DB-92EE-635DBA8C0827borderbackground" cx="10%" cy="10%" r="100%" fx="10%" fy="10%"> 			<stop offset="0%" stop-color="#ffffff" stop-opacity="1" id="_18C26969-00C9-43DB-92EE-635DBA8C0827__18C26969-00C9-43DB-92EE-635DBA8C0827_19"/> 			<stop id="_18C26969-00C9-43DB-92EE-635DBA8C0827fill_border" offset="100%" stop-color="#000000" stop-opacity="1" stroke="#000000"/> 		</radialGradient> 	</defs> 	 	<rect id="_18C26969-00C9-43DB-92EE-635DBA8C0827text_frame" oryx:anchors="bottom top right left" x="1" y="1" width="94" height="79" rx="10" ry="10" stroke="none" stroke-width="0" fill="none"/> 	<rect id="_18C26969-00C9-43DB-92EE-635DBA8C0827bg_frame" oryx:resize="vertical horizontal" x="0" y="0" width="100" height="80" rx="10" ry="10" stroke="#000000" stroke-width="1" fill="url(#_18C26969-00C9-43DB-92EE-635DBA8C0827background) #ffffcc"/> 		<text font-size="12" id="_18C26969-00C9-43DB-92EE-635DBA8C0827text_name" x="50" y="40" oryx:align="middle center" oryx:fittoelem="text_frame" stroke="black" text-anchor="middle" stroke-width="0pt" letter-spacing="-0.01px" fill="#000000" transform="rotate(0 50 40)" visibility="inherit" oryx:fontSize="12"><tspan x="50" y="40" dy="-1">Populate </tspan><tspan x="50" y="40" dy="11">Response</tspan></text>     <g id="_18C26969-00C9-43DB-92EE-635DBA8C0827manualTask" transform="scale(0.7,0.7) translate(8,8)" display="none">     	<path oryx:anchors="top left" id="_18C26969-00C9-43DB-92EE-635DBA8C0827frame" style="opacity:1;fill:none;fill-opacity:1;stroke-width:1" d="M0.5,3.751l4.083-3.25c0,0,11.166,0.083,12.083,0.083s-2.417,2.917-1.5,2.917     s11.667,0,12.584,0c1.166,1.708-0.168,3.167-0.834,3.667s0.875,1.917-1,4.417c-0.75,0.25,0.75,1.875-1.333,3.333     c-1.167,0.583,0.583,1.542-1.25,2.833c-1.167,0-20.833,0.083-20.833,0.083l-2-1.333V3.751z" stroke="#000000"/> 		<path id="_18C26969-00C9-43DB-92EE-635DBA8C0827frame2" oryx:anchors="top left" style="opacity:1;fill:none;stroke-width:2" d="M 13.5 7 L 27 7" stroke="#000000"/> 		<path id="_18C26969-00C9-43DB-92EE-635DBA8C0827frame3" oryx:anchors="top left" style="opacity:1;fill:none;stroke-width:2" d="M 13.5 11 L 26 11" stroke="#000000"/> 		<path id="_18C26969-00C9-43DB-92EE-635DBA8C0827frame4" oryx:anchors="top left" style="opacity:1;fill:none;stroke-width:1.5" d="M 14 14.5 L 25 14.5" stroke="#000000"/> 		<path id="_18C26969-00C9-43DB-92EE-635DBA8C0827frame5" oryx:anchors="top left" style="opacity:1;fill:none;stroke-width:1.5" d="M 8.2 3.1 L 15 3.1" stroke="#000000"/> 	</g> 	 	<g id="_18C26969-00C9-43DB-92EE-635DBA8C0827businessRuleTask" transform="scale(0.7,0.7) translate(8,8)" display="none"> 		<rect id="_18C26969-00C9-43DB-92EE-635DBA8C0827frame6" oryx:anchors="top left" x="0" y="0" width="22" height="4" style="opacity:1;fill:#B3B1B3;fill-opacity:1;" stroke="#000000"/> 		<rect id="_18C26969-00C9-43DB-92EE-635DBA8C0827frame7" oryx:anchors="top left" x="0" y="4" style="opacity:1;fill:none;" width="22" height="12" stroke="#000000"/> 		<path id="_18C26969-00C9-43DB-92EE-635DBA8C0827frame8" oryx:anchors="top left" style="opacity:1;fill:none;" d="M 0 10 L 22 10" stroke="#000000"/> 		<path id="_18C26969-00C9-43DB-92EE-635DBA8C0827frame9" oryx:anchors="top left" style="opacity:1; fill:none;" d="M 7 4 L 7 16" stroke="#000000"/> 	</g> 	 	<g id="_18C26969-00C9-43DB-92EE-635DBA8C0827scriptTask" transform="scale(0.7,0.7) translate(8,8)" display="inherit"> 		<path oryx:anchors="top left" id="_18C26969-00C9-43DB-92EE-635DBA8C0827frame10" style="opacity:1;fill:none;" stroke="#000000" d="M6.402,0.5h14.5c0,0-5.833,2.833-5.833,5.583s4.417,6,4.417,9.167    s-4.167,5.083-4.167,5.083H0.235c0,0,5-2.667,5-5s-4.583-6.75-4.583-9.25S6.402,0.5,6.402,0.5z"/> 		<path oryx:anchors="top left" id="_18C26969-00C9-43DB-92EE-635DBA8C0827frame11" style="opacity:1;fill:none;stroke-width:1.5" d="M 3.5 4.5 L 13.5 4.5" stroke="#000000"/> 		<path oryx:anchors="top left" id="_18C26969-00C9-43DB-92EE-635DBA8C0827frame12" style="opacity:1;fill:none;stroke-width:1.5" d="M 3.8 8.5 L 13.8 8.5" stroke="#000000"/> 		<path oryx:anchors="top left" id="_18C26969-00C9-43DB-92EE-635DBA8C0827frame13" style="opacity:1;fill:none;stroke-width:1.5" d="M 6.3 12.5 L 16.3 12.5" stroke="#000000"/> 		<path oryx:anchors="top left" id="_18C26969-00C9-43DB-92EE-635DBA8C0827frame14" style="opacity:1;fill:none;stroke-width:1.5" d="M 6.5 16.5 L 16.5 16.5" stroke="#000000"/> 	</g> 	 	<g id="_18C26969-00C9-43DB-92EE-635DBA8C0827userTask" transform="scale(0.7,0.7) translate(8,8)" display="none"> 		<path id="_18C26969-00C9-43DB-92EE-635DBA8C0827frame15" oryx:anchors="top left" style="opacity:1;fill:#F4F6F7" stroke="#000000" d="M0.585,24.167h24.083v-7.833c0,0-2.333-3.917-7.083-5.167h-9.25    c-4.417,1.333-7.833,5.75-7.833,5.75L0.585,24.167z"/> 		<path id="_18C26969-00C9-43DB-92EE-635DBA8C0827frame16" oryx:anchors="top left" style="opacity:1;fill:none" d="M 6 20 L 6 24" stroke="#000000"/> 		<path id="_18C26969-00C9-43DB-92EE-635DBA8C0827frame17" oryx:anchors="top left" style="opacity:1;fill:none" d="M 20 20 L 20 24" stroke="#000000"/> 		<circle id="_18C26969-00C9-43DB-92EE-635DBA8C0827frame18" oryx:anchors="top left" fill="black" cx="13.002" cy="5.916" r="5.417" stroke="#000000"/> 		<path id="_18C26969-00C9-43DB-92EE-635DBA8C0827frame19" oryx:anchors="top left" style="opacity:1;fill:#F0EFF0;" stroke="#000000" d="M8.043,7.083c0,0,2.814-2.426,5.376-1.807s4.624-0.693,4.624-0.693    c0.25,1.688,0.042,3.75-1.458,5.584c0,0,1.083,0.75,1.083,1.5s0.125,1.875-1,3s-5.5,1.25-6.75,0S8.668,12.834,8.668,12    s0.583-1.25,1.25-1.917C8.835,9.5,7.419,7.708,8.043,7.083z"/> 	</g> 	 	<g id="_18C26969-00C9-43DB-92EE-635DBA8C0827serviceTask" transform="scale(0.7,0.7) translate(8,8)" display="none"> 		<polygon oryx:anchors="top left" id="_18C26969-00C9-43DB-92EE-635DBA8C0827frame20" style="opacity:1;fill:#ffffff" stroke="#000000" points="15.392,5.064 17.954,2.502 20.347,4.895 17.786,7.455     18.729,9.732 22.353,9.732 22.353,13.115 18.731,13.115 17.788,15.392 20.351,17.955 17.958,20.347 15.397,17.786 13.12,18.729     13.12,22.353 9.737,22.353 9.737,18.731 7.46,17.788 4.897,20.35 2.506,17.958 5.066,15.397 4.124,13.12 0.5,13.12 0.5,9.737     4.121,9.737 5.065,7.461 2.503,4.898 4.895,2.506 7.455,5.066 9.732,4.125 9.732,0.5 13.116,0.5 13.116,4.121 "/> 		<circle oryx:anchors="top left" id="_18C26969-00C9-43DB-92EE-635DBA8C0827frame21" style="opacity:1;fill:none" stroke="#000000" cx="11.427" cy="11.426" r="3.714"/> 		<polygon oryx:anchors="top left" id="_18C26969-00C9-43DB-92EE-635DBA8C0827frame22" style="opacity:1;fill:#ffffff" stroke="#000000" points="21.392,11.064 23.954,8.502 26.347,10.895 23.786,13.455     24.729,15.732 28.353,15.732 28.353,19.115 24.731,19.115 23.788,21.392 26.351,23.955 23.958,26.347 21.397,23.786 19.12,24.729     19.12,28.353 15.737,28.353 15.737,24.731 13.46,23.788 10.897,26.35 8.506,23.958 11.066,21.397 10.124,19.12 6.5,19.12     6.5,15.737 10.121,15.737 11.065,13.461 8.503,10.898 10.895,8.506 13.455,11.066 15.732,10.125 15.732,6.5 19.116,6.5     19.116,10.121 "/> 		<circle oryx:anchors="top left" id="_18C26969-00C9-43DB-92EE-635DBA8C0827frame23" style="opacity:1;fill:none;" stroke="#000000" cx="17.427" cy="17.426" r="3.714"/> 	</g> 	 	<g id="_18C26969-00C9-43DB-92EE-635DBA8C0827sendTask" display="none"> 		<path id="_18C26969-00C9-43DB-92EE-635DBA8C0827stframe24" oryx:anchors="left top" stroke="#FFFFFF" fill="black" stroke-width="1" d="M8,11 L8,21 L24,21 L24,11 L16,17z"/> 		<path id="_18C26969-00C9-43DB-92EE-635DBA8C0827stframe25" oryx:anchors="left top" stroke="#FFFFFF" fill="black" stroke-width="1" d="M7,10 L16,17 L25 10z"/> 	</g> 	 	<g id="_18C26969-00C9-43DB-92EE-635DBA8C0827receiveTask" display="none"> 		<path id="_18C26969-00C9-43DB-92EE-635DBA8C0827frame26" oryx:anchors="left top" stroke="#000000" fill="none" stroke-width="1" d="M8,11 L8,21 L24,21 L24,11z M8,11 L16,17 L24,11"/> 	</g> 	 	<g id="_18C26969-00C9-43DB-92EE-635DBA8C0827none" display="inherit"/>  	<g id="_18C26969-00C9-43DB-92EE-635DBA8C0827sequential" display="none">         <path oryx:anchors="bottom" fill="none" stroke="#000000" stroke-width="2" d="M46,76h10M46,72h10 M46,68h10" id="_18C26969-00C9-43DB-92EE-635DBA8C0827__18C26969-00C9-43DB-92EE-635DBA8C0827_20"/>     </g>   </g></g><g class="children" style="overflow:hidden"/><g class="edge"/></g><g class="controls"><g class="dockers"/><g class="magnets" transform="translate(480, 140)"><g pointer-events="all" display="none" transform="translate(-7, 12)"><circle cx="8" cy="8" r="4" stroke="none" fill="red" fill-opacity="0.3"/></g><g pointer-events="all" display="none" transform="translate(-7, 32)"><circle cx="8" cy="8" r="4" stroke="none" fill="red" fill-opacity="0.3"/></g><g pointer-events="all" display="none" transform="translate(-7, 52)"><circle cx="8" cy="8" r="4" stroke="none" fill="red" fill-opacity="0.3"/></g><g pointer-events="all" display="none" transform="translate(17, 71)"><circle cx="8" cy="8" r="4" stroke="none" fill="red" fill-opacity="0.3"/></g><g pointer-events="all" display="none" transform="translate(42, 71)"><circle cx="8" cy="8" r="4" stroke="none" fill="red" fill-opacity="0.3"/></g><g pointer-events="all" display="none" transform="translate(67, 71)"><circle cx="8" cy="8" r="4" stroke="none" fill="red" fill-opacity="0.3"/></g><g pointer-events="all" display="none" transform="translate(91, 12)"><circle cx="8" cy="8" r="4" stroke="none" fill="red" fill-opacity="0.3"/></g><g pointer-events="all" display="none" transform="translate(91, 32)"><circle cx="8" cy="8" r="4" stroke="none" fill="red" fill-opacity="0.3"/></g><g pointer-events="all" display="none" transform="translate(91, 52)"><circle cx="8" cy="8" r="4" stroke="none" fill="red" fill-opacity="0.3"/></g><g pointer-events="all" display="none" transform="translate(17, -7)"><circle cx="8" cy="8" r="4" stroke="none" fill="red" fill-opacity="0.3"/></g><g pointer-events="all" display="none" transform="translate(42, -7)"><circle cx="8" cy="8" r="4" stroke="none" fill="red" fill-opacity="0.3"/></g><g pointer-events="all" display="none" transform="translate(67, -7)"><circle cx="8" cy="8" r="4" stroke="none" fill="red" fill-opacity="0.3"/></g><g pointer-events="all" display="none" transform="translate(42, 32)"><circle cx="8" cy="8" r="4" stroke="none" fill="red" fill-opacity="0.3"/></g></g></g></g></g><g class="edge"><g id="_02A43DF2-FE1F-4E7C-A037-1F53256A416F" bpmn2nodeid="_E755881D-5458-4413-A03F-A090DDBAC2BF"><g class="stencils"><g class="me"><g pointer-events="painted" bpmn2nodeid="_3CA1A095-DEA6-4E1F-99CD-DB3F29F9C1CB"><path id="_02A43DF2-FE1F-4E7C-A037-1F53256A416F_1" d="M150.609375 180L194.15625 180 " stroke="#000000" fill="none" stroke-width="2" stroke-linecap="round" stroke-linejoin="round" marker-start="url(#_02A43DF2-FE1F-4E7C-A037-1F53256A416Fstart)" marker-end="url(#_02A43DF2-FE1F-4E7C-A037-1F53256A416Fend)"/></g><text id="_02A43DF2-FE1F-4E7C-A037-1F53256A416Ftext_name" font-size="12" x="164.609375" y="166" oryx:edgePosition="startTop" stroke-width="0pt" letter-spacing="-0.01px" fill="#000000" text-anchor="start" transform="rotate(360 150.609375 180)" visibility="inherit" oryx:fontSize="12"/></g><g class="children" style="overflow:hidden"/><g class="edge"/></g><g class="controls"><g class="dockers"/><g class="magnets"/></g></g><g id="_77EDD362-A84A-44B8-8ED2-09A21B2CB751" bpmn2nodeid="_2C74AF06-DE4F-44D1-8B04-FF25A92F9086"><g class="stencils"><g class="me"><g pointer-events="painted" bpmn2nodeid="_954B9F43-2442-40D1-8548-7F0D66D92569"><path id="_77EDD362-A84A-44B8-8ED2-09A21B2CB751_1" d="M295.5703125 180L329.4296875 180 " stroke="#000000" fill="none" stroke-width="2" stroke-linecap="round" stroke-linejoin="round" marker-start="url(#_77EDD362-A84A-44B8-8ED2-09A21B2CB751start)" marker-end="url(#_77EDD362-A84A-44B8-8ED2-09A21B2CB751end)"/></g><text id="_77EDD362-A84A-44B8-8ED2-09A21B2CB751text_name" font-size="12" x="309.5703125" y="166" oryx:edgePosition="startTop" stroke-width="0pt" letter-spacing="-0.01px" fill="#000000" text-anchor="start" transform="rotate(360 295.5703125 180)" visibility="inherit" oryx:fontSize="12"/></g><g class="children" style="overflow:hidden"/><g class="edge"/></g><g class="controls"><g class="dockers"/><g class="magnets"/></g></g><g id="_DDA96749-D9FF-4557-93B3-D79E50359C33" bpmn2nodeid="_384363E7-4DEA-43DD-B9AD-BD5241A41851"><g class="stencils"><g class="me"><g pointer-events="painted" bpmn2nodeid="_1B134BDF-4B3D-4755-9A9E-AFAB4745F11D"><path id="_DDA96749-D9FF-4557-93B3-D79E50359C33_1" d="M430.21875 180L479.78125 180 " stroke="#000000" fill="none" stroke-width="2" stroke-linecap="round" stroke-linejoin="round" marker-start="url(#_DDA96749-D9FF-4557-93B3-D79E50359C33start)" marker-end="url(#_DDA96749-D9FF-4557-93B3-D79E50359C33end)"/></g><text id="_DDA96749-D9FF-4557-93B3-D79E50359C33text_name" font-size="12" x="444.21875" y="166" oryx:edgePosition="startTop" stroke-width="0pt" letter-spacing="-0.01px" fill="#000000" text-anchor="start" transform="rotate(360 430.21875 180)" visibility="inherit" oryx:fontSize="12"/></g><g class="children" style="overflow:hidden"/><g class="edge"/></g><g class="controls"><g class="dockers"/><g class="magnets"/></g></g><g id="_903BF855-2964-440A-86B1-F9F92D7C4DFF" bpmn2nodeid="_818BF781-D88C-4952-BA8D-FA88DD3494EE"><g class="stencils"><g class="me"><g pointer-events="painted" bpmn2nodeid="_B7E4D43C-DD05-42D2-AB28-79E7541C766D"><path id="_903BF855-2964-440A-86B1-F9F92D7C4DFF_1" d="M580.5 180L659.5 180 " stroke="#000000" fill="none" stroke-width="2" stroke-linecap="round" stroke-linejoin="round" marker-start="url(#_903BF855-2964-440A-86B1-F9F92D7C4DFFstart)" marker-end="url(#_903BF855-2964-440A-86B1-F9F92D7C4DFFend)"/></g><text id="_903BF855-2964-440A-86B1-F9F92D7C4DFFtext_name" font-size="12" x="594.5" y="166" oryx:edgePosition="startTop" stroke-width="0pt" letter-spacing="-0.01px" fill="#000000" text-anchor="start" transform="rotate(360 580.5 180)" visibility="inherit" oryx:fontSize="12"/></g><g class="children" style="overflow:hidden"/><g class="edge"/></g><g class="controls"><g class="dockers"><g visibility="visible"><g pointer-events="all" transform="translate(572.5, 172)"><circle cx="8" cy="8" r="8" stroke="none" fill="none" id="ext-gen826"/><circle cx="8" cy="8" r="3" stroke="black" fill="#00FF00" stroke-width="1"/></g><g pointer-events="none" transform="translate(530, 180)"><circle cx="0" cy="0" r="3" fill="red" fill-opacity="0.4"/></g></g></g><g class="magnets"/></g></g></g><text id="_B174DDD8-CAEC-4302-996E-0E9057ECBBE7" style="stroke-width:1;fill:rgb(177,194,214);font-family:arial;font-weight:bold" font-size="12" onclick="ORYX.Plugins.CanvasTitle.openTextualAnalysis()" onmouseover="ORYX.Plugins.CanvasTitle.addToolTip('_B174DDD8-CAEC-4302-996E-0E9057ECBBE7')" transform="translate(10, 20)">QuestionProcess v.1.0 (src.QuestionProcess)</text></g></g></svg>