<svg xmlns="http://www.w3.org/2000/svg" xmlns:oryx="http://oryx-editor.org" id="_4B8AE9BC-B464-4869-B8C5-5F7C5225D868" width="555.5" height="261" xmlns:xlink="http://www.w3.org/1999/xlink" xmlns:svg="http://www.w3.org/2000/svg"><defs><marker id="_6146953F-7E6D-48A7-8493-482100043E2Cstart" refX="1" refY="5" markerUnits="userSpaceOnUse" markerWidth="17" markerHeight="11" orient="auto" fill="#000000" stroke="#000000"> 	  		<path id="_6146953F-7E6D-48A7-8493-482100043E2Cconditional" d="M 0 5 L 8 0 L 16 5 L 8 10 L 0 5" fill="white" stroke="#000000" stroke-width="1" display="none"/> 			<path id="_6146953F-7E6D-48A7-8493-482100043E2Cdefault" d="M 5 0 L 11 10" fill="white" stroke="#000000" stroke-width="1" display="none"/> 	  	</marker><marker id="_6146953F-7E6D-48A7-8493-482100043E2Cend" refX="15" refY="6" markerUnits="userSpaceOnUse" markerWidth="15" markerHeight="12" orient="auto" fill="#000000" stroke="#000000"> 	  		<path id="_6146953F-7E6D-48A7-8493-482100043E2Cframe2" d="M 0 1 L 15 6 L 0 11z" fill="#000000" stroke="#000000" stroke-linejoin="round" stroke-width="2"/> 	  	</marker><marker id="_8C7563E2-4921-4927-B2BB-903D64B544F4start" refX="1" refY="5" markerUnits="userSpaceOnUse" markerWidth="17" markerHeight="11" orient="auto" fill="#000000" stroke="#000000"> 	  		<path id="_8C7563E2-4921-4927-B2BB-903D64B544F4conditional" d="M 0 5 L 8 0 L 16 5 L 8 10 L 0 5" fill="white" stroke="#000000" stroke-width="1" display="none"/> 			<path id="_8C7563E2-4921-4927-B2BB-903D64B544F4default" d="M 5 0 L 11 10" fill="white" stroke="#000000" stroke-width="1" display="none"/> 	  	</marker><marker id="_8C7563E2-4921-4927-B2BB-903D64B544F4end" refX="15" refY="6" markerUnits="userSpaceOnUse" markerWidth="15" markerHeight="12" orient="auto" fill="#000000" stroke="#000000"> 	  		<path id="_8C7563E2-4921-4927-B2BB-903D64B544F4frame2" d="M 0 1 L 15 6 L 0 11z" fill="#000000" stroke="#000000" stroke-linejoin="round" stroke-width="2"/> 	  	</marker><marker id="_DDBAB543-62FE-495A-A648-D113DEA987CFstart" refX="1" refY="5" markerUnits="userSpaceOnUse" markerWidth="17" markerHeight="11" orient="auto" fill="#000000" stroke="#000000"> 	  		<path id="_DDBAB543-62FE-495A-A648-D113DEA987CFconditional" d="M 0 5 L 8 0 L 16 5 L 8 10 L 0 5" fill="white" stroke="#000000" stroke-width="1" display="none"/> 			<path id="_DDBAB543-62FE-495A-A648-D113DEA987CFdefault" d="M 5 0 L 11 10" fill="white" stroke="#000000" stroke-width="1" display="none"/> 	  	</marker><marker id="_DDBAB543-62FE-495A-A648-D113DEA987CFend" refX="15" refY="6" markerUnits="userSpaceOnUse" markerWidth="15" markerHeight="12" orient="auto" fill="#000000" stroke="#000000"> 	  		<path id="_DDBAB543-62FE-495A-A648-D113DEA987CFframe2" d="M 0 1 L 15 6 L 0 11z" fill="#000000" stroke="#000000" stroke-linejoin="round" stroke-width="2"/> 	  	</marker></defs><g stroke="none" font-family="Verdana, sans-serif" font-size-adjust="none" font-style="normal" font-variant="normal" font-weight="normal" line-heigth="normal" font-size="12"><g class="stencils" transform="translate(15, 16)"><g class="me"/><g class="children"><g id="_E3E910F1-3A3D-461B-B795-44E589DB925F" bpmn2nodeid="processStartEvent"><g class="stencils" transform="translate(120, 165)"><g class="me"><g pointer-events="fill" id="_E3E910F1-3A3D-461B-B795-44E589DB925F">        <defs id="_E3E910F1-3A3D-461B-B795-44E589DB925F__E3E910F1-3A3D-461B-B795-44E589DB925F_5"> 		<radialGradient id="_E3E910F1-3A3D-461B-B795-44E589DB925Fbackground" cx="10%" cy="10%" r="100%" fx="10%" fy="10%"> 			<stop offset="0%" stop-color="#ffffff" stop-opacity="1" id="_E3E910F1-3A3D-461B-B795-44E589DB925F__E3E910F1-3A3D-461B-B795-44E589DB925F_6"/> 			<stop id="_E3E910F1-3A3D-461B-B795-44E589DB925Ffill_el" offset="100%" stop-color="#9acd32" stop-opacity="1"/> 		</radialGradient> 	</defs> 	     <circle id="_E3E910F1-3A3D-461B-B795-44E589DB925Fbg_frame" cx="15" cy="15" r="15" stroke="#000000" fill="url(#_E3E910F1-3A3D-461B-B795-44E589DB925Fbackground) white" stroke-width="1" style="stroke-dasharray: 5.5, 3"/>      <circle id="_E3E910F1-3A3D-461B-B795-44E589DB925Fframe" cx="15" cy="15" r="15" stroke="#000000" fill="none" stroke-width="1" display="inherit"/>  	<text font-size="11" id="_E3E910F1-3A3D-461B-B795-44E589DB925Ftext_name" x="15" y="32" oryx:align="top center" stroke="black" stroke-width="0pt" letter-spacing="-0.01px" fill="#000000" text-anchor="middle" transform="rotate(0 15 32)" visibility="inherit" oryx:fontSize="11"><tspan x="15" y="32" dy="11">start question</tspan></text>   </g></g><g class="children" style="overflow:hidden"/><g class="edge"/></g><g class="controls"><g class="dockers"/><g class="magnets" transform="translate(120, 165)"><g pointer-events="all" display="none" transform="translate(7, 7)"><circle cx="8" cy="8" r="4" stroke="none" fill="red" fill-opacity="0.3"/></g></g></g></g><g id="_EEDE43D4-7042-42F4-BC85-F2FB793C1234" bpmn2nodeid="_F1088AD8-A503-4CE7-B9A3-D919E6326009"><g class="stencils" transform="translate(195, 140)"><g class="me"><g pointer-events="fill" oryx:minimumSize="50 40" id="_EEDE43D4-7042-42F4-BC85-F2FB793C1234">   	<defs id="_EEDE43D4-7042-42F4-BC85-F2FB793C1234__EEDE43D4-7042-42F4-BC85-F2FB793C1234_17"> 		<radialGradient id="_EEDE43D4-7042-42F4-BC85-F2FB793C1234background" cx="10%" cy="10%" r="100%" fx="10%" fy="10%"> 			<stop offset="0%" stop-color="#ffffff" stop-opacity="1" id="_EEDE43D4-7042-42F4-BC85-F2FB793C1234__EEDE43D4-7042-42F4-BC85-F2FB793C1234_18"/> 			<stop id="_EEDE43D4-7042-42F4-BC85-F2FB793C1234fill_el" offset="100%" stop-color="#fafad2" stop-opacity="1"/> 		</radialGradient> 		<radialGradient id="_EEDE43D4-7042-42F4-BC85-F2FB793C1234borderbackground" cx="10%" cy="10%" r="100%" fx="10%" fy="10%"> 			<stop offset="0%" stop-color="#ffffff" stop-opacity="1" id="_EEDE43D4-7042-42F4-BC85-F2FB793C1234__EEDE43D4-7042-42F4-BC85-F2FB793C1234_19"/> 			<stop id="_EEDE43D4-7042-42F4-BC85-F2FB793C1234fill_border" offset="100%" stop-color="#000000" stop-opacity="1" stroke="#000000"/> 		</radialGradient> 	</defs> 	 	<rect id="_EEDE43D4-7042-42F4-BC85-F2FB793C1234text_frame" oryx:anchors="bottom top right left" x="1" y="1" width="94" height="79" rx="10" ry="10" stroke="none" stroke-width="0" fill="none"/> 	<rect id="_EEDE43D4-7042-42F4-BC85-F2FB793C1234bg_frame" oryx:resize="vertical horizontal" x="0" y="0" width="100" height="80" rx="10" ry="10" stroke="#000000" stroke-width="1" fill="url(#_EEDE43D4-7042-42F4-BC85-F2FB793C1234background) #ffffcc"/> 		<text font-size="12" id="_EEDE43D4-7042-42F4-BC85-F2FB793C1234text_name" x="50" y="40" oryx:align="middle center" oryx:fittoelem="text_frame" stroke="black" text-anchor="middle" stroke-width="0pt" letter-spacing="-0.01px" fill="#000000" transform="rotate(0 50 40)" visibility="inherit" oryx:fontSize="12"><tspan x="50" y="40" dy="5" id="ext-gen687">prefill question</tspan></text>     <g id="_EEDE43D4-7042-42F4-BC85-F2FB793C1234manualTask" transform="scale(0.7,0.7) translate(8,8)" display="none">     	<path oryx:anchors="top left" id="_EEDE43D4-7042-42F4-BC85-F2FB793C1234frame" style="opacity:1;fill:none;fill-opacity:1;stroke-width:1" d="M0.5,3.751l4.083-3.25c0,0,11.166,0.083,12.083,0.083s-2.417,2.917-1.5,2.917     s11.667,0,12.584,0c1.166,1.708-0.168,3.167-0.834,3.667s0.875,1.917-1,4.417c-0.75,0.25,0.75,1.875-1.333,3.333     c-1.167,0.583,0.583,1.542-1.25,2.833c-1.167,0-20.833,0.083-20.833,0.083l-2-1.333V3.751z" stroke="#000000"/> 		<path id="_EEDE43D4-7042-42F4-BC85-F2FB793C1234frame2" oryx:anchors="top left" style="opacity:1;fill:none;stroke-width:2" d="M 13.5 7 L 27 7" stroke="#000000"/> 		<path id="_EEDE43D4-7042-42F4-BC85-F2FB793C1234frame3" oryx:anchors="top left" style="opacity:1;fill:none;stroke-width:2" d="M 13.5 11 L 26 11" stroke="#000000"/> 		<path id="_EEDE43D4-7042-42F4-BC85-F2FB793C1234frame4" oryx:anchors="top left" style="opacity:1;fill:none;stroke-width:1.5" d="M 14 14.5 L 25 14.5" stroke="#000000"/> 		<path id="_EEDE43D4-7042-42F4-BC85-F2FB793C1234frame5" oryx:anchors="top left" style="opacity:1;fill:none;stroke-width:1.5" d="M 8.2 3.1 L 15 3.1" stroke="#000000"/> 	</g> 	 	<g id="_EEDE43D4-7042-42F4-BC85-F2FB793C1234businessRuleTask" transform="scale(0.7,0.7) translate(8,8)" display="inherit"> 		<rect id="_EEDE43D4-7042-42F4-BC85-F2FB793C1234frame6" oryx:anchors="top left" x="0" y="0" width="22" height="4" style="opacity:1;fill:#B3B1B3;fill-opacity:1;" stroke="#000000"/> 		<rect id="_EEDE43D4-7042-42F4-BC85-F2FB793C1234frame7" oryx:anchors="top left" x="0" y="4" style="opacity:1;fill:none;" width="22" height="12" stroke="#000000"/> 		<path id="_EEDE43D4-7042-42F4-BC85-F2FB793C1234frame8" oryx:anchors="top left" style="opacity:1;fill:none;" d="M 0 10 L 22 10" stroke="#000000"/> 		<path id="_EEDE43D4-7042-42F4-BC85-F2FB793C1234frame9" oryx:anchors="top left" style="opacity:1; fill:none;" d="M 7 4 L 7 16" stroke="#000000"/> 	</g> 	 	<g id="_EEDE43D4-7042-42F4-BC85-F2FB793C1234scriptTask" transform="scale(0.7,0.7) translate(8,8)" display="none"> 		<path oryx:anchors="top left" id="_EEDE43D4-7042-42F4-BC85-F2FB793C1234frame10" style="opacity:1;fill:none;" stroke="#000000" d="M6.402,0.5h14.5c0,0-5.833,2.833-5.833,5.583s4.417,6,4.417,9.167    s-4.167,5.083-4.167,5.083H0.235c0,0,5-2.667,5-5s-4.583-6.75-4.583-9.25S6.402,0.5,6.402,0.5z"/> 		<path oryx:anchors="top left" id="_EEDE43D4-7042-42F4-BC85-F2FB793C1234frame11" style="opacity:1;fill:none;stroke-width:1.5" d="M 3.5 4.5 L 13.5 4.5" stroke="#000000"/> 		<path oryx:anchors="top left" id="_EEDE43D4-7042-42F4-BC85-F2FB793C1234frame12" style="opacity:1;fill:none;stroke-width:1.5" d="M 3.8 8.5 L 13.8 8.5" stroke="#000000"/> 		<path oryx:anchors="top left" id="_EEDE43D4-7042-42F4-BC85-F2FB793C1234frame13" style="opacity:1;fill:none;stroke-width:1.5" d="M 6.3 12.5 L 16.3 12.5" stroke="#000000"/> 		<path oryx:anchors="top left" id="_EEDE43D4-7042-42F4-BC85-F2FB793C1234frame14" style="opacity:1;fill:none;stroke-width:1.5" d="M 6.5 16.5 L 16.5 16.5" stroke="#000000"/> 	</g> 	 	<g id="_EEDE43D4-7042-42F4-BC85-F2FB793C1234userTask" transform="scale(0.7,0.7) translate(8,8)" display="none"> 		<path id="_EEDE43D4-7042-42F4-BC85-F2FB793C1234frame15" oryx:anchors="top left" style="opacity:1;fill:#F4F6F7" stroke="#000000" d="M0.585,24.167h24.083v-7.833c0,0-2.333-3.917-7.083-5.167h-9.25    c-4.417,1.333-7.833,5.75-7.833,5.75L0.585,24.167z"/> 		<path id="_EEDE43D4-7042-42F4-BC85-F2FB793C1234frame16" oryx:anchors="top left" style="opacity:1;fill:none" d="M 6 20 L 6 24" stroke="#000000"/> 		<path id="_EEDE43D4-7042-42F4-BC85-F2FB793C1234frame17" oryx:anchors="top left" style="opacity:1;fill:none" d="M 20 20 L 20 24" stroke="#000000"/> 		<circle id="_EEDE43D4-7042-42F4-BC85-F2FB793C1234frame18" oryx:anchors="top left" fill="black" cx="13.002" cy="5.916" r="5.417" stroke="#000000"/> 		<path id="_EEDE43D4-7042-42F4-BC85-F2FB793C1234frame19" oryx:anchors="top left" style="opacity:1;fill:#F0EFF0;" stroke="#000000" d="M8.043,7.083c0,0,2.814-2.426,5.376-1.807s4.624-0.693,4.624-0.693    c0.25,1.688,0.042,3.75-1.458,5.584c0,0,1.083,0.75,1.083,1.5s0.125,1.875-1,3s-5.5,1.25-6.75,0S8.668,12.834,8.668,12    s0.583-1.25,1.25-1.917C8.835,9.5,7.419,7.708,8.043,7.083z"/> 	</g> 	 	<g id="_EEDE43D4-7042-42F4-BC85-F2FB793C1234serviceTask" transform="scale(0.7,0.7) translate(8,8)" display="none"> 		<polygon oryx:anchors="top left" id="_EEDE43D4-7042-42F4-BC85-F2FB793C1234frame20" style="opacity:1;fill:#ffffff" stroke="#000000" points="15.392,5.064 17.954,2.502 20.347,4.895 17.786,7.455     18.729,9.732 22.353,9.732 22.353,13.115 18.731,13.115 17.788,15.392 20.351,17.955 17.958,20.347 15.397,17.786 13.12,18.729     13.12,22.353 9.737,22.353 9.737,18.731 7.46,17.788 4.897,20.35 2.506,17.958 5.066,15.397 4.124,13.12 0.5,13.12 0.5,9.737     4.121,9.737 5.065,7.461 2.503,4.898 4.895,2.506 7.455,5.066 9.732,4.125 9.732,0.5 13.116,0.5 13.116,4.121 "/> 		<circle oryx:anchors="top left" id="_EEDE43D4-7042-42F4-BC85-F2FB793C1234frame21" style="opacity:1;fill:none" stroke="#000000" cx="11.427" cy="11.426" r="3.714"/> 		<polygon oryx:anchors="top left" id="_EEDE43D4-7042-42F4-BC85-F2FB793C1234frame22" style="opacity:1;fill:#ffffff" stroke="#000000" points="21.392,11.064 23.954,8.502 26.347,10.895 23.786,13.455     24.729,15.732 28.353,15.732 28.353,19.115 24.731,19.115 23.788,21.392 26.351,23.955 23.958,26.347 21.397,23.786 19.12,24.729     19.12,28.353 15.737,28.353 15.737,24.731 13.46,23.788 10.897,26.35 8.506,23.958 11.066,21.397 10.124,19.12 6.5,19.12     6.5,15.737 10.121,15.737 11.065,13.461 8.503,10.898 10.895,8.506 13.455,11.066 15.732,10.125 15.732,6.5 19.116,6.5     19.116,10.121 "/> 		<circle oryx:anchors="top left" id="_EEDE43D4-7042-42F4-BC85-F2FB793C1234frame23" style="opacity:1;fill:none;" stroke="#000000" cx="17.427" cy="17.426" r="3.714"/> 	</g> 	 	<g id="_EEDE43D4-7042-42F4-BC85-F2FB793C1234sendTask" display="none"> 		<path id="_EEDE43D4-7042-42F4-BC85-F2FB793C1234stframe24" oryx:anchors="left top" stroke="#FFFFFF" fill="black" stroke-width="1" d="M8,11 L8,21 L24,21 L24,11 L16,17z"/> 		<path id="_EEDE43D4-7042-42F4-BC85-F2FB793C1234stframe25" oryx:anchors="left top" stroke="#FFFFFF" fill="black" stroke-width="1" d="M7,10 L16,17 L25 10z"/> 	</g> 	 	<g id="_EEDE43D4-7042-42F4-BC85-F2FB793C1234receiveTask" display="none"> 		<path id="_EEDE43D4-7042-42F4-BC85-F2FB793C1234frame26" oryx:anchors="left top" stroke="#000000" fill="none" stroke-width="1" d="M8,11 L8,21 L24,21 L24,11z M8,11 L16,17 L24,11"/> 	</g> 	 	<g id="_EEDE43D4-7042-42F4-BC85-F2FB793C1234none" display="none"/>  	<g id="_EEDE43D4-7042-42F4-BC85-F2FB793C1234sequential" display="none">         <path oryx:anchors="bottom" fill="none" stroke="#000000" stroke-width="2" d="M46,76h10M46,72h10 M46,68h10" id="_EEDE43D4-7042-42F4-BC85-F2FB793C1234__EEDE43D4-7042-42F4-BC85-F2FB793C1234_20"/>     </g>   </g></g><g class="children" style="overflow:hidden"/><g class="edge"/></g><g class="controls"><g class="dockers"/><g class="magnets" transform="translate(195, 140)"><g pointer-events="all" display="none" transform="translate(-7, 12)"><circle cx="8" cy="8" r="4" stroke="none" fill="red" fill-opacity="0.3"/></g><g pointer-events="all" display="none" transform="translate(-7, 32)"><circle cx="8" cy="8" r="4" stroke="none" fill="red" fill-opacity="0.3"/></g><g pointer-events="all" display="none" transform="translate(-7, 52)"><circle cx="8" cy="8" r="4" stroke="none" fill="red" fill-opacity="0.3"/></g><g pointer-events="all" display="none" transform="translate(17, 71)"><circle cx="8" cy="8" r="4" stroke="none" fill="red" fill-opacity="0.3"/></g><g pointer-events="all" display="none" transform="translate(42, 71)"><circle cx="8" cy="8" r="4" stroke="none" fill="red" fill-opacity="0.3"/></g><g pointer-events="all" display="none" transform="translate(67, 71)"><circle cx="8" cy="8" r="4" stroke="none" fill="red" fill-opacity="0.3"/></g><g pointer-events="all" display="none" transform="translate(91, 12)"><circle cx="8" cy="8" r="4" stroke="none" fill="red" fill-opacity="0.3"/></g><g pointer-events="all" display="none" transform="translate(91, 32)"><circle cx="8" cy="8" r="4" stroke="none" fill="red" fill-opacity="0.3"/></g><g pointer-events="all" display="none" transform="translate(91, 52)"><circle cx="8" cy="8" r="4" stroke="none" fill="red" fill-opacity="0.3"/></g><g pointer-events="all" display="none" transform="translate(17, -7)"><circle cx="8" cy="8" r="4" stroke="none" fill="red" fill-opacity="0.3"/></g><g pointer-events="all" display="none" transform="translate(42, -7)"><circle cx="8" cy="8" r="4" stroke="none" fill="red" fill-opacity="0.3"/></g><g pointer-events="all" display="none" transform="translate(67, -7)"><circle cx="8" cy="8" r="4" stroke="none" fill="red" fill-opacity="0.3"/></g><g pointer-events="all" display="none" transform="translate(42, 32)"><circle cx="8" cy="8" r="4" stroke="none" fill="red" fill-opacity="0.3"/></g></g></g></g><g id="_D2D89AFF-3246-4E0B-A0C6-8AF2959CCADA" bpmn2nodeid="_93564452-389D-4495-B422-A7439E607373"><g class="stencils" transform="translate(330, 140)"><g class="me"><g pointer-events="fill" oryx:minimumSize="50 40" id="_D2D89AFF-3246-4E0B-A0C6-8AF2959CCADA">   	<defs id="_D2D89AFF-3246-4E0B-A0C6-8AF2959CCADA__D2D89AFF-3246-4E0B-A0C6-8AF2959CCADA_17"> 		<radialGradient id="_D2D89AFF-3246-4E0B-A0C6-8AF2959CCADAbackground" cx="10%" cy="10%" r="100%" fx="10%" fy="10%"> 			<stop offset="0%" stop-color="#ffffff" stop-opacity="1" id="_D2D89AFF-3246-4E0B-A0C6-8AF2959CCADA__D2D89AFF-3246-4E0B-A0C6-8AF2959CCADA_18"/> 			<stop id="_D2D89AFF-3246-4E0B-A0C6-8AF2959CCADAfill_el" offset="100%" stop-color="#fafad2" stop-opacity="1"/> 		</radialGradient> 		<radialGradient id="_D2D89AFF-3246-4E0B-A0C6-8AF2959CCADAborderbackground" cx="10%" cy="10%" r="100%" fx="10%" fy="10%"> 			<stop offset="0%" stop-color="#ffffff" stop-opacity="1" id="_D2D89AFF-3246-4E0B-A0C6-8AF2959CCADA__D2D89AFF-3246-4E0B-A0C6-8AF2959CCADA_19"/> 			<stop id="_D2D89AFF-3246-4E0B-A0C6-8AF2959CCADAfill_border" offset="100%" stop-color="#000000" stop-opacity="1" stroke="#000000"/> 		</radialGradient> 	</defs> 	 	<rect id="_D2D89AFF-3246-4E0B-A0C6-8AF2959CCADAtext_frame" oryx:anchors="bottom top right left" x="1" y="1" width="94" height="79" rx="10" ry="10" stroke="none" stroke-width="0" fill="none"/> 	<rect id="_D2D89AFF-3246-4E0B-A0C6-8AF2959CCADAbg_frame" oryx:resize="vertical horizontal" x="0" y="0" width="100" height="80" rx="10" ry="10" stroke="#000000" stroke-width="1" fill="url(#_D2D89AFF-3246-4E0B-A0C6-8AF2959CCADAbackground) #ffffcc"/> 		<text font-size="12" id="_D2D89AFF-3246-4E0B-A0C6-8AF2959CCADAtext_name" x="50" y="40" oryx:align="middle center" oryx:fittoelem="text_frame" stroke="black" text-anchor="middle" stroke-width="0pt" letter-spacing="-0.01px" fill="#000000" transform="rotate(0 50 40)" visibility="inherit" oryx:fontSize="12"><tspan x="50" y="40" dy="5" id="ext-gen869">answer question</tspan></text>     <g id="_D2D89AFF-3246-4E0B-A0C6-8AF2959CCADAmanualTask" transform="scale(0.7,0.7) translate(8,8)" display="none">     	<path oryx:anchors="top left" id="_D2D89AFF-3246-4E0B-A0C6-8AF2959CCADAframe" style="opacity:1;fill:none;fill-opacity:1;stroke-width:1" d="M0.5,3.751l4.083-3.25c0,0,11.166,0.083,12.083,0.083s-2.417,2.917-1.5,2.917     s11.667,0,12.584,0c1.166,1.708-0.168,3.167-0.834,3.667s0.875,1.917-1,4.417c-0.75,0.25,0.75,1.875-1.333,3.333     c-1.167,0.583,0.583,1.542-1.25,2.833c-1.167,0-20.833,0.083-20.833,0.083l-2-1.333V3.751z" stroke="#000000"/> 		<path id="_D2D89AFF-3246-4E0B-A0C6-8AF2959CCADAframe2" oryx:anchors="top left" style="opacity:1;fill:none;stroke-width:2" d="M 13.5 7 L 27 7" stroke="#000000"/> 		<path id="_D2D89AFF-3246-4E0B-A0C6-8AF2959CCADAframe3" oryx:anchors="top left" style="opacity:1;fill:none;stroke-width:2" d="M 13.5 11 L 26 11" stroke="#000000"/> 		<path id="_D2D89AFF-3246-4E0B-A0C6-8AF2959CCADAframe4" oryx:anchors="top left" style="opacity:1;fill:none;stroke-width:1.5" d="M 14 14.5 L 25 14.5" stroke="#000000"/> 		<path id="_D2D89AFF-3246-4E0B-A0C6-8AF2959CCADAframe5" oryx:anchors="top left" style="opacity:1;fill:none;stroke-width:1.5" d="M 8.2 3.1 L 15 3.1" stroke="#000000"/> 	</g> 	 	<g id="_D2D89AFF-3246-4E0B-A0C6-8AF2959CCADAbusinessRuleTask" transform="scale(0.7,0.7) translate(8,8)" display="none"> 		<rect id="_D2D89AFF-3246-4E0B-A0C6-8AF2959CCADAframe6" oryx:anchors="top left" x="0" y="0" width="22" height="4" style="opacity:1;fill:#B3B1B3;fill-opacity:1;" stroke="#000000"/> 		<rect id="_D2D89AFF-3246-4E0B-A0C6-8AF2959CCADAframe7" oryx:anchors="top left" x="0" y="4" style="opacity:1;fill:none;" width="22" height="12" stroke="#000000"/> 		<path id="_D2D89AFF-3246-4E0B-A0C6-8AF2959CCADAframe8" oryx:anchors="top left" style="opacity:1;fill:none;" d="M 0 10 L 22 10" stroke="#000000"/> 		<path id="_D2D89AFF-3246-4E0B-A0C6-8AF2959CCADAframe9" oryx:anchors="top left" style="opacity:1; fill:none;" d="M 7 4 L 7 16" stroke="#000000"/> 	</g> 	 	<g id="_D2D89AFF-3246-4E0B-A0C6-8AF2959CCADAscriptTask" transform="scale(0.7,0.7) translate(8,8)" display="none"> 		<path oryx:anchors="top left" id="_D2D89AFF-3246-4E0B-A0C6-8AF2959CCADAframe10" style="opacity:1;fill:none;" stroke="#000000" d="M6.402,0.5h14.5c0,0-5.833,2.833-5.833,5.583s4.417,6,4.417,9.167    s-4.167,5.083-4.167,5.083H0.235c0,0,5-2.667,5-5s-4.583-6.75-4.583-9.25S6.402,0.5,6.402,0.5z"/> 		<path oryx:anchors="top left" id="_D2D89AFF-3246-4E0B-A0C6-8AF2959CCADAframe11" style="opacity:1;fill:none;stroke-width:1.5" d="M 3.5 4.5 L 13.5 4.5" stroke="#000000"/> 		<path oryx:anchors="top left" id="_D2D89AFF-3246-4E0B-A0C6-8AF2959CCADAframe12" style="opacity:1;fill:none;stroke-width:1.5" d="M 3.8 8.5 L 13.8 8.5" stroke="#000000"/> 		<path oryx:anchors="top left" id="_D2D89AFF-3246-4E0B-A0C6-8AF2959CCADAframe13" style="opacity:1;fill:none;stroke-width:1.5" d="M 6.3 12.5 L 16.3 12.5" stroke="#000000"/> 		<path oryx:anchors="top left" id="_D2D89AFF-3246-4E0B-A0C6-8AF2959CCADAframe14" style="opacity:1;fill:none;stroke-width:1.5" d="M 6.5 16.5 L 16.5 16.5" stroke="#000000"/> 	</g> 	 	<g id="_D2D89AFF-3246-4E0B-A0C6-8AF2959CCADAuserTask" transform="scale(0.7,0.7) translate(8,8)" display="inherit"> 		<path id="_D2D89AFF-3246-4E0B-A0C6-8AF2959CCADAframe15" oryx:anchors="top left" style="opacity:1;fill:#F4F6F7" stroke="#000000" d="M0.585,24.167h24.083v-7.833c0,0-2.333-3.917-7.083-5.167h-9.25    c-4.417,1.333-7.833,5.75-7.833,5.75L0.585,24.167z"/> 		<path id="_D2D89AFF-3246-4E0B-A0C6-8AF2959CCADAframe16" oryx:anchors="top left" style="opacity:1;fill:none" d="M 6 20 L 6 24" stroke="#000000"/> 		<path id="_D2D89AFF-3246-4E0B-A0C6-8AF2959CCADAframe17" oryx:anchors="top left" style="opacity:1;fill:none" d="M 20 20 L 20 24" stroke="#000000"/> 		<circle id="_D2D89AFF-3246-4E0B-A0C6-8AF2959CCADAframe18" oryx:anchors="top left" fill="black" cx="13.002" cy="5.916" r="5.417" stroke="#000000"/> 		<path id="_D2D89AFF-3246-4E0B-A0C6-8AF2959CCADAframe19" oryx:anchors="top left" style="opacity:1;fill:#F0EFF0;" stroke="#000000" d="M8.043,7.083c0,0,2.814-2.426,5.376-1.807s4.624-0.693,4.624-0.693    c0.25,1.688,0.042,3.75-1.458,5.584c0,0,1.083,0.75,1.083,1.5s0.125,1.875-1,3s-5.5,1.25-6.75,0S8.668,12.834,8.668,12    s0.583-1.25,1.25-1.917C8.835,9.5,7.419,7.708,8.043,7.083z"/> 	</g> 	 	<g id="_D2D89AFF-3246-4E0B-A0C6-8AF2959CCADAserviceTask" transform="scale(0.7,0.7) translate(8,8)" display="none"> 		<polygon oryx:anchors="top left" id="_D2D89AFF-3246-4E0B-A0C6-8AF2959CCADAframe20" style="opacity:1;fill:#ffffff" stroke="#000000" points="15.392,5.064 17.954,2.502 20.347,4.895 17.786,7.455     18.729,9.732 22.353,9.732 22.353,13.115 18.731,13.115 17.788,15.392 20.351,17.955 17.958,20.347 15.397,17.786 13.12,18.729     13.12,22.353 9.737,22.353 9.737,18.731 7.46,17.788 4.897,20.35 2.506,17.958 5.066,15.397 4.124,13.12 0.5,13.12 0.5,9.737     4.121,9.737 5.065,7.461 2.503,4.898 4.895,2.506 7.455,5.066 9.732,4.125 9.732,0.5 13.116,0.5 13.116,4.121 "/> 		<circle oryx:anchors="top left" id="_D2D89AFF-3246-4E0B-A0C6-8AF2959CCADAframe21" style="opacity:1;fill:none" stroke="#000000" cx="11.427" cy="11.426" r="3.714"/> 		<polygon oryx:anchors="top left" id="_D2D89AFF-3246-4E0B-A0C6-8AF2959CCADAframe22" style="opacity:1;fill:#ffffff" stroke="#000000" points="21.392,11.064 23.954,8.502 26.347,10.895 23.786,13.455     24.729,15.732 28.353,15.732 28.353,19.115 24.731,19.115 23.788,21.392 26.351,23.955 23.958,26.347 21.397,23.786 19.12,24.729     19.12,28.353 15.737,28.353 15.737,24.731 13.46,23.788 10.897,26.35 8.506,23.958 11.066,21.397 10.124,19.12 6.5,19.12     6.5,15.737 10.121,15.737 11.065,13.461 8.503,10.898 10.895,8.506 13.455,11.066 15.732,10.125 15.732,6.5 19.116,6.5     19.116,10.121 "/> 		<circle oryx:anchors="top left" id="_D2D89AFF-3246-4E0B-A0C6-8AF2959CCADAframe23" style="opacity:1;fill:none;" stroke="#000000" cx="17.427" cy="17.426" r="3.714"/> 	</g> 	 	<g id="_D2D89AFF-3246-4E0B-A0C6-8AF2959CCADAsendTask" display="none"> 		<path id="_D2D89AFF-3246-4E0B-A0C6-8AF2959CCADAstframe24" oryx:anchors="left top" stroke="#FFFFFF" fill="black" stroke-width="1" d="M8,11 L8,21 L24,21 L24,11 L16,17z"/> 		<path id="_D2D89AFF-3246-4E0B-A0C6-8AF2959CCADAstframe25" oryx:anchors="left top" stroke="#FFFFFF" fill="black" stroke-width="1" d="M7,10 L16,17 L25 10z"/> 	</g> 	 	<g id="_D2D89AFF-3246-4E0B-A0C6-8AF2959CCADAreceiveTask" display="none"> 		<path id="_D2D89AFF-3246-4E0B-A0C6-8AF2959CCADAframe26" oryx:anchors="left top" stroke="#000000" fill="none" stroke-width="1" d="M8,11 L8,21 L24,21 L24,11z M8,11 L16,17 L24,11"/> 	</g> 	 	<g id="_D2D89AFF-3246-4E0B-A0C6-8AF2959CCADAnone" display="none"/>  	<g id="_D2D89AFF-3246-4E0B-A0C6-8AF2959CCADAsequential" display="none">         <path oryx:anchors="bottom" fill="none" stroke="#000000" stroke-width="2" d="M46,76h10M46,72h10 M46,68h10" id="_D2D89AFF-3246-4E0B-A0C6-8AF2959CCADA__D2D89AFF-3246-4E0B-A0C6-8AF2959CCADA_20"/>     </g>   </g></g><g class="children" style="overflow:hidden"/><g class="edge"/></g><g class="controls"><g class="dockers"/><g class="magnets" transform="translate(330, 140)"><g pointer-events="all" display="none" transform="translate(-7, 12)"><circle cx="8" cy="8" r="4" stroke="none" fill="red" fill-opacity="0.3"/></g><g pointer-events="all" display="none" transform="translate(-7, 32)"><circle cx="8" cy="8" r="4" stroke="none" fill="red" fill-opacity="0.3"/></g><g pointer-events="all" display="none" transform="translate(-7, 52)"><circle cx="8" cy="8" r="4" stroke="none" fill="red" fill-opacity="0.3"/></g><g pointer-events="all" display="none" transform="translate(17, 71)"><circle cx="8" cy="8" r="4" stroke="none" fill="red" fill-opacity="0.3"/></g><g pointer-events="all" display="none" transform="translate(42, 71)"><circle cx="8" cy="8" r="4" stroke="none" fill="red" fill-opacity="0.3"/></g><g pointer-events="all" display="none" transform="translate(67, 71)"><circle cx="8" cy="8" r="4" stroke="none" fill="red" fill-opacity="0.3"/></g><g pointer-events="all" display="none" transform="translate(91, 12)"><circle cx="8" cy="8" r="4" stroke="none" fill="red" fill-opacity="0.3"/></g><g pointer-events="all" display="none" transform="translate(91, 32)"><circle cx="8" cy="8" r="4" stroke="none" fill="red" fill-opacity="0.3"/></g><g pointer-events="all" display="none" transform="translate(91, 52)"><circle cx="8" cy="8" r="4" stroke="none" fill="red" fill-opacity="0.3"/></g><g pointer-events="all" display="none" transform="translate(17, -7)"><circle cx="8" cy="8" r="4" stroke="none" fill="red" fill-opacity="0.3"/></g><g pointer-events="all" display="none" transform="translate(42, -7)"><circle cx="8" cy="8" r="4" stroke="none" fill="red" fill-opacity="0.3"/></g><g pointer-events="all" display="none" transform="translate(67, -7)"><circle cx="8" cy="8" r="4" stroke="none" fill="red" fill-opacity="0.3"/></g><g pointer-events="all" display="none" transform="translate(42, 32)"><circle cx="8" cy="8" r="4" stroke="none" fill="red" fill-opacity="0.3"/></g></g></g></g><g id="_243BCF4C-35D7-4FEE-ACE6-6246A93B80B4" bpmn2nodeid="_7D513B0F-F4A3-41AC-9056-F4CD662390F7"><g class="stencils" transform="translate(465, 166)"><g class="me"><g pointer-events="fill" id="_243BCF4C-35D7-4FEE-ACE6-6246A93B80B4">      <defs id="_243BCF4C-35D7-4FEE-ACE6-6246A93B80B4__243BCF4C-35D7-4FEE-ACE6-6246A93B80B4_5"> 		<radialGradient id="_243BCF4C-35D7-4FEE-ACE6-6246A93B80B4background" cx="10%" cy="10%" r="100%" fx="10%" fy="10%"> 			<stop offset="0%" stop-color="#ffffff" stop-opacity="1" id="_243BCF4C-35D7-4FEE-ACE6-6246A93B80B4__243BCF4C-35D7-4FEE-ACE6-6246A93B80B4_6"/> 			<stop id="_243BCF4C-35D7-4FEE-ACE6-6246A93B80B4fill_el" offset="100%" stop-color="#ff6347" stop-opacity="1"/> 		</radialGradient> 	</defs> 	     <circle id="_243BCF4C-35D7-4FEE-ACE6-6246A93B80B4bg_frame" cx="14" cy="14" r="14" stroke="#000000" fill="url(#_243BCF4C-35D7-4FEE-ACE6-6246A93B80B4background) white" stroke-width="3"/> 	<text font-size="11" id="_243BCF4C-35D7-4FEE-ACE6-6246A93B80B4text_name" x="14" y="30" oryx:align="top center" stroke="black" stroke-width="0pt" letter-spacing="-0.01px" fill="#000000" text-anchor="middle" transform="rotate(0 14 30)" visibility="inherit" oryx:fontSize="11"><tspan x="14" y="30" dy="11" id="ext-gen1839">end question</tspan></text>   </g></g><g class="children" style="overflow:hidden"/><g class="edge"/></g><g class="controls"><g class="dockers"/><g class="magnets" transform="translate(465, 166)"><g pointer-events="all" display="none" transform="translate(6, 6)"><circle cx="8" cy="8" r="4" stroke="none" fill="red" fill-opacity="0.3"/></g></g></g></g></g><g class="edge"><g id="_6146953F-7E6D-48A7-8493-482100043E2C" bpmn2nodeid="_E755881D-5458-4413-A03F-A090DDBAC2BF"><g class="stencils"><g class="me"><g pointer-events="painted" bpmn2nodeid="_E755881D-5458-4413-A03F-A090DDBAC2BF"><path id="_6146953F-7E6D-48A7-8493-482100043E2C_1" d="M150.609375 180L194.15625 180 " stroke="#000000" fill="none" stroke-width="2" stroke-linecap="round" stroke-linejoin="round" marker-start="url(#_6146953F-7E6D-48A7-8493-482100043E2Cstart)" marker-end="url(#_6146953F-7E6D-48A7-8493-482100043E2Cend)"/></g><text id="_6146953F-7E6D-48A7-8493-482100043E2Ctext_name" font-size="12" x="164.609375" y="166" oryx:edgePosition="startTop" stroke-width="0pt" letter-spacing="-0.01px" fill="#000000" text-anchor="start" transform="rotate(360 150.609375 180)" visibility="inherit" oryx:fontSize="12"/></g><g class="children" style="overflow:hidden"/><g class="edge"/></g><g class="controls"><g class="dockers"/><g class="magnets"/></g></g><g id="_8C7563E2-4921-4927-B2BB-903D64B544F4" bpmn2nodeid="_2C74AF06-DE4F-44D1-8B04-FF25A92F9086"><g class="stencils"><g class="me"><g pointer-events="painted" bpmn2nodeid="_2C74AF06-DE4F-44D1-8B04-FF25A92F9086"><path id="_8C7563E2-4921-4927-B2BB-903D64B544F4_1" d="M295.5703125 180L329.4296875 180 " stroke="#000000" fill="none" stroke-width="2" stroke-linecap="round" stroke-linejoin="round" marker-start="url(#_8C7563E2-4921-4927-B2BB-903D64B544F4start)" marker-end="url(#_8C7563E2-4921-4927-B2BB-903D64B544F4end)"/></g><text id="_8C7563E2-4921-4927-B2BB-903D64B544F4text_name" font-size="12" x="309.5703125" y="166" oryx:edgePosition="startTop" stroke-width="0pt" letter-spacing="-0.01px" fill="#000000" text-anchor="start" transform="rotate(360 295.5703125 180)" visibility="inherit" oryx:fontSize="12"/></g><g class="children" style="overflow:hidden"/><g class="edge"/></g><g class="controls"><g class="dockers"/><g class="magnets"/></g></g><g id="_DDBAB543-62FE-495A-A648-D113DEA987CF" bpmn2nodeid="_8A7EAC37-2E52-469A-81F0-526DE0DAAA43"><g class="stencils"><g class="me"><g pointer-events="painted" bpmn2nodeid="_8A7EAC37-2E52-469A-81F0-526DE0DAAA43"><path id="_DDBAB543-62FE-495A-A648-D113DEA987CF_1" d="M430.5 180L464.078125 180 " stroke="#000000" fill="none" stroke-width="2" stroke-linecap="round" stroke-linejoin="round" marker-start="url(#_DDBAB543-62FE-495A-A648-D113DEA987CFstart)" marker-end="url(#_DDBAB543-62FE-495A-A648-D113DEA987CFend)"/></g><text id="_DDBAB543-62FE-495A-A648-D113DEA987CFtext_name" font-size="12" x="444.5" y="166" oryx:edgePosition="startTop" stroke-width="0pt" letter-spacing="-0.01px" fill="#000000" text-anchor="start" transform="rotate(360 430.5 180)" visibility="inherit" oryx:fontSize="12"/></g><g class="children" style="overflow:hidden"/><g class="edge"/></g><g class="controls"><g class="dockers"/><g class="magnets"/></g></g></g><text id="_B48D7F4C-FE02-440B-87D7-64203902F0FE" style="stroke-width:1;fill:rgb(177,194,214);font-family:arial;font-weight:bold" font-size="12" onclick="ORYX.Plugins.CanvasTitle.openTextualAnalysis()" onmouseover="ORYX.Plugins.CanvasTitle.addToolTip('_B48D7F4C-FE02-440B-87D7-64203902F0FE')" transform="translate(10, 20)">QuestionProcess v.1.0 (src.QuestionProcess)</text></g></g></svg>