<svg xmlns="http://www.w3.org/2000/svg" xmlns:oryx="http://oryx-editor.org" id="_5EB70C73-FBB9-44DE-A8B7-D985F13DEAB3" width="750.5" height="261" xmlns:xlink="http://www.w3.org/1999/xlink" xmlns:svg="http://www.w3.org/2000/svg"><defs><marker id="_64247F09-B1B9-4197-A4A7-A5C6669D85DFstart" refX="1" refY="5" markerUnits="userSpaceOnUse" markerWidth="17" markerHeight="11" orient="auto" fill="#000000" stroke="#000000"> 	  		<path id="_64247F09-B1B9-4197-A4A7-A5C6669D85DFconditional" d="M 0 5 L 8 0 L 16 5 L 8 10 L 0 5" fill="white" stroke="#000000" stroke-width="1" display="none"/> 			<path id="_64247F09-B1B9-4197-A4A7-A5C6669D85DFdefault" d="M 5 0 L 11 10" fill="white" stroke="#000000" stroke-width="1" display="none"/> 	  	</marker><marker id="_64247F09-B1B9-4197-A4A7-A5C6669D85DFend" refX="15" refY="6" markerUnits="userSpaceOnUse" markerWidth="15" markerHeight="12" orient="auto" fill="#000000" stroke="#000000"> 	  		<path id="_64247F09-B1B9-4197-A4A7-A5C6669D85DFframe2" d="M 0 1 L 15 6 L 0 11z" fill="#000000" stroke="#000000" stroke-linejoin="round" stroke-width="2"/> 	  	</marker><marker id="_C2C80412-8C9B-4DC6-9944-C035F7176862start" refX="1" refY="5" markerUnits="userSpaceOnUse" markerWidth="17" markerHeight="11" orient="auto" fill="#000000" stroke="#000000"> 	  		<path id="_C2C80412-8C9B-4DC6-9944-C035F7176862conditional" d="M 0 5 L 8 0 L 16 5 L 8 10 L 0 5" fill="white" stroke="#000000" stroke-width="1" display="none"/> 			<path id="_C2C80412-8C9B-4DC6-9944-C035F7176862default" d="M 5 0 L 11 10" fill="white" stroke="#000000" stroke-width="1" display="none"/> 	  	</marker><marker id="_C2C80412-8C9B-4DC6-9944-C035F7176862end" refX="15" refY="6" markerUnits="userSpaceOnUse" markerWidth="15" markerHeight="12" orient="auto" fill="#000000" stroke="#000000"> 	  		<path id="_C2C80412-8C9B-4DC6-9944-C035F7176862frame2" d="M 0 1 L 15 6 L 0 11z" fill="#000000" stroke="#000000" stroke-linejoin="round" stroke-width="2"/> 	  	</marker><marker id="_CB0762E7-5F38-4936-8908-F48D98DFA7E6start" refX="1" refY="5" markerUnits="userSpaceOnUse" markerWidth="17" markerHeight="11" orient="auto" fill="#000000" stroke="#000000"> 	  		<path id="_CB0762E7-5F38-4936-8908-F48D98DFA7E6conditional" d="M 0 5 L 8 0 L 16 5 L 8 10 L 0 5" fill="white" stroke="#000000" stroke-width="1" display="none"/> 			<path id="_CB0762E7-5F38-4936-8908-F48D98DFA7E6default" d="M 5 0 L 11 10" fill="white" stroke="#000000" stroke-width="1" display="none"/> 	  	</marker><marker id="_CB0762E7-5F38-4936-8908-F48D98DFA7E6end" refX="15" refY="6" markerUnits="userSpaceOnUse" markerWidth="15" markerHeight="12" orient="auto" fill="#000000" stroke="#000000"> 	  		<path id="_CB0762E7-5F38-4936-8908-F48D98DFA7E6frame2" d="M 0 1 L 15 6 L 0 11z" fill="#000000" stroke="#000000" stroke-linejoin="round" stroke-width="2"/> 	  	</marker><marker id="_C2A3DEC1-ADE1-44E8-A355-0367F2880B0Estart" refX="1" refY="5" markerUnits="userSpaceOnUse" markerWidth="17" markerHeight="11" orient="auto" fill="#000000" stroke="#000000"> 	  		<path id="_C2A3DEC1-ADE1-44E8-A355-0367F2880B0Econditional" d="M 0 5 L 8 0 L 16 5 L 8 10 L 0 5" fill="white" stroke="#000000" stroke-width="1" display="none"/> 			<path id="_C2A3DEC1-ADE1-44E8-A355-0367F2880B0Edefault" d="M 5 0 L 11 10" fill="white" stroke="#000000" stroke-width="1" display="none"/> 	  	</marker><marker id="_C2A3DEC1-ADE1-44E8-A355-0367F2880B0Eend" refX="15" refY="6" markerUnits="userSpaceOnUse" markerWidth="15" markerHeight="12" orient="auto" fill="#000000" stroke="#000000"> 	  		<path id="_C2A3DEC1-ADE1-44E8-A355-0367F2880B0Eframe2" d="M 0 1 L 15 6 L 0 11z" fill="#000000" stroke="#000000" stroke-linejoin="round" stroke-width="2"/> 	  	</marker></defs><g stroke="none" font-family="Verdana, sans-serif" font-size-adjust="none" font-style="normal" font-variant="normal" font-weight="normal" line-heigth="normal" font-size="12"><g class="stencils" transform="translate(15, 16)"><g class="me"/><g class="children"><g id="_0406FCE1-19D5-4B5A-A0DA-6E2537F92AE1" bpmn2nodeid="processStartEvent"><g class="stencils" transform="translate(120, 165)"><g class="me"><g pointer-events="fill" id="_0406FCE1-19D5-4B5A-A0DA-6E2537F92AE1">        <defs id="_0406FCE1-19D5-4B5A-A0DA-6E2537F92AE1__0406FCE1-19D5-4B5A-A0DA-6E2537F92AE1_5"> 		<radialGradient id="_0406FCE1-19D5-4B5A-A0DA-6E2537F92AE1background" cx="10%" cy="10%" r="100%" fx="10%" fy="10%"> 			<stop offset="0%" stop-color="#ffffff" stop-opacity="1" id="_0406FCE1-19D5-4B5A-A0DA-6E2537F92AE1__0406FCE1-19D5-4B5A-A0DA-6E2537F92AE1_6"/> 			<stop id="_0406FCE1-19D5-4B5A-A0DA-6E2537F92AE1fill_el" offset="100%" stop-color="#9acd32" stop-opacity="1"/> 		</radialGradient> 	</defs> 	     <circle id="_0406FCE1-19D5-4B5A-A0DA-6E2537F92AE1bg_frame" cx="15" cy="15" r="15" stroke="#000000" fill="url(#_0406FCE1-19D5-4B5A-A0DA-6E2537F92AE1background) white" stroke-width="1" style="stroke-dasharray: 5.5, 3"/>      <circle id="_0406FCE1-19D5-4B5A-A0DA-6E2537F92AE1frame" cx="15" cy="15" r="15" stroke="#000000" fill="none" stroke-width="1" display="inherit"/>  	<text font-size="11" id="_0406FCE1-19D5-4B5A-A0DA-6E2537F92AE1text_name" x="15" y="32" oryx:align="top center" stroke="black" stroke-width="0pt" letter-spacing="-0.01px" fill="#000000" text-anchor="middle" transform="rotate(0 15 32)" visibility="inherit" oryx:fontSize="11"><tspan x="15" y="32" dy="11">start question</tspan></text>   </g></g><g class="children" style="overflow:hidden"/><g class="edge"/></g><g class="controls"><g class="dockers"/><g class="magnets" transform="translate(120, 165)"><g pointer-events="all" display="none" transform="translate(7, 7)"><circle cx="8" cy="8" r="4" stroke="none" fill="red" fill-opacity="0.3"/></g></g></g></g><g id="_6B9B88F8-EDA9-4298-AB82-6405D7D2E867" bpmn2nodeid="_F1088AD8-A503-4CE7-B9A3-D919E6326009"><g class="stencils" transform="translate(195, 140)"><g class="me"><g pointer-events="fill" oryx:minimumSize="50 40" id="_6B9B88F8-EDA9-4298-AB82-6405D7D2E867">   	<defs id="_6B9B88F8-EDA9-4298-AB82-6405D7D2E867__6B9B88F8-EDA9-4298-AB82-6405D7D2E867_17"> 		<radialGradient id="_6B9B88F8-EDA9-4298-AB82-6405D7D2E867background" cx="10%" cy="10%" r="100%" fx="10%" fy="10%"> 			<stop offset="0%" stop-color="#ffffff" stop-opacity="1" id="_6B9B88F8-EDA9-4298-AB82-6405D7D2E867__6B9B88F8-EDA9-4298-AB82-6405D7D2E867_18"/> 			<stop id="_6B9B88F8-EDA9-4298-AB82-6405D7D2E867fill_el" offset="100%" stop-color="#fafad2" stop-opacity="1"/> 		</radialGradient> 		<radialGradient id="_6B9B88F8-EDA9-4298-AB82-6405D7D2E867borderbackground" cx="10%" cy="10%" r="100%" fx="10%" fy="10%"> 			<stop offset="0%" stop-color="#ffffff" stop-opacity="1" id="_6B9B88F8-EDA9-4298-AB82-6405D7D2E867__6B9B88F8-EDA9-4298-AB82-6405D7D2E867_19"/> 			<stop id="_6B9B88F8-EDA9-4298-AB82-6405D7D2E867fill_border" offset="100%" stop-color="#000000" stop-opacity="1" stroke="#000000"/> 		</radialGradient> 	</defs> 	 	<rect id="_6B9B88F8-EDA9-4298-AB82-6405D7D2E867text_frame" oryx:anchors="bottom top right left" x="1" y="1" width="94" height="79" rx="10" ry="10" stroke="none" stroke-width="0" fill="none"/> 	<rect id="_6B9B88F8-EDA9-4298-AB82-6405D7D2E867bg_frame" oryx:resize="vertical horizontal" x="0" y="0" width="100" height="80" rx="10" ry="10" stroke="#000000" stroke-width="1" fill="url(#_6B9B88F8-EDA9-4298-AB82-6405D7D2E867background) #ffffcc"/> 		<text font-size="12" id="_6B9B88F8-EDA9-4298-AB82-6405D7D2E867text_name" x="50" y="40" oryx:align="middle center" oryx:fittoelem="text_frame" stroke="black" text-anchor="middle" stroke-width="0pt" letter-spacing="-0.01px" fill="#000000" transform="rotate(0 50 40)" visibility="inherit" oryx:fontSize="12"><tspan x="50" y="40" dy="5">prefill question</tspan></text>     <g id="_6B9B88F8-EDA9-4298-AB82-6405D7D2E867manualTask" transform="scale(0.7,0.7) translate(8,8)" display="none">     	<path oryx:anchors="top left" id="_6B9B88F8-EDA9-4298-AB82-6405D7D2E867frame" style="opacity:1;fill:none;fill-opacity:1;stroke-width:1" d="M0.5,3.751l4.083-3.25c0,0,11.166,0.083,12.083,0.083s-2.417,2.917-1.5,2.917     s11.667,0,12.584,0c1.166,1.708-0.168,3.167-0.834,3.667s0.875,1.917-1,4.417c-0.75,0.25,0.75,1.875-1.333,3.333     c-1.167,0.583,0.583,1.542-1.25,2.833c-1.167,0-20.833,0.083-20.833,0.083l-2-1.333V3.751z" stroke="#000000"/> 		<path id="_6B9B88F8-EDA9-4298-AB82-6405D7D2E867frame2" oryx:anchors="top left" style="opacity:1;fill:none;stroke-width:2" d="M 13.5 7 L 27 7" stroke="#000000"/> 		<path id="_6B9B88F8-EDA9-4298-AB82-6405D7D2E867frame3" oryx:anchors="top left" style="opacity:1;fill:none;stroke-width:2" d="M 13.5 11 L 26 11" stroke="#000000"/> 		<path id="_6B9B88F8-EDA9-4298-AB82-6405D7D2E867frame4" oryx:anchors="top left" style="opacity:1;fill:none;stroke-width:1.5" d="M 14 14.5 L 25 14.5" stroke="#000000"/> 		<path id="_6B9B88F8-EDA9-4298-AB82-6405D7D2E867frame5" oryx:anchors="top left" style="opacity:1;fill:none;stroke-width:1.5" d="M 8.2 3.1 L 15 3.1" stroke="#000000"/> 	</g> 	 	<g id="_6B9B88F8-EDA9-4298-AB82-6405D7D2E867businessRuleTask" transform="scale(0.7,0.7) translate(8,8)" display="inherit"> 		<rect id="_6B9B88F8-EDA9-4298-AB82-6405D7D2E867frame6" oryx:anchors="top left" x="0" y="0" width="22" height="4" style="opacity:1;fill:#B3B1B3;fill-opacity:1;" stroke="#000000"/> 		<rect id="_6B9B88F8-EDA9-4298-AB82-6405D7D2E867frame7" oryx:anchors="top left" x="0" y="4" style="opacity:1;fill:none;" width="22" height="12" stroke="#000000"/> 		<path id="_6B9B88F8-EDA9-4298-AB82-6405D7D2E867frame8" oryx:anchors="top left" style="opacity:1;fill:none;" d="M 0 10 L 22 10" stroke="#000000"/> 		<path id="_6B9B88F8-EDA9-4298-AB82-6405D7D2E867frame9" oryx:anchors="top left" style="opacity:1; fill:none;" d="M 7 4 L 7 16" stroke="#000000"/> 	</g> 	 	<g id="_6B9B88F8-EDA9-4298-AB82-6405D7D2E867scriptTask" transform="scale(0.7,0.7) translate(8,8)" display="none"> 		<path oryx:anchors="top left" id="_6B9B88F8-EDA9-4298-AB82-6405D7D2E867frame10" style="opacity:1;fill:none;" stroke="#000000" d="M6.402,0.5h14.5c0,0-5.833,2.833-5.833,5.583s4.417,6,4.417,9.167    s-4.167,5.083-4.167,5.083H0.235c0,0,5-2.667,5-5s-4.583-6.75-4.583-9.25S6.402,0.5,6.402,0.5z"/> 		<path oryx:anchors="top left" id="_6B9B88F8-EDA9-4298-AB82-6405D7D2E867frame11" style="opacity:1;fill:none;stroke-width:1.5" d="M 3.5 4.5 L 13.5 4.5" stroke="#000000"/> 		<path oryx:anchors="top left" id="_6B9B88F8-EDA9-4298-AB82-6405D7D2E867frame12" style="opacity:1;fill:none;stroke-width:1.5" d="M 3.8 8.5 L 13.8 8.5" stroke="#000000"/> 		<path oryx:anchors="top left" id="_6B9B88F8-EDA9-4298-AB82-6405D7D2E867frame13" style="opacity:1;fill:none;stroke-width:1.5" d="M 6.3 12.5 L 16.3 12.5" stroke="#000000"/> 		<path oryx:anchors="top left" id="_6B9B88F8-EDA9-4298-AB82-6405D7D2E867frame14" style="opacity:1;fill:none;stroke-width:1.5" d="M 6.5 16.5 L 16.5 16.5" stroke="#000000"/> 	</g> 	 	<g id="_6B9B88F8-EDA9-4298-AB82-6405D7D2E867userTask" transform="scale(0.7,0.7) translate(8,8)" display="none"> 		<path id="_6B9B88F8-EDA9-4298-AB82-6405D7D2E867frame15" oryx:anchors="top left" style="opacity:1;fill:#F4F6F7" stroke="#000000" d="M0.585,24.167h24.083v-7.833c0,0-2.333-3.917-7.083-5.167h-9.25    c-4.417,1.333-7.833,5.75-7.833,5.75L0.585,24.167z"/> 		<path id="_6B9B88F8-EDA9-4298-AB82-6405D7D2E867frame16" oryx:anchors="top left" style="opacity:1;fill:none" d="M 6 20 L 6 24" stroke="#000000"/> 		<path id="_6B9B88F8-EDA9-4298-AB82-6405D7D2E867frame17" oryx:anchors="top left" style="opacity:1;fill:none" d="M 20 20 L 20 24" stroke="#000000"/> 		<circle id="_6B9B88F8-EDA9-4298-AB82-6405D7D2E867frame18" oryx:anchors="top left" fill="black" cx="13.002" cy="5.916" r="5.417" stroke="#000000"/> 		<path id="_6B9B88F8-EDA9-4298-AB82-6405D7D2E867frame19" oryx:anchors="top left" style="opacity:1;fill:#F0EFF0;" stroke="#000000" d="M8.043,7.083c0,0,2.814-2.426,5.376-1.807s4.624-0.693,4.624-0.693    c0.25,1.688,0.042,3.75-1.458,5.584c0,0,1.083,0.75,1.083,1.5s0.125,1.875-1,3s-5.5,1.25-6.75,0S8.668,12.834,8.668,12    s0.583-1.25,1.25-1.917C8.835,9.5,7.419,7.708,8.043,7.083z"/> 	</g> 	 	<g id="_6B9B88F8-EDA9-4298-AB82-6405D7D2E867serviceTask" transform="scale(0.7,0.7) translate(8,8)" display="none"> 		<polygon oryx:anchors="top left" id="_6B9B88F8-EDA9-4298-AB82-6405D7D2E867frame20" style="opacity:1;fill:#ffffff" stroke="#000000" points="15.392,5.064 17.954,2.502 20.347,4.895 17.786,7.455     18.729,9.732 22.353,9.732 22.353,13.115 18.731,13.115 17.788,15.392 20.351,17.955 17.958,20.347 15.397,17.786 13.12,18.729     13.12,22.353 9.737,22.353 9.737,18.731 7.46,17.788 4.897,20.35 2.506,17.958 5.066,15.397 4.124,13.12 0.5,13.12 0.5,9.737     4.121,9.737 5.065,7.461 2.503,4.898 4.895,2.506 7.455,5.066 9.732,4.125 9.732,0.5 13.116,0.5 13.116,4.121 "/> 		<circle oryx:anchors="top left" id="_6B9B88F8-EDA9-4298-AB82-6405D7D2E867frame21" style="opacity:1;fill:none" stroke="#000000" cx="11.427" cy="11.426" r="3.714"/> 		<polygon oryx:anchors="top left" id="_6B9B88F8-EDA9-4298-AB82-6405D7D2E867frame22" style="opacity:1;fill:#ffffff" stroke="#000000" points="21.392,11.064 23.954,8.502 26.347,10.895 23.786,13.455     24.729,15.732 28.353,15.732 28.353,19.115 24.731,19.115 23.788,21.392 26.351,23.955 23.958,26.347 21.397,23.786 19.12,24.729     19.12,28.353 15.737,28.353 15.737,24.731 13.46,23.788 10.897,26.35 8.506,23.958 11.066,21.397 10.124,19.12 6.5,19.12     6.5,15.737 10.121,15.737 11.065,13.461 8.503,10.898 10.895,8.506 13.455,11.066 15.732,10.125 15.732,6.5 19.116,6.5     19.116,10.121 "/> 		<circle oryx:anchors="top left" id="_6B9B88F8-EDA9-4298-AB82-6405D7D2E867frame23" style="opacity:1;fill:none;" stroke="#000000" cx="17.427" cy="17.426" r="3.714"/> 	</g> 	 	<g id="_6B9B88F8-EDA9-4298-AB82-6405D7D2E867sendTask" display="none"> 		<path id="_6B9B88F8-EDA9-4298-AB82-6405D7D2E867stframe24" oryx:anchors="left top" stroke="#FFFFFF" fill="black" stroke-width="1" d="M8,11 L8,21 L24,21 L24,11 L16,17z"/> 		<path id="_6B9B88F8-EDA9-4298-AB82-6405D7D2E867stframe25" oryx:anchors="left top" stroke="#FFFFFF" fill="black" stroke-width="1" d="M7,10 L16,17 L25 10z"/> 	</g> 	 	<g id="_6B9B88F8-EDA9-4298-AB82-6405D7D2E867receiveTask" display="none"> 		<path id="_6B9B88F8-EDA9-4298-AB82-6405D7D2E867frame26" oryx:anchors="left top" stroke="#000000" fill="none" stroke-width="1" d="M8,11 L8,21 L24,21 L24,11z M8,11 L16,17 L24,11"/> 	</g> 	 	<g id="_6B9B88F8-EDA9-4298-AB82-6405D7D2E867none" display="inherit"/>  	<g id="_6B9B88F8-EDA9-4298-AB82-6405D7D2E867sequential" display="none">         <path oryx:anchors="bottom" fill="none" stroke="#000000" stroke-width="2" d="M46,76h10M46,72h10 M46,68h10" id="_6B9B88F8-EDA9-4298-AB82-6405D7D2E867__6B9B88F8-EDA9-4298-AB82-6405D7D2E867_20"/>     </g>   </g></g><g class="children" style="overflow:hidden"/><g class="edge"/></g><g class="controls"><g class="dockers"/><g class="magnets" transform="translate(195, 140)"><g pointer-events="all" display="none" transform="translate(-7, 12)"><circle cx="8" cy="8" r="4" stroke="none" fill="red" fill-opacity="0.3"/></g><g pointer-events="all" display="none" transform="translate(-7, 32)"><circle cx="8" cy="8" r="4" stroke="none" fill="red" fill-opacity="0.3"/></g><g pointer-events="all" display="none" transform="translate(-7, 52)"><circle cx="8" cy="8" r="4" stroke="none" fill="red" fill-opacity="0.3"/></g><g pointer-events="all" display="none" transform="translate(17, 71)"><circle cx="8" cy="8" r="4" stroke="none" fill="red" fill-opacity="0.3"/></g><g pointer-events="all" display="none" transform="translate(42, 71)"><circle cx="8" cy="8" r="4" stroke="none" fill="red" fill-opacity="0.3"/></g><g pointer-events="all" display="none" transform="translate(67, 71)"><circle cx="8" cy="8" r="4" stroke="none" fill="red" fill-opacity="0.3"/></g><g pointer-events="all" display="none" transform="translate(91, 12)"><circle cx="8" cy="8" r="4" stroke="none" fill="red" fill-opacity="0.3"/></g><g pointer-events="all" display="none" transform="translate(91, 32)"><circle cx="8" cy="8" r="4" stroke="none" fill="red" fill-opacity="0.3"/></g><g pointer-events="all" display="none" transform="translate(91, 52)"><circle cx="8" cy="8" r="4" stroke="none" fill="red" fill-opacity="0.3"/></g><g pointer-events="all" display="none" transform="translate(17, -7)"><circle cx="8" cy="8" r="4" stroke="none" fill="red" fill-opacity="0.3"/></g><g pointer-events="all" display="none" transform="translate(42, -7)"><circle cx="8" cy="8" r="4" stroke="none" fill="red" fill-opacity="0.3"/></g><g pointer-events="all" display="none" transform="translate(67, -7)"><circle cx="8" cy="8" r="4" stroke="none" fill="red" fill-opacity="0.3"/></g><g pointer-events="all" display="none" transform="translate(42, 32)"><circle cx="8" cy="8" r="4" stroke="none" fill="red" fill-opacity="0.3"/></g></g></g></g><g id="_4918610F-9E54-4883-AFF3-3F103C8AA90D" bpmn2nodeid="_93564452-389D-4495-B422-A7439E607373"><g class="stencils" transform="translate(330, 140)"><g class="me"><g pointer-events="fill" oryx:minimumSize="50 40" id="_4918610F-9E54-4883-AFF3-3F103C8AA90D">   	<defs id="_4918610F-9E54-4883-AFF3-3F103C8AA90D__4918610F-9E54-4883-AFF3-3F103C8AA90D_17"> 		<radialGradient id="_4918610F-9E54-4883-AFF3-3F103C8AA90Dbackground" cx="10%" cy="10%" r="100%" fx="10%" fy="10%"> 			<stop offset="0%" stop-color="#ffffff" stop-opacity="1" id="_4918610F-9E54-4883-AFF3-3F103C8AA90D__4918610F-9E54-4883-AFF3-3F103C8AA90D_18"/> 			<stop id="_4918610F-9E54-4883-AFF3-3F103C8AA90Dfill_el" offset="100%" stop-color="#fafad2" stop-opacity="1"/> 		</radialGradient> 		<radialGradient id="_4918610F-9E54-4883-AFF3-3F103C8AA90Dborderbackground" cx="10%" cy="10%" r="100%" fx="10%" fy="10%"> 			<stop offset="0%" stop-color="#ffffff" stop-opacity="1" id="_4918610F-9E54-4883-AFF3-3F103C8AA90D__4918610F-9E54-4883-AFF3-3F103C8AA90D_19"/> 			<stop id="_4918610F-9E54-4883-AFF3-3F103C8AA90Dfill_border" offset="100%" stop-color="#000000" stop-opacity="1" stroke="#000000"/> 		</radialGradient> 	</defs> 	 	<rect id="_4918610F-9E54-4883-AFF3-3F103C8AA90Dtext_frame" oryx:anchors="bottom top right left" x="1" y="1" width="94" height="79" rx="10" ry="10" stroke="none" stroke-width="0" fill="none"/> 	<rect id="_4918610F-9E54-4883-AFF3-3F103C8AA90Dbg_frame" oryx:resize="vertical horizontal" x="0" y="0" width="100" height="80" rx="10" ry="10" stroke="#000000" stroke-width="1" fill="url(#_4918610F-9E54-4883-AFF3-3F103C8AA90Dbackground) #ffffcc"/> 		<text font-size="12" id="_4918610F-9E54-4883-AFF3-3F103C8AA90Dtext_name" x="50" y="40" oryx:align="middle center" oryx:fittoelem="text_frame" stroke="black" text-anchor="middle" stroke-width="0pt" letter-spacing="-0.01px" fill="#000000" transform="rotate(0 50 40)" visibility="inherit" oryx:fontSize="12"><tspan x="50" y="40" dy="5">answer question</tspan></text>     <g id="_4918610F-9E54-4883-AFF3-3F103C8AA90DmanualTask" transform="scale(0.7,0.7) translate(8,8)" display="none">     	<path oryx:anchors="top left" id="_4918610F-9E54-4883-AFF3-3F103C8AA90Dframe" style="opacity:1;fill:none;fill-opacity:1;stroke-width:1" d="M0.5,3.751l4.083-3.25c0,0,11.166,0.083,12.083,0.083s-2.417,2.917-1.5,2.917     s11.667,0,12.584,0c1.166,1.708-0.168,3.167-0.834,3.667s0.875,1.917-1,4.417c-0.75,0.25,0.75,1.875-1.333,3.333     c-1.167,0.583,0.583,1.542-1.25,2.833c-1.167,0-20.833,0.083-20.833,0.083l-2-1.333V3.751z" stroke="#000000"/> 		<path id="_4918610F-9E54-4883-AFF3-3F103C8AA90Dframe2" oryx:anchors="top left" style="opacity:1;fill:none;stroke-width:2" d="M 13.5 7 L 27 7" stroke="#000000"/> 		<path id="_4918610F-9E54-4883-AFF3-3F103C8AA90Dframe3" oryx:anchors="top left" style="opacity:1;fill:none;stroke-width:2" d="M 13.5 11 L 26 11" stroke="#000000"/> 		<path id="_4918610F-9E54-4883-AFF3-3F103C8AA90Dframe4" oryx:anchors="top left" style="opacity:1;fill:none;stroke-width:1.5" d="M 14 14.5 L 25 14.5" stroke="#000000"/> 		<path id="_4918610F-9E54-4883-AFF3-3F103C8AA90Dframe5" oryx:anchors="top left" style="opacity:1;fill:none;stroke-width:1.5" d="M 8.2 3.1 L 15 3.1" stroke="#000000"/> 	</g> 	 	<g id="_4918610F-9E54-4883-AFF3-3F103C8AA90DbusinessRuleTask" transform="scale(0.7,0.7) translate(8,8)" display="none"> 		<rect id="_4918610F-9E54-4883-AFF3-3F103C8AA90Dframe6" oryx:anchors="top left" x="0" y="0" width="22" height="4" style="opacity:1;fill:#B3B1B3;fill-opacity:1;" stroke="#000000"/> 		<rect id="_4918610F-9E54-4883-AFF3-3F103C8AA90Dframe7" oryx:anchors="top left" x="0" y="4" style="opacity:1;fill:none;" width="22" height="12" stroke="#000000"/> 		<path id="_4918610F-9E54-4883-AFF3-3F103C8AA90Dframe8" oryx:anchors="top left" style="opacity:1;fill:none;" d="M 0 10 L 22 10" stroke="#000000"/> 		<path id="_4918610F-9E54-4883-AFF3-3F103C8AA90Dframe9" oryx:anchors="top left" style="opacity:1; fill:none;" d="M 7 4 L 7 16" stroke="#000000"/> 	</g> 	 	<g id="_4918610F-9E54-4883-AFF3-3F103C8AA90DscriptTask" transform="scale(0.7,0.7) translate(8,8)" display="none"> 		<path oryx:anchors="top left" id="_4918610F-9E54-4883-AFF3-3F103C8AA90Dframe10" style="opacity:1;fill:none;" stroke="#000000" d="M6.402,0.5h14.5c0,0-5.833,2.833-5.833,5.583s4.417,6,4.417,9.167    s-4.167,5.083-4.167,5.083H0.235c0,0,5-2.667,5-5s-4.583-6.75-4.583-9.25S6.402,0.5,6.402,0.5z"/> 		<path oryx:anchors="top left" id="_4918610F-9E54-4883-AFF3-3F103C8AA90Dframe11" style="opacity:1;fill:none;stroke-width:1.5" d="M 3.5 4.5 L 13.5 4.5" stroke="#000000"/> 		<path oryx:anchors="top left" id="_4918610F-9E54-4883-AFF3-3F103C8AA90Dframe12" style="opacity:1;fill:none;stroke-width:1.5" d="M 3.8 8.5 L 13.8 8.5" stroke="#000000"/> 		<path oryx:anchors="top left" id="_4918610F-9E54-4883-AFF3-3F103C8AA90Dframe13" style="opacity:1;fill:none;stroke-width:1.5" d="M 6.3 12.5 L 16.3 12.5" stroke="#000000"/> 		<path oryx:anchors="top left" id="_4918610F-9E54-4883-AFF3-3F103C8AA90Dframe14" style="opacity:1;fill:none;stroke-width:1.5" d="M 6.5 16.5 L 16.5 16.5" stroke="#000000"/> 	</g> 	 	<g id="_4918610F-9E54-4883-AFF3-3F103C8AA90DuserTask" transform="scale(0.7,0.7) translate(8,8)" display="inherit"> 		<path id="_4918610F-9E54-4883-AFF3-3F103C8AA90Dframe15" oryx:anchors="top left" style="opacity:1;fill:#F4F6F7" stroke="#000000" d="M0.585,24.167h24.083v-7.833c0,0-2.333-3.917-7.083-5.167h-9.25    c-4.417,1.333-7.833,5.75-7.833,5.75L0.585,24.167z"/> 		<path id="_4918610F-9E54-4883-AFF3-3F103C8AA90Dframe16" oryx:anchors="top left" style="opacity:1;fill:none" d="M 6 20 L 6 24" stroke="#000000"/> 		<path id="_4918610F-9E54-4883-AFF3-3F103C8AA90Dframe17" oryx:anchors="top left" style="opacity:1;fill:none" d="M 20 20 L 20 24" stroke="#000000"/> 		<circle id="_4918610F-9E54-4883-AFF3-3F103C8AA90Dframe18" oryx:anchors="top left" fill="black" cx="13.002" cy="5.916" r="5.417" stroke="#000000"/> 		<path id="_4918610F-9E54-4883-AFF3-3F103C8AA90Dframe19" oryx:anchors="top left" style="opacity:1;fill:#F0EFF0;" stroke="#000000" d="M8.043,7.083c0,0,2.814-2.426,5.376-1.807s4.624-0.693,4.624-0.693    c0.25,1.688,0.042,3.75-1.458,5.584c0,0,1.083,0.75,1.083,1.5s0.125,1.875-1,3s-5.5,1.25-6.75,0S8.668,12.834,8.668,12    s0.583-1.25,1.25-1.917C8.835,9.5,7.419,7.708,8.043,7.083z"/> 	</g> 	 	<g id="_4918610F-9E54-4883-AFF3-3F103C8AA90DserviceTask" transform="scale(0.7,0.7) translate(8,8)" display="none"> 		<polygon oryx:anchors="top left" id="_4918610F-9E54-4883-AFF3-3F103C8AA90Dframe20" style="opacity:1;fill:#ffffff" stroke="#000000" points="15.392,5.064 17.954,2.502 20.347,4.895 17.786,7.455     18.729,9.732 22.353,9.732 22.353,13.115 18.731,13.115 17.788,15.392 20.351,17.955 17.958,20.347 15.397,17.786 13.12,18.729     13.12,22.353 9.737,22.353 9.737,18.731 7.46,17.788 4.897,20.35 2.506,17.958 5.066,15.397 4.124,13.12 0.5,13.12 0.5,9.737     4.121,9.737 5.065,7.461 2.503,4.898 4.895,2.506 7.455,5.066 9.732,4.125 9.732,0.5 13.116,0.5 13.116,4.121 "/> 		<circle oryx:anchors="top left" id="_4918610F-9E54-4883-AFF3-3F103C8AA90Dframe21" style="opacity:1;fill:none" stroke="#000000" cx="11.427" cy="11.426" r="3.714"/> 		<polygon oryx:anchors="top left" id="_4918610F-9E54-4883-AFF3-3F103C8AA90Dframe22" style="opacity:1;fill:#ffffff" stroke="#000000" points="21.392,11.064 23.954,8.502 26.347,10.895 23.786,13.455     24.729,15.732 28.353,15.732 28.353,19.115 24.731,19.115 23.788,21.392 26.351,23.955 23.958,26.347 21.397,23.786 19.12,24.729     19.12,28.353 15.737,28.353 15.737,24.731 13.46,23.788 10.897,26.35 8.506,23.958 11.066,21.397 10.124,19.12 6.5,19.12     6.5,15.737 10.121,15.737 11.065,13.461 8.503,10.898 10.895,8.506 13.455,11.066 15.732,10.125 15.732,6.5 19.116,6.5     19.116,10.121 "/> 		<circle oryx:anchors="top left" id="_4918610F-9E54-4883-AFF3-3F103C8AA90Dframe23" style="opacity:1;fill:none;" stroke="#000000" cx="17.427" cy="17.426" r="3.714"/> 	</g> 	 	<g id="_4918610F-9E54-4883-AFF3-3F103C8AA90DsendTask" display="none"> 		<path id="_4918610F-9E54-4883-AFF3-3F103C8AA90Dstframe24" oryx:anchors="left top" stroke="#FFFFFF" fill="black" stroke-width="1" d="M8,11 L8,21 L24,21 L24,11 L16,17z"/> 		<path id="_4918610F-9E54-4883-AFF3-3F103C8AA90Dstframe25" oryx:anchors="left top" stroke="#FFFFFF" fill="black" stroke-width="1" d="M7,10 L16,17 L25 10z"/> 	</g> 	 	<g id="_4918610F-9E54-4883-AFF3-3F103C8AA90DreceiveTask" display="none"> 		<path id="_4918610F-9E54-4883-AFF3-3F103C8AA90Dframe26" oryx:anchors="left top" stroke="#000000" fill="none" stroke-width="1" d="M8,11 L8,21 L24,21 L24,11z M8,11 L16,17 L24,11"/> 	</g> 	 	<g id="_4918610F-9E54-4883-AFF3-3F103C8AA90Dnone" display="inherit"/>  	<g id="_4918610F-9E54-4883-AFF3-3F103C8AA90Dsequential" display="none">         <path oryx:anchors="bottom" fill="none" stroke="#000000" stroke-width="2" d="M46,76h10M46,72h10 M46,68h10" id="_4918610F-9E54-4883-AFF3-3F103C8AA90D__4918610F-9E54-4883-AFF3-3F103C8AA90D_20"/>     </g>   </g></g><g class="children" style="overflow:hidden"/><g class="edge"/></g><g class="controls"><g class="dockers"/><g class="magnets" transform="translate(330, 140)"><g pointer-events="all" display="none" transform="translate(-7, 12)"><circle cx="8" cy="8" r="4" stroke="none" fill="red" fill-opacity="0.3"/></g><g pointer-events="all" display="none" transform="translate(-7, 32)"><circle cx="8" cy="8" r="4" stroke="none" fill="red" fill-opacity="0.3"/></g><g pointer-events="all" display="none" transform="translate(-7, 52)"><circle cx="8" cy="8" r="4" stroke="none" fill="red" fill-opacity="0.3"/></g><g pointer-events="all" display="none" transform="translate(17, 71)"><circle cx="8" cy="8" r="4" stroke="none" fill="red" fill-opacity="0.3"/></g><g pointer-events="all" display="none" transform="translate(42, 71)"><circle cx="8" cy="8" r="4" stroke="none" fill="red" fill-opacity="0.3"/></g><g pointer-events="all" display="none" transform="translate(67, 71)"><circle cx="8" cy="8" r="4" stroke="none" fill="red" fill-opacity="0.3"/></g><g pointer-events="all" display="none" transform="translate(91, 12)"><circle cx="8" cy="8" r="4" stroke="none" fill="red" fill-opacity="0.3"/></g><g pointer-events="all" display="none" transform="translate(91, 32)"><circle cx="8" cy="8" r="4" stroke="none" fill="red" fill-opacity="0.3"/></g><g pointer-events="all" display="none" transform="translate(91, 52)"><circle cx="8" cy="8" r="4" stroke="none" fill="red" fill-opacity="0.3"/></g><g pointer-events="all" display="none" transform="translate(17, -7)"><circle cx="8" cy="8" r="4" stroke="none" fill="red" fill-opacity="0.3"/></g><g pointer-events="all" display="none" transform="translate(42, -7)"><circle cx="8" cy="8" r="4" stroke="none" fill="red" fill-opacity="0.3"/></g><g pointer-events="all" display="none" transform="translate(67, -7)"><circle cx="8" cy="8" r="4" stroke="none" fill="red" fill-opacity="0.3"/></g><g pointer-events="all" display="none" transform="translate(42, 32)"><circle cx="8" cy="8" r="4" stroke="none" fill="red" fill-opacity="0.3"/></g></g></g></g><g id="_5D2EE845-F886-4112-B0F7-E55AFA1D6BCB" bpmn2nodeid="_7D513B0F-F4A3-41AC-9056-F4CD662390F7"><g class="stencils" transform="translate(660, 166)"><g class="me"><g pointer-events="fill" id="_5D2EE845-F886-4112-B0F7-E55AFA1D6BCB">      <defs id="_5D2EE845-F886-4112-B0F7-E55AFA1D6BCB__5D2EE845-F886-4112-B0F7-E55AFA1D6BCB_5"> 		<radialGradient id="_5D2EE845-F886-4112-B0F7-E55AFA1D6BCBbackground" cx="10%" cy="10%" r="100%" fx="10%" fy="10%"> 			<stop offset="0%" stop-color="#ffffff" stop-opacity="1" id="_5D2EE845-F886-4112-B0F7-E55AFA1D6BCB__5D2EE845-F886-4112-B0F7-E55AFA1D6BCB_6"/> 			<stop id="_5D2EE845-F886-4112-B0F7-E55AFA1D6BCBfill_el" offset="100%" stop-color="#ff6347" stop-opacity="1"/> 		</radialGradient> 	</defs> 	     <circle id="_5D2EE845-F886-4112-B0F7-E55AFA1D6BCBbg_frame" cx="14" cy="14" r="14" stroke="#000000" fill="url(#_5D2EE845-F886-4112-B0F7-E55AFA1D6BCBbackground) white" stroke-width="3"/> 	<text font-size="11" id="_5D2EE845-F886-4112-B0F7-E55AFA1D6BCBtext_name" x="14" y="30" oryx:align="top center" stroke="black" stroke-width="0pt" letter-spacing="-0.01px" fill="#000000" text-anchor="middle" transform="rotate(0 14 30)" visibility="inherit" oryx:fontSize="11"><tspan x="14" y="30" dy="11">end question</tspan></text>   </g></g><g class="children" style="overflow:hidden"/><g class="edge"/></g><g class="controls"><g class="dockers"/><g class="magnets" transform="translate(660, 166)"><g pointer-events="all" display="none" transform="translate(6, 6)"><circle cx="8" cy="8" r="4" stroke="none" fill="red" fill-opacity="0.3"/></g></g></g></g><g id="_E5BD5A94-D4CD-46F8-AC5F-F13D537F69EB" bpmn2nodeid="_5276B019-B2F7-4D14-AEF7-6575D1C97196"><g class="stencils" transform="translate(480, 140)"><g class="me"><g pointer-events="fill" oryx:minimumSize="50 40" id="_E5BD5A94-D4CD-46F8-AC5F-F13D537F69EB">   	<defs id="_E5BD5A94-D4CD-46F8-AC5F-F13D537F69EB__E5BD5A94-D4CD-46F8-AC5F-F13D537F69EB_17"> 		<radialGradient id="_E5BD5A94-D4CD-46F8-AC5F-F13D537F69EBbackground" cx="10%" cy="10%" r="100%" fx="10%" fy="10%"> 			<stop offset="0%" stop-color="#ffffff" stop-opacity="1" id="_E5BD5A94-D4CD-46F8-AC5F-F13D537F69EB__E5BD5A94-D4CD-46F8-AC5F-F13D537F69EB_18"/> 			<stop id="_E5BD5A94-D4CD-46F8-AC5F-F13D537F69EBfill_el" offset="100%" stop-color="#fafad2" stop-opacity="1"/> 		</radialGradient> 		<radialGradient id="_E5BD5A94-D4CD-46F8-AC5F-F13D537F69EBborderbackground" cx="10%" cy="10%" r="100%" fx="10%" fy="10%"> 			<stop offset="0%" stop-color="#ffffff" stop-opacity="1" id="_E5BD5A94-D4CD-46F8-AC5F-F13D537F69EB__E5BD5A94-D4CD-46F8-AC5F-F13D537F69EB_19"/> 			<stop id="_E5BD5A94-D4CD-46F8-AC5F-F13D537F69EBfill_border" offset="100%" stop-color="#000000" stop-opacity="1" stroke="#000000"/> 		</radialGradient> 	</defs> 	 	<rect id="_E5BD5A94-D4CD-46F8-AC5F-F13D537F69EBtext_frame" oryx:anchors="bottom top right left" x="1" y="1" width="94" height="79" rx="10" ry="10" stroke="none" stroke-width="0" fill="none"/> 	<rect id="_E5BD5A94-D4CD-46F8-AC5F-F13D537F69EBbg_frame" oryx:resize="vertical horizontal" x="0" y="0" width="100" height="80" rx="10" ry="10" stroke="#000000" stroke-width="1" fill="url(#_E5BD5A94-D4CD-46F8-AC5F-F13D537F69EBbackground) #ffffcc"/> 		<text font-size="12" id="_E5BD5A94-D4CD-46F8-AC5F-F13D537F69EBtext_name" x="50" y="40" oryx:align="middle center" oryx:fittoelem="text_frame" stroke="black" text-anchor="middle" stroke-width="0pt" letter-spacing="-0.01px" fill="#000000" transform="rotate(0 50 40)" visibility="inherit" oryx:fontSize="12"><tspan x="50" y="40" dy="-1">Populate </tspan><tspan x="50" y="40" dy="11">Response</tspan></text>     <g id="_E5BD5A94-D4CD-46F8-AC5F-F13D537F69EBmanualTask" transform="scale(0.7,0.7) translate(8,8)" display="none">     	<path oryx:anchors="top left" id="_E5BD5A94-D4CD-46F8-AC5F-F13D537F69EBframe" style="opacity:1;fill:none;fill-opacity:1;stroke-width:1" d="M0.5,3.751l4.083-3.25c0,0,11.166,0.083,12.083,0.083s-2.417,2.917-1.5,2.917     s11.667,0,12.584,0c1.166,1.708-0.168,3.167-0.834,3.667s0.875,1.917-1,4.417c-0.75,0.25,0.75,1.875-1.333,3.333     c-1.167,0.583,0.583,1.542-1.25,2.833c-1.167,0-20.833,0.083-20.833,0.083l-2-1.333V3.751z" stroke="#000000"/> 		<path id="_E5BD5A94-D4CD-46F8-AC5F-F13D537F69EBframe2" oryx:anchors="top left" style="opacity:1;fill:none;stroke-width:2" d="M 13.5 7 L 27 7" stroke="#000000"/> 		<path id="_E5BD5A94-D4CD-46F8-AC5F-F13D537F69EBframe3" oryx:anchors="top left" style="opacity:1;fill:none;stroke-width:2" d="M 13.5 11 L 26 11" stroke="#000000"/> 		<path id="_E5BD5A94-D4CD-46F8-AC5F-F13D537F69EBframe4" oryx:anchors="top left" style="opacity:1;fill:none;stroke-width:1.5" d="M 14 14.5 L 25 14.5" stroke="#000000"/> 		<path id="_E5BD5A94-D4CD-46F8-AC5F-F13D537F69EBframe5" oryx:anchors="top left" style="opacity:1;fill:none;stroke-width:1.5" d="M 8.2 3.1 L 15 3.1" stroke="#000000"/> 	</g> 	 	<g id="_E5BD5A94-D4CD-46F8-AC5F-F13D537F69EBbusinessRuleTask" transform="scale(0.7,0.7) translate(8,8)" display="none"> 		<rect id="_E5BD5A94-D4CD-46F8-AC5F-F13D537F69EBframe6" oryx:anchors="top left" x="0" y="0" width="22" height="4" style="opacity:1;fill:#B3B1B3;fill-opacity:1;" stroke="#000000"/> 		<rect id="_E5BD5A94-D4CD-46F8-AC5F-F13D537F69EBframe7" oryx:anchors="top left" x="0" y="4" style="opacity:1;fill:none;" width="22" height="12" stroke="#000000"/> 		<path id="_E5BD5A94-D4CD-46F8-AC5F-F13D537F69EBframe8" oryx:anchors="top left" style="opacity:1;fill:none;" d="M 0 10 L 22 10" stroke="#000000"/> 		<path id="_E5BD5A94-D4CD-46F8-AC5F-F13D537F69EBframe9" oryx:anchors="top left" style="opacity:1; fill:none;" d="M 7 4 L 7 16" stroke="#000000"/> 	</g> 	 	<g id="_E5BD5A94-D4CD-46F8-AC5F-F13D537F69EBscriptTask" transform="scale(0.7,0.7) translate(8,8)" display="inherit"> 		<path oryx:anchors="top left" id="_E5BD5A94-D4CD-46F8-AC5F-F13D537F69EBframe10" style="opacity:1;fill:none;" stroke="#000000" d="M6.402,0.5h14.5c0,0-5.833,2.833-5.833,5.583s4.417,6,4.417,9.167    s-4.167,5.083-4.167,5.083H0.235c0,0,5-2.667,5-5s-4.583-6.75-4.583-9.25S6.402,0.5,6.402,0.5z"/> 		<path oryx:anchors="top left" id="_E5BD5A94-D4CD-46F8-AC5F-F13D537F69EBframe11" style="opacity:1;fill:none;stroke-width:1.5" d="M 3.5 4.5 L 13.5 4.5" stroke="#000000"/> 		<path oryx:anchors="top left" id="_E5BD5A94-D4CD-46F8-AC5F-F13D537F69EBframe12" style="opacity:1;fill:none;stroke-width:1.5" d="M 3.8 8.5 L 13.8 8.5" stroke="#000000"/> 		<path oryx:anchors="top left" id="_E5BD5A94-D4CD-46F8-AC5F-F13D537F69EBframe13" style="opacity:1;fill:none;stroke-width:1.5" d="M 6.3 12.5 L 16.3 12.5" stroke="#000000"/> 		<path oryx:anchors="top left" id="_E5BD5A94-D4CD-46F8-AC5F-F13D537F69EBframe14" style="opacity:1;fill:none;stroke-width:1.5" d="M 6.5 16.5 L 16.5 16.5" stroke="#000000"/> 	</g> 	 	<g id="_E5BD5A94-D4CD-46F8-AC5F-F13D537F69EBuserTask" transform="scale(0.7,0.7) translate(8,8)" display="none"> 		<path id="_E5BD5A94-D4CD-46F8-AC5F-F13D537F69EBframe15" oryx:anchors="top left" style="opacity:1;fill:#F4F6F7" stroke="#000000" d="M0.585,24.167h24.083v-7.833c0,0-2.333-3.917-7.083-5.167h-9.25    c-4.417,1.333-7.833,5.75-7.833,5.75L0.585,24.167z"/> 		<path id="_E5BD5A94-D4CD-46F8-AC5F-F13D537F69EBframe16" oryx:anchors="top left" style="opacity:1;fill:none" d="M 6 20 L 6 24" stroke="#000000"/> 		<path id="_E5BD5A94-D4CD-46F8-AC5F-F13D537F69EBframe17" oryx:anchors="top left" style="opacity:1;fill:none" d="M 20 20 L 20 24" stroke="#000000"/> 		<circle id="_E5BD5A94-D4CD-46F8-AC5F-F13D537F69EBframe18" oryx:anchors="top left" fill="black" cx="13.002" cy="5.916" r="5.417" stroke="#000000"/> 		<path id="_E5BD5A94-D4CD-46F8-AC5F-F13D537F69EBframe19" oryx:anchors="top left" style="opacity:1;fill:#F0EFF0;" stroke="#000000" d="M8.043,7.083c0,0,2.814-2.426,5.376-1.807s4.624-0.693,4.624-0.693    c0.25,1.688,0.042,3.75-1.458,5.584c0,0,1.083,0.75,1.083,1.5s0.125,1.875-1,3s-5.5,1.25-6.75,0S8.668,12.834,8.668,12    s0.583-1.25,1.25-1.917C8.835,9.5,7.419,7.708,8.043,7.083z"/> 	</g> 	 	<g id="_E5BD5A94-D4CD-46F8-AC5F-F13D537F69EBserviceTask" transform="scale(0.7,0.7) translate(8,8)" display="none"> 		<polygon oryx:anchors="top left" id="_E5BD5A94-D4CD-46F8-AC5F-F13D537F69EBframe20" style="opacity:1;fill:#ffffff" stroke="#000000" points="15.392,5.064 17.954,2.502 20.347,4.895 17.786,7.455     18.729,9.732 22.353,9.732 22.353,13.115 18.731,13.115 17.788,15.392 20.351,17.955 17.958,20.347 15.397,17.786 13.12,18.729     13.12,22.353 9.737,22.353 9.737,18.731 7.46,17.788 4.897,20.35 2.506,17.958 5.066,15.397 4.124,13.12 0.5,13.12 0.5,9.737     4.121,9.737 5.065,7.461 2.503,4.898 4.895,2.506 7.455,5.066 9.732,4.125 9.732,0.5 13.116,0.5 13.116,4.121 "/> 		<circle oryx:anchors="top left" id="_E5BD5A94-D4CD-46F8-AC5F-F13D537F69EBframe21" style="opacity:1;fill:none" stroke="#000000" cx="11.427" cy="11.426" r="3.714"/> 		<polygon oryx:anchors="top left" id="_E5BD5A94-D4CD-46F8-AC5F-F13D537F69EBframe22" style="opacity:1;fill:#ffffff" stroke="#000000" points="21.392,11.064 23.954,8.502 26.347,10.895 23.786,13.455     24.729,15.732 28.353,15.732 28.353,19.115 24.731,19.115 23.788,21.392 26.351,23.955 23.958,26.347 21.397,23.786 19.12,24.729     19.12,28.353 15.737,28.353 15.737,24.731 13.46,23.788 10.897,26.35 8.506,23.958 11.066,21.397 10.124,19.12 6.5,19.12     6.5,15.737 10.121,15.737 11.065,13.461 8.503,10.898 10.895,8.506 13.455,11.066 15.732,10.125 15.732,6.5 19.116,6.5     19.116,10.121 "/> 		<circle oryx:anchors="top left" id="_E5BD5A94-D4CD-46F8-AC5F-F13D537F69EBframe23" style="opacity:1;fill:none;" stroke="#000000" cx="17.427" cy="17.426" r="3.714"/> 	</g> 	 	<g id="_E5BD5A94-D4CD-46F8-AC5F-F13D537F69EBsendTask" display="none"> 		<path id="_E5BD5A94-D4CD-46F8-AC5F-F13D537F69EBstframe24" oryx:anchors="left top" stroke="#FFFFFF" fill="black" stroke-width="1" d="M8,11 L8,21 L24,21 L24,11 L16,17z"/> 		<path id="_E5BD5A94-D4CD-46F8-AC5F-F13D537F69EBstframe25" oryx:anchors="left top" stroke="#FFFFFF" fill="black" stroke-width="1" d="M7,10 L16,17 L25 10z"/> 	</g> 	 	<g id="_E5BD5A94-D4CD-46F8-AC5F-F13D537F69EBreceiveTask" display="none"> 		<path id="_E5BD5A94-D4CD-46F8-AC5F-F13D537F69EBframe26" oryx:anchors="left top" stroke="#000000" fill="none" stroke-width="1" d="M8,11 L8,21 L24,21 L24,11z M8,11 L16,17 L24,11"/> 	</g> 	 	<g id="_E5BD5A94-D4CD-46F8-AC5F-F13D537F69EBnone" display="inherit"/>  	<g id="_E5BD5A94-D4CD-46F8-AC5F-F13D537F69EBsequential" display="none">         <path oryx:anchors="bottom" fill="none" stroke="#000000" stroke-width="2" d="M46,76h10M46,72h10 M46,68h10" id="_E5BD5A94-D4CD-46F8-AC5F-F13D537F69EB__E5BD5A94-D4CD-46F8-AC5F-F13D537F69EB_20"/>     </g>   </g></g><g class="children" style="overflow:hidden"/><g class="edge"/></g><g class="controls"><g class="dockers"/><g class="magnets" transform="translate(480, 140)"><g pointer-events="all" display="none" transform="translate(-7, 12)"><circle cx="8" cy="8" r="4" stroke="none" fill="red" fill-opacity="0.3"/></g><g pointer-events="all" display="none" transform="translate(-7, 32)"><circle cx="8" cy="8" r="4" stroke="none" fill="red" fill-opacity="0.3"/></g><g pointer-events="all" display="none" transform="translate(-7, 52)"><circle cx="8" cy="8" r="4" stroke="none" fill="red" fill-opacity="0.3"/></g><g pointer-events="all" display="none" transform="translate(17, 71)"><circle cx="8" cy="8" r="4" stroke="none" fill="red" fill-opacity="0.3"/></g><g pointer-events="all" display="none" transform="translate(42, 71)"><circle cx="8" cy="8" r="4" stroke="none" fill="red" fill-opacity="0.3"/></g><g pointer-events="all" display="none" transform="translate(67, 71)"><circle cx="8" cy="8" r="4" stroke="none" fill="red" fill-opacity="0.3"/></g><g pointer-events="all" display="none" transform="translate(91, 12)"><circle cx="8" cy="8" r="4" stroke="none" fill="red" fill-opacity="0.3"/></g><g pointer-events="all" display="none" transform="translate(91, 32)"><circle cx="8" cy="8" r="4" stroke="none" fill="red" fill-opacity="0.3"/></g><g pointer-events="all" display="none" transform="translate(91, 52)"><circle cx="8" cy="8" r="4" stroke="none" fill="red" fill-opacity="0.3"/></g><g pointer-events="all" display="none" transform="translate(17, -7)"><circle cx="8" cy="8" r="4" stroke="none" fill="red" fill-opacity="0.3"/></g><g pointer-events="all" display="none" transform="translate(42, -7)"><circle cx="8" cy="8" r="4" stroke="none" fill="red" fill-opacity="0.3"/></g><g pointer-events="all" display="none" transform="translate(67, -7)"><circle cx="8" cy="8" r="4" stroke="none" fill="red" fill-opacity="0.3"/></g><g pointer-events="all" display="none" transform="translate(42, 32)"><circle cx="8" cy="8" r="4" stroke="none" fill="red" fill-opacity="0.3"/></g></g></g></g></g><g class="edge"><g id="_64247F09-B1B9-4197-A4A7-A5C6669D85DF" bpmn2nodeid="_E755881D-5458-4413-A03F-A090DDBAC2BF"><g class="stencils"><g class="me"><g pointer-events="painted" bpmn2nodeid="_C1E4F193-2273-4CAD-88FA-EE365CEF74F1"><path id="_64247F09-B1B9-4197-A4A7-A5C6669D85DF_1" d="M150.609375 180L194.15625 180 " stroke="#000000" fill="none" stroke-width="2" stroke-linecap="round" stroke-linejoin="round" marker-start="url(#_64247F09-B1B9-4197-A4A7-A5C6669D85DFstart)" marker-end="url(#_64247F09-B1B9-4197-A4A7-A5C6669D85DFend)"/></g><text id="_64247F09-B1B9-4197-A4A7-A5C6669D85DFtext_name" font-size="12" x="164.609375" y="166" oryx:edgePosition="startTop" stroke-width="0pt" letter-spacing="-0.01px" fill="#000000" text-anchor="start" transform="rotate(360 150.609375 180)" visibility="inherit" oryx:fontSize="12"/></g><g class="children" style="overflow:hidden"/><g class="edge"/></g><g class="controls"><g class="dockers"/><g class="magnets"/></g></g><g id="_C2C80412-8C9B-4DC6-9944-C035F7176862" bpmn2nodeid="_2C74AF06-DE4F-44D1-8B04-FF25A92F9086"><g class="stencils"><g class="me"><g pointer-events="painted" bpmn2nodeid="_CDBD0F95-6366-4902-AA19-56809D65767A"><path id="_C2C80412-8C9B-4DC6-9944-C035F7176862_1" d="M295.5703125 180L329.4296875 180 " stroke="#000000" fill="none" stroke-width="2" stroke-linecap="round" stroke-linejoin="round" marker-start="url(#_C2C80412-8C9B-4DC6-9944-C035F7176862start)" marker-end="url(#_C2C80412-8C9B-4DC6-9944-C035F7176862end)"/></g><text id="_C2C80412-8C9B-4DC6-9944-C035F7176862text_name" font-size="12" x="309.5703125" y="166" oryx:edgePosition="startTop" stroke-width="0pt" letter-spacing="-0.01px" fill="#000000" text-anchor="start" transform="rotate(360 295.5703125 180)" visibility="inherit" oryx:fontSize="12"/></g><g class="children" style="overflow:hidden"/><g class="edge"/></g><g class="controls"><g class="dockers"/><g class="magnets"/></g></g><g id="_CB0762E7-5F38-4936-8908-F48D98DFA7E6" bpmn2nodeid="_384363E7-4DEA-43DD-B9AD-BD5241A41851"><g class="stencils"><g class="me"><g pointer-events="painted" bpmn2nodeid="_0D0DBAF1-E06A-4880-B253-0AD55CEB13C4"><path id="_CB0762E7-5F38-4936-8908-F48D98DFA7E6_1" d="M430.21875 180L479.78125 180 " stroke="#000000" fill="none" stroke-width="2" stroke-linecap="round" stroke-linejoin="round" marker-start="url(#_CB0762E7-5F38-4936-8908-F48D98DFA7E6start)" marker-end="url(#_CB0762E7-5F38-4936-8908-F48D98DFA7E6end)"/></g><text id="_CB0762E7-5F38-4936-8908-F48D98DFA7E6text_name" font-size="12" x="444.21875" y="166" oryx:edgePosition="startTop" stroke-width="0pt" letter-spacing="-0.01px" fill="#000000" text-anchor="start" transform="rotate(360 430.21875 180)" visibility="inherit" oryx:fontSize="12"/></g><g class="children" style="overflow:hidden"/><g class="edge"/></g><g class="controls"><g class="dockers"/><g class="magnets"/></g></g><g id="_C2A3DEC1-ADE1-44E8-A355-0367F2880B0E" bpmn2nodeid="_818BF781-D88C-4952-BA8D-FA88DD3494EE"><g class="stencils"><g class="me"><g pointer-events="painted" bpmn2nodeid="_95F9A369-9AE0-45C8-B1E7-61371BBEB76E"><path id="_C2A3DEC1-ADE1-44E8-A355-0367F2880B0E_1" d="M580.5 180L659.5 180 " stroke="#000000" fill="none" stroke-width="2" stroke-linecap="round" stroke-linejoin="round" marker-start="url(#_C2A3DEC1-ADE1-44E8-A355-0367F2880B0Estart)" marker-end="url(#_C2A3DEC1-ADE1-44E8-A355-0367F2880B0Eend)"/></g><text id="_C2A3DEC1-ADE1-44E8-A355-0367F2880B0Etext_name" font-size="12" x="594.5" y="166" oryx:edgePosition="startTop" stroke-width="0pt" letter-spacing="-0.01px" fill="#000000" text-anchor="start" transform="rotate(360 580.5 180)" visibility="inherit" oryx:fontSize="12"/></g><g class="children" style="overflow:hidden"/><g class="edge"/></g><g class="controls"><g class="dockers"/><g class="magnets"/></g></g></g><text id="_5E1E0FAF-ECEF-415C-9FA1-2F972551CC17" style="stroke-width:1;fill:rgb(177,194,214);font-family:arial;font-weight:bold" font-size="12" onclick="ORYX.Plugins.CanvasTitle.openTextualAnalysis()" onmouseover="ORYX.Plugins.CanvasTitle.addToolTip('_5E1E0FAF-ECEF-415C-9FA1-2F972551CC17')" transform="translate(10, 20)">QuestionProcess v.1.0 (src.QuestionProcess)</text></g></g></svg>