<svg xmlns="http://www.w3.org/2000/svg" xmlns:oryx="http://oryx-editor.org" id="_9764E796-F702-406E-93F0-A9A81BBE7A3E" width="750.5" height="261" xmlns:xlink="http://www.w3.org/1999/xlink" xmlns:svg="http://www.w3.org/2000/svg"><defs><marker id="_AB2591C5-9E8A-433E-86E4-7B819E1DE3CBstart" refX="1" refY="5" markerUnits="userSpaceOnUse" markerWidth="17" markerHeight="11" orient="auto" fill="#000000" stroke="#000000"> 	  		<path id="_AB2591C5-9E8A-433E-86E4-7B819E1DE3CBconditional" d="M 0 5 L 8 0 L 16 5 L 8 10 L 0 5" fill="white" stroke="#000000" stroke-width="1" display="none"/> 			<path id="_AB2591C5-9E8A-433E-86E4-7B819E1DE3CBdefault" d="M 5 0 L 11 10" fill="white" stroke="#000000" stroke-width="1" display="none"/> 	  	</marker><marker id="_AB2591C5-9E8A-433E-86E4-7B819E1DE3CBend" refX="15" refY="6" markerUnits="userSpaceOnUse" markerWidth="15" markerHeight="12" orient="auto" fill="#000000" stroke="#000000"> 	  		<path id="_AB2591C5-9E8A-433E-86E4-7B819E1DE3CBframe2" d="M 0 1 L 15 6 L 0 11z" fill="#000000" stroke="#000000" stroke-linejoin="round" stroke-width="2"/> 	  	</marker><marker id="_7F2C3E46-C162-4FEF-80A1-F22C59A37201start" refX="1" refY="5" markerUnits="userSpaceOnUse" markerWidth="17" markerHeight="11" orient="auto" fill="#000000" stroke="#000000"> 	  		<path id="_7F2C3E46-C162-4FEF-80A1-F22C59A37201conditional" d="M 0 5 L 8 0 L 16 5 L 8 10 L 0 5" fill="white" stroke="#000000" stroke-width="1" display="none"/> 			<path id="_7F2C3E46-C162-4FEF-80A1-F22C59A37201default" d="M 5 0 L 11 10" fill="white" stroke="#000000" stroke-width="1" display="none"/> 	  	</marker><marker id="_7F2C3E46-C162-4FEF-80A1-F22C59A37201end" refX="15" refY="6" markerUnits="userSpaceOnUse" markerWidth="15" markerHeight="12" orient="auto" fill="#000000" stroke="#000000"> 	  		<path id="_7F2C3E46-C162-4FEF-80A1-F22C59A37201frame2" d="M 0 1 L 15 6 L 0 11z" fill="#000000" stroke="#000000" stroke-linejoin="round" stroke-width="2"/> 	  	</marker><marker id="_5703EA94-D7FE-4154-93F9-82B5F9E5B8D1start" refX="1" refY="5" markerUnits="userSpaceOnUse" markerWidth="17" markerHeight="11" orient="auto" fill="#000000" stroke="#000000"> 	  		<path id="_5703EA94-D7FE-4154-93F9-82B5F9E5B8D1conditional" d="M 0 5 L 8 0 L 16 5 L 8 10 L 0 5" fill="white" stroke="#000000" stroke-width="1" display="none"/> 			<path id="_5703EA94-D7FE-4154-93F9-82B5F9E5B8D1default" d="M 5 0 L 11 10" fill="white" stroke="#000000" stroke-width="1" display="none"/> 	  	</marker><marker id="_5703EA94-D7FE-4154-93F9-82B5F9E5B8D1end" refX="15" refY="6" markerUnits="userSpaceOnUse" markerWidth="15" markerHeight="12" orient="auto" fill="#000000" stroke="#000000"> 	  		<path id="_5703EA94-D7FE-4154-93F9-82B5F9E5B8D1frame2" d="M 0 1 L 15 6 L 0 11z" fill="#000000" stroke="#000000" stroke-linejoin="round" stroke-width="2"/> 	  	</marker><marker id="_90651132-CE2E-46F8-98CB-B983FBBB12C6start" refX="1" refY="5" markerUnits="userSpaceOnUse" markerWidth="17" markerHeight="11" orient="auto" fill="#000000" stroke="#000000"> 	  		<path id="_90651132-CE2E-46F8-98CB-B983FBBB12C6conditional" d="M 0 5 L 8 0 L 16 5 L 8 10 L 0 5" fill="white" stroke="#000000" stroke-width="1" display="none"/> 			<path id="_90651132-CE2E-46F8-98CB-B983FBBB12C6default" d="M 5 0 L 11 10" fill="white" stroke="#000000" stroke-width="1" display="none"/> 	  	</marker><marker id="_90651132-CE2E-46F8-98CB-B983FBBB12C6end" refX="15" refY="6" markerUnits="userSpaceOnUse" markerWidth="15" markerHeight="12" orient="auto" fill="#000000" stroke="#000000"> 	  		<path id="_90651132-CE2E-46F8-98CB-B983FBBB12C6frame2" d="M 0 1 L 15 6 L 0 11z" fill="#000000" stroke="#000000" stroke-linejoin="round" stroke-width="2"/> 	  	</marker></defs><g stroke="none" font-family="Verdana, sans-serif" font-size-adjust="none" font-style="normal" font-variant="normal" font-weight="normal" line-heigth="normal" font-size="12"><g class="stencils" transform="translate(15, 16)"><g class="me"/><g class="children"><g id="_060C9303-8F50-49EA-A7B1-62A00E577796" bpmn2nodeid="processStartEvent"><g class="stencils" transform="translate(120, 165)"><g class="me"><g pointer-events="fill" id="_060C9303-8F50-49EA-A7B1-62A00E577796">        <defs id="_060C9303-8F50-49EA-A7B1-62A00E577796__060C9303-8F50-49EA-A7B1-62A00E577796_5"> 		<radialGradient id="_060C9303-8F50-49EA-A7B1-62A00E577796background" cx="10%" cy="10%" r="100%" fx="10%" fy="10%"> 			<stop offset="0%" stop-color="#ffffff" stop-opacity="1" id="_060C9303-8F50-49EA-A7B1-62A00E577796__060C9303-8F50-49EA-A7B1-62A00E577796_6"/> 			<stop id="_060C9303-8F50-49EA-A7B1-62A00E577796fill_el" offset="100%" stop-color="#9acd32" stop-opacity="1"/> 		</radialGradient> 	</defs> 	     <circle id="_060C9303-8F50-49EA-A7B1-62A00E577796bg_frame" cx="15" cy="15" r="15" stroke="#000000" fill="url(#_060C9303-8F50-49EA-A7B1-62A00E577796background) white" stroke-width="1" style="stroke-dasharray: 5.5, 3"/>      <circle id="_060C9303-8F50-49EA-A7B1-62A00E577796frame" cx="15" cy="15" r="15" stroke="#000000" fill="none" stroke-width="1" display="inherit"/>  	<text font-size="11" id="_060C9303-8F50-49EA-A7B1-62A00E577796text_name" x="15" y="32" oryx:align="top center" stroke="black" stroke-width="0pt" letter-spacing="-0.01px" fill="#000000" text-anchor="middle" transform="rotate(0 15 32)" visibility="inherit" oryx:fontSize="11"><tspan x="15" y="32" dy="11">start question</tspan></text>   </g></g><g class="children" style="overflow:hidden"/><g class="edge"/></g><g class="controls"><g class="dockers"/><g class="magnets" transform="translate(120, 165)"><g pointer-events="all" display="none" transform="translate(7, 7)"><circle cx="8" cy="8" r="4" stroke="none" fill="red" fill-opacity="0.3"/></g></g></g></g><g id="_073C8038-9C44-4902-B489-95049CC3CAE2" bpmn2nodeid="_F1088AD8-A503-4CE7-B9A3-D919E6326009"><g class="stencils" transform="translate(195, 140)"><g class="me"><g pointer-events="fill" oryx:minimumSize="50 40" id="_073C8038-9C44-4902-B489-95049CC3CAE2">   	<defs id="_073C8038-9C44-4902-B489-95049CC3CAE2__073C8038-9C44-4902-B489-95049CC3CAE2_17"> 		<radialGradient id="_073C8038-9C44-4902-B489-95049CC3CAE2background" cx="10%" cy="10%" r="100%" fx="10%" fy="10%"> 			<stop offset="0%" stop-color="#ffffff" stop-opacity="1" id="_073C8038-9C44-4902-B489-95049CC3CAE2__073C8038-9C44-4902-B489-95049CC3CAE2_18"/> 			<stop id="_073C8038-9C44-4902-B489-95049CC3CAE2fill_el" offset="100%" stop-color="#fafad2" stop-opacity="1"/> 		</radialGradient> 		<radialGradient id="_073C8038-9C44-4902-B489-95049CC3CAE2borderbackground" cx="10%" cy="10%" r="100%" fx="10%" fy="10%"> 			<stop offset="0%" stop-color="#ffffff" stop-opacity="1" id="_073C8038-9C44-4902-B489-95049CC3CAE2__073C8038-9C44-4902-B489-95049CC3CAE2_19"/> 			<stop id="_073C8038-9C44-4902-B489-95049CC3CAE2fill_border" offset="100%" stop-color="#000000" stop-opacity="1" stroke="#000000"/> 		</radialGradient> 	</defs> 	 	<rect id="_073C8038-9C44-4902-B489-95049CC3CAE2text_frame" oryx:anchors="bottom top right left" x="1" y="1" width="94" height="79" rx="10" ry="10" stroke="none" stroke-width="0" fill="none"/> 	<rect id="_073C8038-9C44-4902-B489-95049CC3CAE2bg_frame" oryx:resize="vertical horizontal" x="0" y="0" width="100" height="80" rx="10" ry="10" stroke="#000000" stroke-width="1" fill="url(#_073C8038-9C44-4902-B489-95049CC3CAE2background) #ffffcc"/> 		<text font-size="12" id="_073C8038-9C44-4902-B489-95049CC3CAE2text_name" x="50" y="40" oryx:align="middle center" oryx:fittoelem="text_frame" stroke="black" text-anchor="middle" stroke-width="0pt" letter-spacing="-0.01px" fill="#000000" transform="rotate(0 50 40)" visibility="inherit" oryx:fontSize="12"><tspan x="50" y="40" dy="5" id="ext-gen927">prefill question</tspan></text>     <g id="_073C8038-9C44-4902-B489-95049CC3CAE2manualTask" transform="scale(0.7,0.7) translate(8,8)" display="none">     	<path oryx:anchors="top left" id="_073C8038-9C44-4902-B489-95049CC3CAE2frame" style="opacity:1;fill:none;fill-opacity:1;stroke-width:1" d="M0.5,3.751l4.083-3.25c0,0,11.166,0.083,12.083,0.083s-2.417,2.917-1.5,2.917     s11.667,0,12.584,0c1.166,1.708-0.168,3.167-0.834,3.667s0.875,1.917-1,4.417c-0.75,0.25,0.75,1.875-1.333,3.333     c-1.167,0.583,0.583,1.542-1.25,2.833c-1.167,0-20.833,0.083-20.833,0.083l-2-1.333V3.751z" stroke="#000000"/> 		<path id="_073C8038-9C44-4902-B489-95049CC3CAE2frame2" oryx:anchors="top left" style="opacity:1;fill:none;stroke-width:2" d="M 13.5 7 L 27 7" stroke="#000000"/> 		<path id="_073C8038-9C44-4902-B489-95049CC3CAE2frame3" oryx:anchors="top left" style="opacity:1;fill:none;stroke-width:2" d="M 13.5 11 L 26 11" stroke="#000000"/> 		<path id="_073C8038-9C44-4902-B489-95049CC3CAE2frame4" oryx:anchors="top left" style="opacity:1;fill:none;stroke-width:1.5" d="M 14 14.5 L 25 14.5" stroke="#000000"/> 		<path id="_073C8038-9C44-4902-B489-95049CC3CAE2frame5" oryx:anchors="top left" style="opacity:1;fill:none;stroke-width:1.5" d="M 8.2 3.1 L 15 3.1" stroke="#000000"/> 	</g> 	 	<g id="_073C8038-9C44-4902-B489-95049CC3CAE2businessRuleTask" transform="scale(0.7,0.7) translate(8,8)" display="inherit"> 		<rect id="_073C8038-9C44-4902-B489-95049CC3CAE2frame6" oryx:anchors="top left" x="0" y="0" width="22" height="4" style="opacity:1;fill:#B3B1B3;fill-opacity:1;" stroke="#000000"/> 		<rect id="_073C8038-9C44-4902-B489-95049CC3CAE2frame7" oryx:anchors="top left" x="0" y="4" style="opacity:1;fill:none;" width="22" height="12" stroke="#000000"/> 		<path id="_073C8038-9C44-4902-B489-95049CC3CAE2frame8" oryx:anchors="top left" style="opacity:1;fill:none;" d="M 0 10 L 22 10" stroke="#000000"/> 		<path id="_073C8038-9C44-4902-B489-95049CC3CAE2frame9" oryx:anchors="top left" style="opacity:1; fill:none;" d="M 7 4 L 7 16" stroke="#000000"/> 	</g> 	 	<g id="_073C8038-9C44-4902-B489-95049CC3CAE2scriptTask" transform="scale(0.7,0.7) translate(8,8)" display="none"> 		<path oryx:anchors="top left" id="_073C8038-9C44-4902-B489-95049CC3CAE2frame10" style="opacity:1;fill:none;" stroke="#000000" d="M6.402,0.5h14.5c0,0-5.833,2.833-5.833,5.583s4.417,6,4.417,9.167    s-4.167,5.083-4.167,5.083H0.235c0,0,5-2.667,5-5s-4.583-6.75-4.583-9.25S6.402,0.5,6.402,0.5z"/> 		<path oryx:anchors="top left" id="_073C8038-9C44-4902-B489-95049CC3CAE2frame11" style="opacity:1;fill:none;stroke-width:1.5" d="M 3.5 4.5 L 13.5 4.5" stroke="#000000"/> 		<path oryx:anchors="top left" id="_073C8038-9C44-4902-B489-95049CC3CAE2frame12" style="opacity:1;fill:none;stroke-width:1.5" d="M 3.8 8.5 L 13.8 8.5" stroke="#000000"/> 		<path oryx:anchors="top left" id="_073C8038-9C44-4902-B489-95049CC3CAE2frame13" style="opacity:1;fill:none;stroke-width:1.5" d="M 6.3 12.5 L 16.3 12.5" stroke="#000000"/> 		<path oryx:anchors="top left" id="_073C8038-9C44-4902-B489-95049CC3CAE2frame14" style="opacity:1;fill:none;stroke-width:1.5" d="M 6.5 16.5 L 16.5 16.5" stroke="#000000"/> 	</g> 	 	<g id="_073C8038-9C44-4902-B489-95049CC3CAE2userTask" transform="scale(0.7,0.7) translate(8,8)" display="none"> 		<path id="_073C8038-9C44-4902-B489-95049CC3CAE2frame15" oryx:anchors="top left" style="opacity:1;fill:#F4F6F7" stroke="#000000" d="M0.585,24.167h24.083v-7.833c0,0-2.333-3.917-7.083-5.167h-9.25    c-4.417,1.333-7.833,5.75-7.833,5.75L0.585,24.167z"/> 		<path id="_073C8038-9C44-4902-B489-95049CC3CAE2frame16" oryx:anchors="top left" style="opacity:1;fill:none" d="M 6 20 L 6 24" stroke="#000000"/> 		<path id="_073C8038-9C44-4902-B489-95049CC3CAE2frame17" oryx:anchors="top left" style="opacity:1;fill:none" d="M 20 20 L 20 24" stroke="#000000"/> 		<circle id="_073C8038-9C44-4902-B489-95049CC3CAE2frame18" oryx:anchors="top left" fill="black" cx="13.002" cy="5.916" r="5.417" stroke="#000000"/> 		<path id="_073C8038-9C44-4902-B489-95049CC3CAE2frame19" oryx:anchors="top left" style="opacity:1;fill:#F0EFF0;" stroke="#000000" d="M8.043,7.083c0,0,2.814-2.426,5.376-1.807s4.624-0.693,4.624-0.693    c0.25,1.688,0.042,3.75-1.458,5.584c0,0,1.083,0.75,1.083,1.5s0.125,1.875-1,3s-5.5,1.25-6.75,0S8.668,12.834,8.668,12    s0.583-1.25,1.25-1.917C8.835,9.5,7.419,7.708,8.043,7.083z"/> 	</g> 	 	<g id="_073C8038-9C44-4902-B489-95049CC3CAE2serviceTask" transform="scale(0.7,0.7) translate(8,8)" display="none"> 		<polygon oryx:anchors="top left" id="_073C8038-9C44-4902-B489-95049CC3CAE2frame20" style="opacity:1;fill:#ffffff" stroke="#000000" points="15.392,5.064 17.954,2.502 20.347,4.895 17.786,7.455     18.729,9.732 22.353,9.732 22.353,13.115 18.731,13.115 17.788,15.392 20.351,17.955 17.958,20.347 15.397,17.786 13.12,18.729     13.12,22.353 9.737,22.353 9.737,18.731 7.46,17.788 4.897,20.35 2.506,17.958 5.066,15.397 4.124,13.12 0.5,13.12 0.5,9.737     4.121,9.737 5.065,7.461 2.503,4.898 4.895,2.506 7.455,5.066 9.732,4.125 9.732,0.5 13.116,0.5 13.116,4.121 "/> 		<circle oryx:anchors="top left" id="_073C8038-9C44-4902-B489-95049CC3CAE2frame21" style="opacity:1;fill:none" stroke="#000000" cx="11.427" cy="11.426" r="3.714"/> 		<polygon oryx:anchors="top left" id="_073C8038-9C44-4902-B489-95049CC3CAE2frame22" style="opacity:1;fill:#ffffff" stroke="#000000" points="21.392,11.064 23.954,8.502 26.347,10.895 23.786,13.455     24.729,15.732 28.353,15.732 28.353,19.115 24.731,19.115 23.788,21.392 26.351,23.955 23.958,26.347 21.397,23.786 19.12,24.729     19.12,28.353 15.737,28.353 15.737,24.731 13.46,23.788 10.897,26.35 8.506,23.958 11.066,21.397 10.124,19.12 6.5,19.12     6.5,15.737 10.121,15.737 11.065,13.461 8.503,10.898 10.895,8.506 13.455,11.066 15.732,10.125 15.732,6.5 19.116,6.5     19.116,10.121 "/> 		<circle oryx:anchors="top left" id="_073C8038-9C44-4902-B489-95049CC3CAE2frame23" style="opacity:1;fill:none;" stroke="#000000" cx="17.427" cy="17.426" r="3.714"/> 	</g> 	 	<g id="_073C8038-9C44-4902-B489-95049CC3CAE2sendTask" display="none"> 		<path id="_073C8038-9C44-4902-B489-95049CC3CAE2stframe24" oryx:anchors="left top" stroke="#FFFFFF" fill="black" stroke-width="1" d="M8,11 L8,21 L24,21 L24,11 L16,17z"/> 		<path id="_073C8038-9C44-4902-B489-95049CC3CAE2stframe25" oryx:anchors="left top" stroke="#FFFFFF" fill="black" stroke-width="1" d="M7,10 L16,17 L25 10z"/> 	</g> 	 	<g id="_073C8038-9C44-4902-B489-95049CC3CAE2receiveTask" display="none"> 		<path id="_073C8038-9C44-4902-B489-95049CC3CAE2frame26" oryx:anchors="left top" stroke="#000000" fill="none" stroke-width="1" d="M8,11 L8,21 L24,21 L24,11z M8,11 L16,17 L24,11"/> 	</g> 	 	<g id="_073C8038-9C44-4902-B489-95049CC3CAE2none" display="inherit"/>  	<g id="_073C8038-9C44-4902-B489-95049CC3CAE2sequential" display="none">         <path oryx:anchors="bottom" fill="none" stroke="#000000" stroke-width="2" d="M46,76h10M46,72h10 M46,68h10" id="_073C8038-9C44-4902-B489-95049CC3CAE2__073C8038-9C44-4902-B489-95049CC3CAE2_20"/>     </g>   </g></g><g class="children" style="overflow:hidden"/><g class="edge"/></g><g class="controls"><g class="dockers"/><g class="magnets" transform="translate(195, 140)"><g pointer-events="all" display="none" transform="translate(-7, 12)"><circle cx="8" cy="8" r="4" stroke="none" fill="red" fill-opacity="0.3"/></g><g pointer-events="all" display="none" transform="translate(-7, 32)"><circle cx="8" cy="8" r="4" stroke="none" fill="red" fill-opacity="0.3"/></g><g pointer-events="all" display="none" transform="translate(-7, 52)"><circle cx="8" cy="8" r="4" stroke="none" fill="red" fill-opacity="0.3"/></g><g pointer-events="all" display="none" transform="translate(17, 71)"><circle cx="8" cy="8" r="4" stroke="none" fill="red" fill-opacity="0.3"/></g><g pointer-events="all" display="none" transform="translate(42, 71)"><circle cx="8" cy="8" r="4" stroke="none" fill="red" fill-opacity="0.3"/></g><g pointer-events="all" display="none" transform="translate(67, 71)"><circle cx="8" cy="8" r="4" stroke="none" fill="red" fill-opacity="0.3"/></g><g pointer-events="all" display="none" transform="translate(91, 12)"><circle cx="8" cy="8" r="4" stroke="none" fill="red" fill-opacity="0.3"/></g><g pointer-events="all" display="none" transform="translate(91, 32)"><circle cx="8" cy="8" r="4" stroke="none" fill="red" fill-opacity="0.3"/></g><g pointer-events="all" display="none" transform="translate(91, 52)"><circle cx="8" cy="8" r="4" stroke="none" fill="red" fill-opacity="0.3"/></g><g pointer-events="all" display="none" transform="translate(17, -7)"><circle cx="8" cy="8" r="4" stroke="none" fill="red" fill-opacity="0.3"/></g><g pointer-events="all" display="none" transform="translate(42, -7)"><circle cx="8" cy="8" r="4" stroke="none" fill="red" fill-opacity="0.3"/></g><g pointer-events="all" display="none" transform="translate(67, -7)"><circle cx="8" cy="8" r="4" stroke="none" fill="red" fill-opacity="0.3"/></g><g pointer-events="all" display="none" transform="translate(42, 32)"><circle cx="8" cy="8" r="4" stroke="none" fill="red" fill-opacity="0.3"/></g></g></g></g><g id="_D1B2B135-BA6E-48C5-9D7A-99E8A916C570" bpmn2nodeid="_93564452-389D-4495-B422-A7439E607373"><g class="stencils" transform="translate(330, 140)"><g class="me"><g pointer-events="fill" oryx:minimumSize="50 40" id="_D1B2B135-BA6E-48C5-9D7A-99E8A916C570">   	<defs id="_D1B2B135-BA6E-48C5-9D7A-99E8A916C570__D1B2B135-BA6E-48C5-9D7A-99E8A916C570_17"> 		<radialGradient id="_D1B2B135-BA6E-48C5-9D7A-99E8A916C570background" cx="10%" cy="10%" r="100%" fx="10%" fy="10%"> 			<stop offset="0%" stop-color="#ffffff" stop-opacity="1" id="_D1B2B135-BA6E-48C5-9D7A-99E8A916C570__D1B2B135-BA6E-48C5-9D7A-99E8A916C570_18"/> 			<stop id="_D1B2B135-BA6E-48C5-9D7A-99E8A916C570fill_el" offset="100%" stop-color="#fafad2" stop-opacity="1"/> 		</radialGradient> 		<radialGradient id="_D1B2B135-BA6E-48C5-9D7A-99E8A916C570borderbackground" cx="10%" cy="10%" r="100%" fx="10%" fy="10%"> 			<stop offset="0%" stop-color="#ffffff" stop-opacity="1" id="_D1B2B135-BA6E-48C5-9D7A-99E8A916C570__D1B2B135-BA6E-48C5-9D7A-99E8A916C570_19"/> 			<stop id="_D1B2B135-BA6E-48C5-9D7A-99E8A916C570fill_border" offset="100%" stop-color="#000000" stop-opacity="1" stroke="#000000"/> 		</radialGradient> 	</defs> 	 	<rect id="_D1B2B135-BA6E-48C5-9D7A-99E8A916C570text_frame" oryx:anchors="bottom top right left" x="1" y="1" width="94" height="79" rx="10" ry="10" stroke="none" stroke-width="0" fill="none"/> 	<rect id="_D1B2B135-BA6E-48C5-9D7A-99E8A916C570bg_frame" oryx:resize="vertical horizontal" x="0" y="0" width="100" height="80" rx="10" ry="10" stroke="#000000" stroke-width="1" fill="url(#_D1B2B135-BA6E-48C5-9D7A-99E8A916C570background) #ffffcc"/> 		<text font-size="12" id="_D1B2B135-BA6E-48C5-9D7A-99E8A916C570text_name" x="50" y="40" oryx:align="middle center" oryx:fittoelem="text_frame" stroke="black" text-anchor="middle" stroke-width="0pt" letter-spacing="-0.01px" fill="#000000" transform="rotate(0 50 40)" visibility="inherit" oryx:fontSize="12"><tspan x="50" y="40" dy="5" id="ext-gen885">answer question</tspan></text>     <g id="_D1B2B135-BA6E-48C5-9D7A-99E8A916C570manualTask" transform="scale(0.7,0.7) translate(8,8)" display="none">     	<path oryx:anchors="top left" id="_D1B2B135-BA6E-48C5-9D7A-99E8A916C570frame" style="opacity:1;fill:none;fill-opacity:1;stroke-width:1" d="M0.5,3.751l4.083-3.25c0,0,11.166,0.083,12.083,0.083s-2.417,2.917-1.5,2.917     s11.667,0,12.584,0c1.166,1.708-0.168,3.167-0.834,3.667s0.875,1.917-1,4.417c-0.75,0.25,0.75,1.875-1.333,3.333     c-1.167,0.583,0.583,1.542-1.25,2.833c-1.167,0-20.833,0.083-20.833,0.083l-2-1.333V3.751z" stroke="#000000"/> 		<path id="_D1B2B135-BA6E-48C5-9D7A-99E8A916C570frame2" oryx:anchors="top left" style="opacity:1;fill:none;stroke-width:2" d="M 13.5 7 L 27 7" stroke="#000000"/> 		<path id="_D1B2B135-BA6E-48C5-9D7A-99E8A916C570frame3" oryx:anchors="top left" style="opacity:1;fill:none;stroke-width:2" d="M 13.5 11 L 26 11" stroke="#000000"/> 		<path id="_D1B2B135-BA6E-48C5-9D7A-99E8A916C570frame4" oryx:anchors="top left" style="opacity:1;fill:none;stroke-width:1.5" d="M 14 14.5 L 25 14.5" stroke="#000000"/> 		<path id="_D1B2B135-BA6E-48C5-9D7A-99E8A916C570frame5" oryx:anchors="top left" style="opacity:1;fill:none;stroke-width:1.5" d="M 8.2 3.1 L 15 3.1" stroke="#000000"/> 	</g> 	 	<g id="_D1B2B135-BA6E-48C5-9D7A-99E8A916C570businessRuleTask" transform="scale(0.7,0.7) translate(8,8)" display="none"> 		<rect id="_D1B2B135-BA6E-48C5-9D7A-99E8A916C570frame6" oryx:anchors="top left" x="0" y="0" width="22" height="4" style="opacity:1;fill:#B3B1B3;fill-opacity:1;" stroke="#000000"/> 		<rect id="_D1B2B135-BA6E-48C5-9D7A-99E8A916C570frame7" oryx:anchors="top left" x="0" y="4" style="opacity:1;fill:none;" width="22" height="12" stroke="#000000"/> 		<path id="_D1B2B135-BA6E-48C5-9D7A-99E8A916C570frame8" oryx:anchors="top left" style="opacity:1;fill:none;" d="M 0 10 L 22 10" stroke="#000000"/> 		<path id="_D1B2B135-BA6E-48C5-9D7A-99E8A916C570frame9" oryx:anchors="top left" style="opacity:1; fill:none;" d="M 7 4 L 7 16" stroke="#000000"/> 	</g> 	 	<g id="_D1B2B135-BA6E-48C5-9D7A-99E8A916C570scriptTask" transform="scale(0.7,0.7) translate(8,8)" display="none"> 		<path oryx:anchors="top left" id="_D1B2B135-BA6E-48C5-9D7A-99E8A916C570frame10" style="opacity:1;fill:none;" stroke="#000000" d="M6.402,0.5h14.5c0,0-5.833,2.833-5.833,5.583s4.417,6,4.417,9.167    s-4.167,5.083-4.167,5.083H0.235c0,0,5-2.667,5-5s-4.583-6.75-4.583-9.25S6.402,0.5,6.402,0.5z"/> 		<path oryx:anchors="top left" id="_D1B2B135-BA6E-48C5-9D7A-99E8A916C570frame11" style="opacity:1;fill:none;stroke-width:1.5" d="M 3.5 4.5 L 13.5 4.5" stroke="#000000"/> 		<path oryx:anchors="top left" id="_D1B2B135-BA6E-48C5-9D7A-99E8A916C570frame12" style="opacity:1;fill:none;stroke-width:1.5" d="M 3.8 8.5 L 13.8 8.5" stroke="#000000"/> 		<path oryx:anchors="top left" id="_D1B2B135-BA6E-48C5-9D7A-99E8A916C570frame13" style="opacity:1;fill:none;stroke-width:1.5" d="M 6.3 12.5 L 16.3 12.5" stroke="#000000"/> 		<path oryx:anchors="top left" id="_D1B2B135-BA6E-48C5-9D7A-99E8A916C570frame14" style="opacity:1;fill:none;stroke-width:1.5" d="M 6.5 16.5 L 16.5 16.5" stroke="#000000"/> 	</g> 	 	<g id="_D1B2B135-BA6E-48C5-9D7A-99E8A916C570userTask" transform="scale(0.7,0.7) translate(8,8)" display="inherit"> 		<path id="_D1B2B135-BA6E-48C5-9D7A-99E8A916C570frame15" oryx:anchors="top left" style="opacity:1;fill:#F4F6F7" stroke="#000000" d="M0.585,24.167h24.083v-7.833c0,0-2.333-3.917-7.083-5.167h-9.25    c-4.417,1.333-7.833,5.75-7.833,5.75L0.585,24.167z"/> 		<path id="_D1B2B135-BA6E-48C5-9D7A-99E8A916C570frame16" oryx:anchors="top left" style="opacity:1;fill:none" d="M 6 20 L 6 24" stroke="#000000"/> 		<path id="_D1B2B135-BA6E-48C5-9D7A-99E8A916C570frame17" oryx:anchors="top left" style="opacity:1;fill:none" d="M 20 20 L 20 24" stroke="#000000"/> 		<circle id="_D1B2B135-BA6E-48C5-9D7A-99E8A916C570frame18" oryx:anchors="top left" fill="black" cx="13.002" cy="5.916" r="5.417" stroke="#000000"/> 		<path id="_D1B2B135-BA6E-48C5-9D7A-99E8A916C570frame19" oryx:anchors="top left" style="opacity:1;fill:#F0EFF0;" stroke="#000000" d="M8.043,7.083c0,0,2.814-2.426,5.376-1.807s4.624-0.693,4.624-0.693    c0.25,1.688,0.042,3.75-1.458,5.584c0,0,1.083,0.75,1.083,1.5s0.125,1.875-1,3s-5.5,1.25-6.75,0S8.668,12.834,8.668,12    s0.583-1.25,1.25-1.917C8.835,9.5,7.419,7.708,8.043,7.083z"/> 	</g> 	 	<g id="_D1B2B135-BA6E-48C5-9D7A-99E8A916C570serviceTask" transform="scale(0.7,0.7) translate(8,8)" display="none"> 		<polygon oryx:anchors="top left" id="_D1B2B135-BA6E-48C5-9D7A-99E8A916C570frame20" style="opacity:1;fill:#ffffff" stroke="#000000" points="15.392,5.064 17.954,2.502 20.347,4.895 17.786,7.455     18.729,9.732 22.353,9.732 22.353,13.115 18.731,13.115 17.788,15.392 20.351,17.955 17.958,20.347 15.397,17.786 13.12,18.729     13.12,22.353 9.737,22.353 9.737,18.731 7.46,17.788 4.897,20.35 2.506,17.958 5.066,15.397 4.124,13.12 0.5,13.12 0.5,9.737     4.121,9.737 5.065,7.461 2.503,4.898 4.895,2.506 7.455,5.066 9.732,4.125 9.732,0.5 13.116,0.5 13.116,4.121 "/> 		<circle oryx:anchors="top left" id="_D1B2B135-BA6E-48C5-9D7A-99E8A916C570frame21" style="opacity:1;fill:none" stroke="#000000" cx="11.427" cy="11.426" r="3.714"/> 		<polygon oryx:anchors="top left" id="_D1B2B135-BA6E-48C5-9D7A-99E8A916C570frame22" style="opacity:1;fill:#ffffff" stroke="#000000" points="21.392,11.064 23.954,8.502 26.347,10.895 23.786,13.455     24.729,15.732 28.353,15.732 28.353,19.115 24.731,19.115 23.788,21.392 26.351,23.955 23.958,26.347 21.397,23.786 19.12,24.729     19.12,28.353 15.737,28.353 15.737,24.731 13.46,23.788 10.897,26.35 8.506,23.958 11.066,21.397 10.124,19.12 6.5,19.12     6.5,15.737 10.121,15.737 11.065,13.461 8.503,10.898 10.895,8.506 13.455,11.066 15.732,10.125 15.732,6.5 19.116,6.5     19.116,10.121 "/> 		<circle oryx:anchors="top left" id="_D1B2B135-BA6E-48C5-9D7A-99E8A916C570frame23" style="opacity:1;fill:none;" stroke="#000000" cx="17.427" cy="17.426" r="3.714"/> 	</g> 	 	<g id="_D1B2B135-BA6E-48C5-9D7A-99E8A916C570sendTask" display="none"> 		<path id="_D1B2B135-BA6E-48C5-9D7A-99E8A916C570stframe24" oryx:anchors="left top" stroke="#FFFFFF" fill="black" stroke-width="1" d="M8,11 L8,21 L24,21 L24,11 L16,17z"/> 		<path id="_D1B2B135-BA6E-48C5-9D7A-99E8A916C570stframe25" oryx:anchors="left top" stroke="#FFFFFF" fill="black" stroke-width="1" d="M7,10 L16,17 L25 10z"/> 	</g> 	 	<g id="_D1B2B135-BA6E-48C5-9D7A-99E8A916C570receiveTask" display="none"> 		<path id="_D1B2B135-BA6E-48C5-9D7A-99E8A916C570frame26" oryx:anchors="left top" stroke="#000000" fill="none" stroke-width="1" d="M8,11 L8,21 L24,21 L24,11z M8,11 L16,17 L24,11"/> 	</g> 	 	<g id="_D1B2B135-BA6E-48C5-9D7A-99E8A916C570none" display="inherit"/>  	<g id="_D1B2B135-BA6E-48C5-9D7A-99E8A916C570sequential" display="none">         <path oryx:anchors="bottom" fill="none" stroke="#000000" stroke-width="2" d="M46,76h10M46,72h10 M46,68h10" id="_D1B2B135-BA6E-48C5-9D7A-99E8A916C570__D1B2B135-BA6E-48C5-9D7A-99E8A916C570_20"/>     </g>   </g></g><g class="children" style="overflow:hidden"/><g class="edge"/></g><g class="controls"><g class="dockers"/><g class="magnets" transform="translate(330, 140)"><g pointer-events="all" display="none" transform="translate(-7, 12)"><circle cx="8" cy="8" r="4" stroke="none" fill="red" fill-opacity="0.3"/></g><g pointer-events="all" display="none" transform="translate(-7, 32)"><circle cx="8" cy="8" r="4" stroke="none" fill="red" fill-opacity="0.3"/></g><g pointer-events="all" display="none" transform="translate(-7, 52)"><circle cx="8" cy="8" r="4" stroke="none" fill="red" fill-opacity="0.3"/></g><g pointer-events="all" display="none" transform="translate(17, 71)"><circle cx="8" cy="8" r="4" stroke="none" fill="red" fill-opacity="0.3"/></g><g pointer-events="all" display="none" transform="translate(42, 71)"><circle cx="8" cy="8" r="4" stroke="none" fill="red" fill-opacity="0.3"/></g><g pointer-events="all" display="none" transform="translate(67, 71)"><circle cx="8" cy="8" r="4" stroke="none" fill="red" fill-opacity="0.3"/></g><g pointer-events="all" display="none" transform="translate(91, 12)"><circle cx="8" cy="8" r="4" stroke="none" fill="red" fill-opacity="0.3"/></g><g pointer-events="all" display="none" transform="translate(91, 32)"><circle cx="8" cy="8" r="4" stroke="none" fill="red" fill-opacity="0.3"/></g><g pointer-events="all" display="none" transform="translate(91, 52)"><circle cx="8" cy="8" r="4" stroke="none" fill="red" fill-opacity="0.3"/></g><g pointer-events="all" display="none" transform="translate(17, -7)"><circle cx="8" cy="8" r="4" stroke="none" fill="red" fill-opacity="0.3"/></g><g pointer-events="all" display="none" transform="translate(42, -7)"><circle cx="8" cy="8" r="4" stroke="none" fill="red" fill-opacity="0.3"/></g><g pointer-events="all" display="none" transform="translate(67, -7)"><circle cx="8" cy="8" r="4" stroke="none" fill="red" fill-opacity="0.3"/></g><g pointer-events="all" display="none" transform="translate(42, 32)"><circle cx="8" cy="8" r="4" stroke="none" fill="red" fill-opacity="0.3"/></g></g></g></g><g id="_4F158F1F-1996-4282-9A14-3E346275CD86" bpmn2nodeid="_7D513B0F-F4A3-41AC-9056-F4CD662390F7"><g class="stencils" transform="translate(660, 166)"><g class="me"><g pointer-events="fill" id="_4F158F1F-1996-4282-9A14-3E346275CD86">      <defs id="_4F158F1F-1996-4282-9A14-3E346275CD86__4F158F1F-1996-4282-9A14-3E346275CD86_5"> 		<radialGradient id="_4F158F1F-1996-4282-9A14-3E346275CD86background" cx="10%" cy="10%" r="100%" fx="10%" fy="10%"> 			<stop offset="0%" stop-color="#ffffff" stop-opacity="1" id="_4F158F1F-1996-4282-9A14-3E346275CD86__4F158F1F-1996-4282-9A14-3E346275CD86_6"/> 			<stop id="_4F158F1F-1996-4282-9A14-3E346275CD86fill_el" offset="100%" stop-color="#ff6347" stop-opacity="1"/> 		</radialGradient> 	</defs> 	     <circle id="_4F158F1F-1996-4282-9A14-3E346275CD86bg_frame" cx="14" cy="14" r="14" stroke="#000000" fill="url(#_4F158F1F-1996-4282-9A14-3E346275CD86background) white" stroke-width="3"/> 	<text font-size="11" id="_4F158F1F-1996-4282-9A14-3E346275CD86text_name" x="14" y="30" oryx:align="top center" stroke="black" stroke-width="0pt" letter-spacing="-0.01px" fill="#000000" text-anchor="middle" transform="rotate(0 14 30)" visibility="inherit" oryx:fontSize="11"><tspan x="14" y="30" dy="11">end question</tspan></text>   </g></g><g class="children" style="overflow:hidden"/><g class="edge"/></g><g class="controls"><g class="dockers"/><g class="magnets" transform="translate(660, 166)"><g pointer-events="all" display="none" transform="translate(6, 6)"><circle cx="8" cy="8" r="4" stroke="none" fill="red" fill-opacity="0.3"/></g></g></g></g><g id="_8588D4B8-08E5-495C-9FC9-2A6A1D49E5DB" bpmn2nodeid="_5276B019-B2F7-4D14-AEF7-6575D1C97196"><g class="stencils" transform="translate(480, 140)"><g class="me"><g pointer-events="fill" oryx:minimumSize="50 40" id="_8588D4B8-08E5-495C-9FC9-2A6A1D49E5DB">   	<defs id="_8588D4B8-08E5-495C-9FC9-2A6A1D49E5DB__8588D4B8-08E5-495C-9FC9-2A6A1D49E5DB_17"> 		<radialGradient id="_8588D4B8-08E5-495C-9FC9-2A6A1D49E5DBbackground" cx="10%" cy="10%" r="100%" fx="10%" fy="10%"> 			<stop offset="0%" stop-color="#ffffff" stop-opacity="1" id="_8588D4B8-08E5-495C-9FC9-2A6A1D49E5DB__8588D4B8-08E5-495C-9FC9-2A6A1D49E5DB_18"/> 			<stop id="_8588D4B8-08E5-495C-9FC9-2A6A1D49E5DBfill_el" offset="100%" stop-color="#fafad2" stop-opacity="1"/> 		</radialGradient> 		<radialGradient id="_8588D4B8-08E5-495C-9FC9-2A6A1D49E5DBborderbackground" cx="10%" cy="10%" r="100%" fx="10%" fy="10%"> 			<stop offset="0%" stop-color="#ffffff" stop-opacity="1" id="_8588D4B8-08E5-495C-9FC9-2A6A1D49E5DB__8588D4B8-08E5-495C-9FC9-2A6A1D49E5DB_19"/> 			<stop id="_8588D4B8-08E5-495C-9FC9-2A6A1D49E5DBfill_border" offset="100%" stop-color="#000000" stop-opacity="1" stroke="#000000"/> 		</radialGradient> 	</defs> 	 	<rect id="_8588D4B8-08E5-495C-9FC9-2A6A1D49E5DBtext_frame" oryx:anchors="bottom top right left" x="1" y="1" width="94" height="79" rx="10" ry="10" stroke="none" stroke-width="0" fill="none"/> 	<rect id="_8588D4B8-08E5-495C-9FC9-2A6A1D49E5DBbg_frame" oryx:resize="vertical horizontal" x="0" y="0" width="100" height="80" rx="10" ry="10" stroke="#000000" stroke-width="1" fill="url(#_8588D4B8-08E5-495C-9FC9-2A6A1D49E5DBbackground) #ffffcc"/> 		<text font-size="12" id="_8588D4B8-08E5-495C-9FC9-2A6A1D49E5DBtext_name" x="50" y="40" oryx:align="middle center" oryx:fittoelem="text_frame" stroke="black" text-anchor="middle" stroke-width="0pt" letter-spacing="-0.01px" fill="#000000" transform="rotate(0 50 40)" visibility="inherit" oryx:fontSize="12"><tspan x="50" y="40" dy="-1" id="ext-gen606">Populate </tspan><tspan x="50" y="40" dy="11" id="ext-gen928">Response</tspan></text>     <g id="_8588D4B8-08E5-495C-9FC9-2A6A1D49E5DBmanualTask" transform="scale(0.7,0.7) translate(8,8)" display="none">     	<path oryx:anchors="top left" id="_8588D4B8-08E5-495C-9FC9-2A6A1D49E5DBframe" style="opacity:1;fill:none;fill-opacity:1;stroke-width:1" d="M0.5,3.751l4.083-3.25c0,0,11.166,0.083,12.083,0.083s-2.417,2.917-1.5,2.917     s11.667,0,12.584,0c1.166,1.708-0.168,3.167-0.834,3.667s0.875,1.917-1,4.417c-0.75,0.25,0.75,1.875-1.333,3.333     c-1.167,0.583,0.583,1.542-1.25,2.833c-1.167,0-20.833,0.083-20.833,0.083l-2-1.333V3.751z" stroke="#000000"/> 		<path id="_8588D4B8-08E5-495C-9FC9-2A6A1D49E5DBframe2" oryx:anchors="top left" style="opacity:1;fill:none;stroke-width:2" d="M 13.5 7 L 27 7" stroke="#000000"/> 		<path id="_8588D4B8-08E5-495C-9FC9-2A6A1D49E5DBframe3" oryx:anchors="top left" style="opacity:1;fill:none;stroke-width:2" d="M 13.5 11 L 26 11" stroke="#000000"/> 		<path id="_8588D4B8-08E5-495C-9FC9-2A6A1D49E5DBframe4" oryx:anchors="top left" style="opacity:1;fill:none;stroke-width:1.5" d="M 14 14.5 L 25 14.5" stroke="#000000"/> 		<path id="_8588D4B8-08E5-495C-9FC9-2A6A1D49E5DBframe5" oryx:anchors="top left" style="opacity:1;fill:none;stroke-width:1.5" d="M 8.2 3.1 L 15 3.1" stroke="#000000"/> 	</g> 	 	<g id="_8588D4B8-08E5-495C-9FC9-2A6A1D49E5DBbusinessRuleTask" transform="scale(0.7,0.7) translate(8,8)" display="none"> 		<rect id="_8588D4B8-08E5-495C-9FC9-2A6A1D49E5DBframe6" oryx:anchors="top left" x="0" y="0" width="22" height="4" style="opacity:1;fill:#B3B1B3;fill-opacity:1;" stroke="#000000"/> 		<rect id="_8588D4B8-08E5-495C-9FC9-2A6A1D49E5DBframe7" oryx:anchors="top left" x="0" y="4" style="opacity:1;fill:none;" width="22" height="12" stroke="#000000"/> 		<path id="_8588D4B8-08E5-495C-9FC9-2A6A1D49E5DBframe8" oryx:anchors="top left" style="opacity:1;fill:none;" d="M 0 10 L 22 10" stroke="#000000"/> 		<path id="_8588D4B8-08E5-495C-9FC9-2A6A1D49E5DBframe9" oryx:anchors="top left" style="opacity:1; fill:none;" d="M 7 4 L 7 16" stroke="#000000"/> 	</g> 	 	<g id="_8588D4B8-08E5-495C-9FC9-2A6A1D49E5DBscriptTask" transform="scale(0.7,0.7) translate(8,8)" display="inherit"> 		<path oryx:anchors="top left" id="_8588D4B8-08E5-495C-9FC9-2A6A1D49E5DBframe10" style="opacity:1;fill:none;" stroke="#000000" d="M6.402,0.5h14.5c0,0-5.833,2.833-5.833,5.583s4.417,6,4.417,9.167    s-4.167,5.083-4.167,5.083H0.235c0,0,5-2.667,5-5s-4.583-6.75-4.583-9.25S6.402,0.5,6.402,0.5z"/> 		<path oryx:anchors="top left" id="_8588D4B8-08E5-495C-9FC9-2A6A1D49E5DBframe11" style="opacity:1;fill:none;stroke-width:1.5" d="M 3.5 4.5 L 13.5 4.5" stroke="#000000"/> 		<path oryx:anchors="top left" id="_8588D4B8-08E5-495C-9FC9-2A6A1D49E5DBframe12" style="opacity:1;fill:none;stroke-width:1.5" d="M 3.8 8.5 L 13.8 8.5" stroke="#000000"/> 		<path oryx:anchors="top left" id="_8588D4B8-08E5-495C-9FC9-2A6A1D49E5DBframe13" style="opacity:1;fill:none;stroke-width:1.5" d="M 6.3 12.5 L 16.3 12.5" stroke="#000000"/> 		<path oryx:anchors="top left" id="_8588D4B8-08E5-495C-9FC9-2A6A1D49E5DBframe14" style="opacity:1;fill:none;stroke-width:1.5" d="M 6.5 16.5 L 16.5 16.5" stroke="#000000"/> 	</g> 	 	<g id="_8588D4B8-08E5-495C-9FC9-2A6A1D49E5DBuserTask" transform="scale(0.7,0.7) translate(8,8)" display="none"> 		<path id="_8588D4B8-08E5-495C-9FC9-2A6A1D49E5DBframe15" oryx:anchors="top left" style="opacity:1;fill:#F4F6F7" stroke="#000000" d="M0.585,24.167h24.083v-7.833c0,0-2.333-3.917-7.083-5.167h-9.25    c-4.417,1.333-7.833,5.75-7.833,5.75L0.585,24.167z"/> 		<path id="_8588D4B8-08E5-495C-9FC9-2A6A1D49E5DBframe16" oryx:anchors="top left" style="opacity:1;fill:none" d="M 6 20 L 6 24" stroke="#000000"/> 		<path id="_8588D4B8-08E5-495C-9FC9-2A6A1D49E5DBframe17" oryx:anchors="top left" style="opacity:1;fill:none" d="M 20 20 L 20 24" stroke="#000000"/> 		<circle id="_8588D4B8-08E5-495C-9FC9-2A6A1D49E5DBframe18" oryx:anchors="top left" fill="black" cx="13.002" cy="5.916" r="5.417" stroke="#000000"/> 		<path id="_8588D4B8-08E5-495C-9FC9-2A6A1D49E5DBframe19" oryx:anchors="top left" style="opacity:1;fill:#F0EFF0;" stroke="#000000" d="M8.043,7.083c0,0,2.814-2.426,5.376-1.807s4.624-0.693,4.624-0.693    c0.25,1.688,0.042,3.75-1.458,5.584c0,0,1.083,0.75,1.083,1.5s0.125,1.875-1,3s-5.5,1.25-6.75,0S8.668,12.834,8.668,12    s0.583-1.25,1.25-1.917C8.835,9.5,7.419,7.708,8.043,7.083z"/> 	</g> 	 	<g id="_8588D4B8-08E5-495C-9FC9-2A6A1D49E5DBserviceTask" transform="scale(0.7,0.7) translate(8,8)" display="none"> 		<polygon oryx:anchors="top left" id="_8588D4B8-08E5-495C-9FC9-2A6A1D49E5DBframe20" style="opacity:1;fill:#ffffff" stroke="#000000" points="15.392,5.064 17.954,2.502 20.347,4.895 17.786,7.455     18.729,9.732 22.353,9.732 22.353,13.115 18.731,13.115 17.788,15.392 20.351,17.955 17.958,20.347 15.397,17.786 13.12,18.729     13.12,22.353 9.737,22.353 9.737,18.731 7.46,17.788 4.897,20.35 2.506,17.958 5.066,15.397 4.124,13.12 0.5,13.12 0.5,9.737     4.121,9.737 5.065,7.461 2.503,4.898 4.895,2.506 7.455,5.066 9.732,4.125 9.732,0.5 13.116,0.5 13.116,4.121 "/> 		<circle oryx:anchors="top left" id="_8588D4B8-08E5-495C-9FC9-2A6A1D49E5DBframe21" style="opacity:1;fill:none" stroke="#000000" cx="11.427" cy="11.426" r="3.714"/> 		<polygon oryx:anchors="top left" id="_8588D4B8-08E5-495C-9FC9-2A6A1D49E5DBframe22" style="opacity:1;fill:#ffffff" stroke="#000000" points="21.392,11.064 23.954,8.502 26.347,10.895 23.786,13.455     24.729,15.732 28.353,15.732 28.353,19.115 24.731,19.115 23.788,21.392 26.351,23.955 23.958,26.347 21.397,23.786 19.12,24.729     19.12,28.353 15.737,28.353 15.737,24.731 13.46,23.788 10.897,26.35 8.506,23.958 11.066,21.397 10.124,19.12 6.5,19.12     6.5,15.737 10.121,15.737 11.065,13.461 8.503,10.898 10.895,8.506 13.455,11.066 15.732,10.125 15.732,6.5 19.116,6.5     19.116,10.121 "/> 		<circle oryx:anchors="top left" id="_8588D4B8-08E5-495C-9FC9-2A6A1D49E5DBframe23" style="opacity:1;fill:none;" stroke="#000000" cx="17.427" cy="17.426" r="3.714"/> 	</g> 	 	<g id="_8588D4B8-08E5-495C-9FC9-2A6A1D49E5DBsendTask" display="none"> 		<path id="_8588D4B8-08E5-495C-9FC9-2A6A1D49E5DBstframe24" oryx:anchors="left top" stroke="#FFFFFF" fill="black" stroke-width="1" d="M8,11 L8,21 L24,21 L24,11 L16,17z"/> 		<path id="_8588D4B8-08E5-495C-9FC9-2A6A1D49E5DBstframe25" oryx:anchors="left top" stroke="#FFFFFF" fill="black" stroke-width="1" d="M7,10 L16,17 L25 10z"/> 	</g> 	 	<g id="_8588D4B8-08E5-495C-9FC9-2A6A1D49E5DBreceiveTask" display="none"> 		<path id="_8588D4B8-08E5-495C-9FC9-2A6A1D49E5DBframe26" oryx:anchors="left top" stroke="#000000" fill="none" stroke-width="1" d="M8,11 L8,21 L24,21 L24,11z M8,11 L16,17 L24,11"/> 	</g> 	 	<g id="_8588D4B8-08E5-495C-9FC9-2A6A1D49E5DBnone" display="inherit"/>  	<g id="_8588D4B8-08E5-495C-9FC9-2A6A1D49E5DBsequential" display="none">         <path oryx:anchors="bottom" fill="none" stroke="#000000" stroke-width="2" d="M46,76h10M46,72h10 M46,68h10" id="_8588D4B8-08E5-495C-9FC9-2A6A1D49E5DB__8588D4B8-08E5-495C-9FC9-2A6A1D49E5DB_20"/>     </g>   </g></g><g class="children" style="overflow:hidden"/><g class="edge"/></g><g class="controls"><g class="dockers"/><g class="magnets" transform="translate(480, 140)"><g pointer-events="all" display="none" transform="translate(-7, 12)"><circle cx="8" cy="8" r="4" stroke="none" fill="red" fill-opacity="0.3"/></g><g pointer-events="all" display="none" transform="translate(-7, 32)"><circle cx="8" cy="8" r="4" stroke="none" fill="red" fill-opacity="0.3"/></g><g pointer-events="all" display="none" transform="translate(-7, 52)"><circle cx="8" cy="8" r="4" stroke="none" fill="red" fill-opacity="0.3"/></g><g pointer-events="all" display="none" transform="translate(17, 71)"><circle cx="8" cy="8" r="4" stroke="none" fill="red" fill-opacity="0.3"/></g><g pointer-events="all" display="none" transform="translate(42, 71)"><circle cx="8" cy="8" r="4" stroke="none" fill="red" fill-opacity="0.3"/></g><g pointer-events="all" display="none" transform="translate(67, 71)"><circle cx="8" cy="8" r="4" stroke="none" fill="red" fill-opacity="0.3"/></g><g pointer-events="all" display="none" transform="translate(91, 12)"><circle cx="8" cy="8" r="4" stroke="none" fill="red" fill-opacity="0.3"/></g><g pointer-events="all" display="none" transform="translate(91, 32)"><circle cx="8" cy="8" r="4" stroke="none" fill="red" fill-opacity="0.3"/></g><g pointer-events="all" display="none" transform="translate(91, 52)"><circle cx="8" cy="8" r="4" stroke="none" fill="red" fill-opacity="0.3"/></g><g pointer-events="all" display="none" transform="translate(17, -7)"><circle cx="8" cy="8" r="4" stroke="none" fill="red" fill-opacity="0.3"/></g><g pointer-events="all" display="none" transform="translate(42, -7)"><circle cx="8" cy="8" r="4" stroke="none" fill="red" fill-opacity="0.3"/></g><g pointer-events="all" display="none" transform="translate(67, -7)"><circle cx="8" cy="8" r="4" stroke="none" fill="red" fill-opacity="0.3"/></g><g pointer-events="all" display="none" transform="translate(42, 32)"><circle cx="8" cy="8" r="4" stroke="none" fill="red" fill-opacity="0.3"/></g></g></g></g></g><g class="edge"><g id="_AB2591C5-9E8A-433E-86E4-7B819E1DE3CB" bpmn2nodeid="_E755881D-5458-4413-A03F-A090DDBAC2BF"><g class="stencils"><g class="me"><g pointer-events="painted" bpmn2nodeid="_AD6D20D7-366D-4D5A-A0EF-EAAC32B04F1B"><path id="_AB2591C5-9E8A-433E-86E4-7B819E1DE3CB_1" d="M150.609375 180L194.15625 180 " stroke="#000000" fill="none" stroke-width="2" stroke-linecap="round" stroke-linejoin="round" marker-start="url(#_AB2591C5-9E8A-433E-86E4-7B819E1DE3CBstart)" marker-end="url(#_AB2591C5-9E8A-433E-86E4-7B819E1DE3CBend)"/></g><text id="_AB2591C5-9E8A-433E-86E4-7B819E1DE3CBtext_name" font-size="12" x="164.609375" y="166" oryx:edgePosition="startTop" stroke-width="0pt" letter-spacing="-0.01px" fill="#000000" text-anchor="start" transform="rotate(360 150.609375 180)" visibility="inherit" oryx:fontSize="12"/></g><g class="children" style="overflow:hidden"/><g class="edge"/></g><g class="controls"><g class="dockers"/><g class="magnets"/></g></g><g id="_7F2C3E46-C162-4FEF-80A1-F22C59A37201" bpmn2nodeid="_2C74AF06-DE4F-44D1-8B04-FF25A92F9086"><g class="stencils"><g class="me"><g pointer-events="painted" bpmn2nodeid="_B5F7C9B2-5E73-4381-911F-901F51DF72C4"><path id="_7F2C3E46-C162-4FEF-80A1-F22C59A37201_1" d="M295.5703125 180L329.4296875 180 " stroke="#000000" fill="none" stroke-width="2" stroke-linecap="round" stroke-linejoin="round" marker-start="url(#_7F2C3E46-C162-4FEF-80A1-F22C59A37201start)" marker-end="url(#_7F2C3E46-C162-4FEF-80A1-F22C59A37201end)"/></g><text id="_7F2C3E46-C162-4FEF-80A1-F22C59A37201text_name" font-size="12" x="309.5703125" y="166" oryx:edgePosition="startTop" stroke-width="0pt" letter-spacing="-0.01px" fill="#000000" text-anchor="start" transform="rotate(360 295.5703125 180)" visibility="inherit" oryx:fontSize="12"/></g><g class="children" style="overflow:hidden"/><g class="edge"/></g><g class="controls"><g class="dockers"/><g class="magnets"/></g></g><g id="_5703EA94-D7FE-4154-93F9-82B5F9E5B8D1" bpmn2nodeid="_384363E7-4DEA-43DD-B9AD-BD5241A41851"><g class="stencils"><g class="me"><g pointer-events="painted" bpmn2nodeid="_F9CE6E9A-B9D2-4B1C-BD02-C712A8B277A1"><path id="_5703EA94-D7FE-4154-93F9-82B5F9E5B8D1_1" d="M430.21875 180L479.78125 180 " stroke="#000000" fill="none" stroke-width="2" stroke-linecap="round" stroke-linejoin="round" marker-start="url(#_5703EA94-D7FE-4154-93F9-82B5F9E5B8D1start)" marker-end="url(#_5703EA94-D7FE-4154-93F9-82B5F9E5B8D1end)"/></g><text id="_5703EA94-D7FE-4154-93F9-82B5F9E5B8D1text_name" font-size="12" x="444.21875" y="166" oryx:edgePosition="startTop" stroke-width="0pt" letter-spacing="-0.01px" fill="#000000" text-anchor="start" transform="rotate(360 430.21875 180)" visibility="inherit" oryx:fontSize="12"/></g><g class="children" style="overflow:hidden"/><g class="edge"/></g><g class="controls"><g class="dockers"/><g class="magnets"/></g></g><g id="_90651132-CE2E-46F8-98CB-B983FBBB12C6" bpmn2nodeid="_818BF781-D88C-4952-BA8D-FA88DD3494EE"><g class="stencils"><g class="me"><g pointer-events="painted" bpmn2nodeid="_8D9D0DE8-619B-4C1A-877A-8C04A3B3258B"><path id="_90651132-CE2E-46F8-98CB-B983FBBB12C6_1" d="M580.5 180L659.5 180 " stroke="#000000" fill="none" stroke-width="2" stroke-linecap="round" stroke-linejoin="round" marker-start="url(#_90651132-CE2E-46F8-98CB-B983FBBB12C6start)" marker-end="url(#_90651132-CE2E-46F8-98CB-B983FBBB12C6end)"/></g><text id="_90651132-CE2E-46F8-98CB-B983FBBB12C6text_name" font-size="12" x="594.5" y="166" oryx:edgePosition="startTop" stroke-width="0pt" letter-spacing="-0.01px" fill="#000000" text-anchor="start" transform="rotate(360 580.5 180)" visibility="inherit" oryx:fontSize="12"/></g><g class="children" style="overflow:hidden"/><g class="edge"/></g><g class="controls"><g class="dockers"/><g class="magnets"/></g></g></g><text id="_A5E652C2-E6E2-40C3-884B-6B38C13D82DF" style="stroke-width:1;fill:rgb(177,194,214);font-family:arial;font-weight:bold" font-size="12" onclick="ORYX.Plugins.CanvasTitle.openTextualAnalysis()" onmouseover="ORYX.Plugins.CanvasTitle.addToolTip('_A5E652C2-E6E2-40C3-884B-6B38C13D82DF')" transform="translate(10, 20)">QuestionProcess v.1.0 (src.QuestionProcess)</text></g></g></svg>